<mxfile host="Electron" modified="2023-12-20T01:45:11.467Z" agent="Mozilla/5.0 (Macintosh; Intel Mac OS X 10_15_7) AppleWebKit/537.36 (KHTML, like Gecko) draw.io/22.1.11 Chrome/114.0.5735.289 Electron/25.9.8 Safari/537.36" etag="HbLtRKwHfHriTB65FaaI" version="22.1.11" type="device">
  <diagram id="DhFlG7rGS9A__2psBfAv" name="Page-2">
    <mxGraphModel dx="2744" dy="1105" grid="1" gridSize="10" guides="1" tooltips="1" connect="1" arrows="1" fold="1" page="1" pageScale="1" pageWidth="827" pageHeight="1169" math="0" shadow="0">
      <root>
        <mxCell id="0" />
        <mxCell id="1" parent="0" />
        <mxCell id="nO_tQ9lK2_0qFseZZgwn-34" value="" style="rounded=0;whiteSpace=wrap;html=1;dashed=1;" parent="1" vertex="1">
          <mxGeometry x="540" y="580" width="290" height="160" as="geometry" />
        </mxCell>
        <mxCell id="nO_tQ9lK2_0qFseZZgwn-10" value="" style="rounded=0;whiteSpace=wrap;html=1;dashed=1;" parent="1" vertex="1">
          <mxGeometry x="100" y="580" width="420" height="160" as="geometry" />
        </mxCell>
        <mxCell id="nO_tQ9lK2_0qFseZZgwn-6" value="" style="rounded=0;whiteSpace=wrap;html=1;dashed=1;" parent="1" vertex="1">
          <mxGeometry x="-230" y="580" width="200" height="160" as="geometry" />
        </mxCell>
        <mxCell id="nO_tQ9lK2_0qFseZZgwn-4" value="" style="rounded=0;whiteSpace=wrap;html=1;fillColor=#f8cecc;strokeColor=#b85450;" parent="1" vertex="1">
          <mxGeometry x="110" y="640" width="100" height="50" as="geometry" />
        </mxCell>
        <mxCell id="nO_tQ9lK2_0qFseZZgwn-5" value="Thales CipherTrust Manager" style="rounded=0;whiteSpace=wrap;html=1;fillColor=#dae8fc;strokeColor=#6c8ebf;" parent="1" vertex="1">
          <mxGeometry x="-180" y="630" width="120" height="60" as="geometry" />
        </mxCell>
        <mxCell id="nO_tQ9lK2_0qFseZZgwn-23" value="443" style="edgeStyle=orthogonalEdgeStyle;rounded=0;orthogonalLoop=1;jettySize=auto;html=1;entryX=0.5;entryY=0;entryDx=0;entryDy=0;" parent="1" source="nO_tQ9lK2_0qFseZZgwn-7" target="nO_tQ9lK2_0qFseZZgwn-22" edge="1">
          <mxGeometry relative="1" as="geometry">
            <Array as="points">
              <mxPoint x="-120" y="400" />
            </Array>
          </mxGeometry>
        </mxCell>
        <mxCell id="nO_tQ9lK2_0qFseZZgwn-27" style="edgeStyle=orthogonalEdgeStyle;rounded=0;orthogonalLoop=1;jettySize=auto;html=1;" parent="1" source="nO_tQ9lK2_0qFseZZgwn-7" target="nO_tQ9lK2_0qFseZZgwn-18" edge="1">
          <mxGeometry relative="1" as="geometry">
            <Array as="points">
              <mxPoint x="-55" y="320" />
              <mxPoint x="430" y="320" />
            </Array>
          </mxGeometry>
        </mxCell>
        <mxCell id="nO_tQ9lK2_0qFseZZgwn-28" value="6443 (typically)" style="edgeLabel;html=1;align=center;verticalAlign=middle;resizable=0;points=[];" parent="nO_tQ9lK2_0qFseZZgwn-27" vertex="1" connectable="0">
          <mxGeometry x="-0.2175" y="-1" relative="1" as="geometry">
            <mxPoint as="offset" />
          </mxGeometry>
        </mxCell>
        <mxCell id="nO_tQ9lK2_0qFseZZgwn-7" value="Tenant admin user" style="shape=umlActor;verticalLabelPosition=bottom;verticalAlign=top;html=1;outlineConnect=0;" parent="1" vertex="1">
          <mxGeometry x="-135" y="300" width="30" height="60" as="geometry" />
        </mxCell>
        <mxCell id="nO_tQ9lK2_0qFseZZgwn-11" value="Hosted cluster workers" style="rounded=0;whiteSpace=wrap;html=1;" parent="1" vertex="1">
          <mxGeometry x="560" y="650" width="80" height="50" as="geometry" />
        </mxCell>
        <mxCell id="nO_tQ9lK2_0qFseZZgwn-13" value="" style="rounded=0;whiteSpace=wrap;html=1;fillColor=#f8cecc;strokeColor=#b85450;" parent="1" vertex="1">
          <mxGeometry x="120" y="650" width="100" height="50" as="geometry" />
        </mxCell>
        <mxCell id="nO_tQ9lK2_0qFseZZgwn-16" value="Host Cluster CP" style="rounded=0;whiteSpace=wrap;html=1;fillColor=#f8cecc;strokeColor=#b85450;" parent="1" vertex="1">
          <mxGeometry x="130" y="660" width="100" height="50" as="geometry" />
        </mxCell>
        <mxCell id="nO_tQ9lK2_0qFseZZgwn-31" style="edgeStyle=orthogonalEdgeStyle;rounded=0;orthogonalLoop=1;jettySize=auto;html=1;entryX=0.5;entryY=0;entryDx=0;entryDy=0;" parent="1" source="nO_tQ9lK2_0qFseZZgwn-17" target="nO_tQ9lK2_0qFseZZgwn-4" edge="1">
          <mxGeometry relative="1" as="geometry" />
        </mxCell>
        <mxCell id="nO_tQ9lK2_0qFseZZgwn-17" value="Host cluster API LB" style="rounded=0;whiteSpace=wrap;html=1;" parent="1" vertex="1">
          <mxGeometry x="125" y="560" width="70" height="40" as="geometry" />
        </mxCell>
        <mxCell id="nO_tQ9lK2_0qFseZZgwn-18" value="Hosted cluster API routes" style="rounded=0;whiteSpace=wrap;html=1;" parent="1" vertex="1">
          <mxGeometry x="370" y="560" width="120" height="40" as="geometry" />
        </mxCell>
        <mxCell id="nO_tQ9lK2_0qFseZZgwn-20" value="Host cluster worker" style="rounded=0;whiteSpace=wrap;html=1;fillColor=#f8cecc;strokeColor=#b85450;" parent="1" vertex="1">
          <mxGeometry x="250" y="650" width="80" height="50" as="geometry" />
        </mxCell>
        <mxCell id="59v--0HXhksTh89BKZgH-4" value="443" style="edgeStyle=orthogonalEdgeStyle;rounded=0;orthogonalLoop=1;jettySize=auto;html=1;entryX=1;entryY=0.5;entryDx=0;entryDy=0;" parent="1" source="nO_tQ9lK2_0qFseZZgwn-21" target="59v--0HXhksTh89BKZgH-2" edge="1">
          <mxGeometry relative="1" as="geometry" />
        </mxCell>
        <mxCell id="nO_tQ9lK2_0qFseZZgwn-21" value="Egress IP" style="rounded=0;whiteSpace=wrap;html=1;" parent="1" vertex="1">
          <mxGeometry x="270" y="560" width="70" height="40" as="geometry" />
        </mxCell>
        <mxCell id="nO_tQ9lK2_0qFseZZgwn-22" value="Exposed IP" style="rounded=0;whiteSpace=wrap;html=1;" parent="1" vertex="1">
          <mxGeometry x="-155" y="560" width="70" height="40" as="geometry" />
        </mxCell>
        <mxCell id="nO_tQ9lK2_0qFseZZgwn-30" value="6443" style="edgeStyle=orthogonalEdgeStyle;rounded=0;orthogonalLoop=1;jettySize=auto;html=1;entryX=0.5;entryY=0;entryDx=0;entryDy=0;" parent="1" source="nO_tQ9lK2_0qFseZZgwn-29" target="nO_tQ9lK2_0qFseZZgwn-17" edge="1">
          <mxGeometry relative="1" as="geometry" />
        </mxCell>
        <mxCell id="nO_tQ9lK2_0qFseZZgwn-29" value="PaaS Admin" style="shape=umlActor;verticalLabelPosition=bottom;verticalAlign=top;html=1;outlineConnect=0;" parent="1" vertex="1">
          <mxGeometry y="730" width="30" height="60" as="geometry" />
        </mxCell>
        <mxCell id="nO_tQ9lK2_0qFseZZgwn-32" value="Host cluster worker" style="rounded=0;whiteSpace=wrap;html=1;fillColor=#f8cecc;strokeColor=#b85450;" parent="1" vertex="1">
          <mxGeometry x="340" y="650" width="80" height="50" as="geometry" />
        </mxCell>
        <mxCell id="nO_tQ9lK2_0qFseZZgwn-33" value="Host cluster worker" style="rounded=0;whiteSpace=wrap;html=1;fillColor=#f8cecc;strokeColor=#b85450;" parent="1" vertex="1">
          <mxGeometry x="430" y="650" width="80" height="50" as="geometry" />
        </mxCell>
        <mxCell id="nO_tQ9lK2_0qFseZZgwn-35" value="Hosted cluster workers" style="rounded=0;whiteSpace=wrap;html=1;" parent="1" vertex="1">
          <mxGeometry x="650" y="650" width="80" height="50" as="geometry" />
        </mxCell>
        <mxCell id="nO_tQ9lK2_0qFseZZgwn-36" value="Hosted cluster workers" style="rounded=0;whiteSpace=wrap;html=1;" parent="1" vertex="1">
          <mxGeometry x="740" y="650" width="80" height="50" as="geometry" />
        </mxCell>
        <mxCell id="nO_tQ9lK2_0qFseZZgwn-39" style="edgeStyle=orthogonalEdgeStyle;rounded=0;orthogonalLoop=1;jettySize=auto;html=1;entryX=0.5;entryY=0;entryDx=0;entryDy=0;jumpStyle=arc;" parent="1" source="nO_tQ9lK2_0qFseZZgwn-37" target="nO_tQ9lK2_0qFseZZgwn-17" edge="1">
          <mxGeometry relative="1" as="geometry">
            <Array as="points">
              <mxPoint x="605" y="540" />
              <mxPoint x="160" y="540" />
            </Array>
          </mxGeometry>
        </mxCell>
        <mxCell id="OG6armXyYNSBmyf1dkZr-1" value="6443, 443" style="edgeLabel;html=1;align=center;verticalAlign=middle;resizable=0;points=[];" vertex="1" connectable="0" parent="nO_tQ9lK2_0qFseZZgwn-39">
          <mxGeometry x="-0.4351" relative="1" as="geometry">
            <mxPoint as="offset" />
          </mxGeometry>
        </mxCell>
        <mxCell id="nO_tQ9lK2_0qFseZZgwn-37" value="Egress IP" style="rounded=0;whiteSpace=wrap;html=1;" parent="1" vertex="1">
          <mxGeometry x="570" y="560" width="70" height="40" as="geometry" />
        </mxCell>
        <mxCell id="nO_tQ9lK2_0qFseZZgwn-38" value="Hosted cluster LB" style="rounded=0;whiteSpace=wrap;html=1;" parent="1" vertex="1">
          <mxGeometry x="670" y="560" width="70" height="40" as="geometry" />
        </mxCell>
        <mxCell id="nO_tQ9lK2_0qFseZZgwn-46" style="edgeStyle=orthogonalEdgeStyle;rounded=0;orthogonalLoop=1;jettySize=auto;html=1;entryX=0.75;entryY=0;entryDx=0;entryDy=0;" parent="1" source="nO_tQ9lK2_0qFseZZgwn-41" target="nO_tQ9lK2_0qFseZZgwn-38" edge="1">
          <mxGeometry relative="1" as="geometry" />
        </mxCell>
        <mxCell id="nO_tQ9lK2_0qFseZZgwn-47" value="443/80" style="edgeLabel;html=1;align=center;verticalAlign=middle;resizable=0;points=[];" parent="nO_tQ9lK2_0qFseZZgwn-46" vertex="1" connectable="0">
          <mxGeometry x="-0.5384" y="-1" relative="1" as="geometry">
            <mxPoint as="offset" />
          </mxGeometry>
        </mxCell>
        <mxCell id="nO_tQ9lK2_0qFseZZgwn-41" value="Tenant Users" style="shape=umlActor;verticalLabelPosition=bottom;verticalAlign=top;html=1;outlineConnect=0;" parent="1" vertex="1">
          <mxGeometry x="780" y="370" width="30" height="60" as="geometry" />
        </mxCell>
        <mxCell id="nO_tQ9lK2_0qFseZZgwn-44" value="" style="endArrow=classic;html=1;rounded=0;entryX=0.25;entryY=0;entryDx=0;entryDy=0;" parent="1" target="nO_tQ9lK2_0qFseZZgwn-38" edge="1">
          <mxGeometry width="50" height="50" relative="1" as="geometry">
            <mxPoint x="430" y="400" as="sourcePoint" />
            <mxPoint x="480" y="350" as="targetPoint" />
            <Array as="points">
              <mxPoint x="688" y="400" />
            </Array>
          </mxGeometry>
        </mxCell>
        <mxCell id="nO_tQ9lK2_0qFseZZgwn-45" value="443 / 80" style="edgeLabel;html=1;align=center;verticalAlign=middle;resizable=0;points=[];" parent="nO_tQ9lK2_0qFseZZgwn-44" vertex="1" connectable="0">
          <mxGeometry x="-0.2971" y="1" relative="1" as="geometry">
            <mxPoint as="offset" />
          </mxGeometry>
        </mxCell>
        <mxCell id="nO_tQ9lK2_0qFseZZgwn-48" style="edgeStyle=orthogonalEdgeStyle;rounded=0;orthogonalLoop=1;jettySize=auto;html=1;entryX=0.688;entryY=-0.001;entryDx=0;entryDy=0;entryPerimeter=0;jumpStyle=arc;" parent="1" source="nO_tQ9lK2_0qFseZZgwn-29" target="nO_tQ9lK2_0qFseZZgwn-22" edge="1">
          <mxGeometry relative="1" as="geometry">
            <Array as="points">
              <mxPoint x="-10" y="760" />
              <mxPoint x="-10" y="540" />
              <mxPoint x="-107" y="540" />
            </Array>
          </mxGeometry>
        </mxCell>
        <mxCell id="59v--0HXhksTh89BKZgH-6" value="443" style="edgeStyle=orthogonalEdgeStyle;rounded=0;orthogonalLoop=1;jettySize=auto;html=1;entryX=0.5;entryY=0;entryDx=0;entryDy=0;" parent="1" source="59v--0HXhksTh89BKZgH-2" target="nO_tQ9lK2_0qFseZZgwn-22" edge="1">
          <mxGeometry relative="1" as="geometry" />
        </mxCell>
        <mxCell id="59v--0HXhksTh89BKZgH-2" value="" style="rounded=0;whiteSpace=wrap;html=1;dashed=1;" parent="1" vertex="1">
          <mxGeometry x="90" y="400" width="190" height="90" as="geometry" />
        </mxCell>
        <mxCell id="59v--0HXhksTh89BKZgH-3" value="" style="shape=image;verticalLabelPosition=bottom;labelBackgroundColor=default;verticalAlign=top;aspect=fixed;imageAspect=0;image=data:image/png,iVBORw0KGgoAAAANSUhEUgAAA4wAAAFACAYAAAD3f/JEAAAMP2lDQ1BJQ0MgUHJvZmlsZQAASImVVwdYU8kWnluSkJDQAghICb0JIjWAlBBaAOndRkgChBJjIKjYkUUF14KKBWzoqohip9kRO4ti74sFFWVdLNiVNymg677yvfm+ufPff87858y5M/feAUD9OFcszkU1AMgTFUhiQwIYySmpDNJTQAU4IAI6cOPy8sWs6OgIAMtg+/fy7jpAZO0VB5nWP/v/a9HkC/J5ACDREKfz83l5EB8AAK/miSUFABBlvPmUArEMwwq0JTBAiBfIcKYCV8twugLvkdvEx7IhbgNAhcrlSjIBULsEeUYhLxNqqPVB7CTiC0UAqDMg9s3Lm8SHOA1iG2gjhlimz0z/QSfzb5rpQ5pcbuYQVsxFXlQChfniXO60/zMd/7vk5UoHfVjBSs2ShMbK5gzzdjNnUrgMUyHuFaVHRkGsBfEHIV9uDzFKyZKGJijsUUNePhvmDOhC7MTnBoZDbAhxsCg3MkLJp2cIgzkQwxWCThUWcOIh1oN4gSA/KE5ps1EyKVbpC23IkLBZSv4sVyL3K/N1X5qTwFLqv84ScJT6mFpRVnwSxBSILQqFiZEQq0HsmJ8TF660GV2UxY4ctJFIY2XxW0AcKxCFBCj0scIMSXCs0r4sL39wvtjGLCEnUon3FWTFhyryg7XxuPL44VywSwIRK2FQR5CfHDE4F74gMEgxd+yZQJQQp9T5IC4IiFWMxSni3GilPW4myA2R8WYQu+YXxinH4okFcEEq9PEMcUF0vCJOvCibGxatiAdfCiIAGwQCBpDCmg4mgWwg7Oht7IV3ip5gwAUSkAkEwEHJDI5IkveI4DUOFIE/IRKA/KFxAfJeASiE/NchVnF1ABny3kL5iBzwBOI8EA5y4b1UPko05C0RPIaM8B/eubDyYLy5sMr6/z0/yH5nWJCJUDLSQY8M9UFLYhAxkBhKDCba4ga4L+6NR8CrP6zOOBP3HJzHd3vCE0In4SHhGqGLcGuisFjyU5RjQBfUD1bmIv3HXOBWUNMND8B9oDpUxnVxA+CAu0I/LNwPenaDLFsZtywrjJ+0/zaDH56G0o7sREbJw8j+ZJufR6rZqbkNqchy/WN+FLGmD+WbPdTzs3/2D9nnwzb8Z0tsAbYfO4OdwM5hh7FGwMCOYU1YO3ZEhodW12P56hr0FiuPJwfqCP/hb/DJyjKZ71Tn1OP0RdFXIJgqe0cD9iTxNIkwM6uAwYJfBAGDI+I5jmA4Ozm7ACD7viheX29i5N8NRLf9OzfvDwB8jg0MDBz6zoUdA2CvB9z+zd85Gyb8dKgCcLaZJ5UUKjhcdiHAt4Q63Gn6wBiYAxs4H2fgDryBPwgCYSAKxIMUMAFGnwXXuQRMATPAXFAKysFSsBKsBRvAZrAd7AL7QCM4DE6A0+ACuASugTtw9XSDF6APvAOfEQQhITSEjugjJoglYo84I0zEFwlCIpBYJAVJQzIRESJFZiDzkHKkAlmLbEJqkb1IM3ICOYd0IreQB0gP8hr5hGIoFdVGjVArdCTKRFloOBqPjkcz0cloEVqCLkZXozXoTrQBPYFeQK+hXegLtB8DmCqmi5liDhgTY2NRWCqWgUmwWVgZVonVYPVYC3zOV7AurBf7iBNxOs7AHeAKDsUTcB4+GZ+FL8LX4tvxBrwNv4I/wPvwbwQawZBgT/AicAjJhEzCFEIpoZKwlXCQcArupW7COyKRqEu0JnrAvZhCzCZOJy4iriPuJh4ndhIfEftJJJI+yZ7kQ4oicUkFpFLSGtJO0jHSZVI36YOKqoqJirNKsEqqikilWKVSZYfKUZXLKk9VPpM1yJZkL3IUmU+eRl5C3kJuIV8kd5M/UzQp1hQfSjwlmzKXsppSTzlFuUt5o6qqaqbqqRqjKlSdo7padY/qWdUHqh+pWlQ7Kps6jiqlLqZuox6n3qK+odFoVjR/WiqtgLaYVks7SbtP+6BGV3NU46jx1WarVak1qF1We6lOVrdUZ6lPUC9Sr1Tfr35RvVeDrGGlwdbgaszSqNJo1rih0a9J1xylGaWZp7lIc4fmOc1nWiQtK60gLb5WidZmrZNaj+gY3ZzOpvPo8+hb6Kfo3dpEbWttjna2drn2Lu0O7T4dLR1XnUSdqTpVOkd0unQxXStdjm6u7hLdfbrXdT8NMxrGGiYYtnBY/bDLw97rDdfz1xPolent1rum90mfoR+kn6O/TL9R/54BbmBnEGMwxWC9wSmD3uHaw72H84aXDd83/LYhamhnGGs43XCzYbthv5GxUYiR2GiN0UmjXmNdY3/jbOMVxkeNe0zoJr4mQpMVJsdMnjN0GCxGLmM1o43RZ2poGmoqNd1k2mH62czaLMGs2Gy32T1zijnTPMN8hXmreZ+FicUYixkWdRa3LcmWTMssy1WWZyzfW1lbJVnNt2q0ematZ82xLrKus75rQ7Pxs5lsU2Nz1ZZoy7TNsV1ne8kOtXOzy7Krsrtoj9q72wvt19l3jiCM8BwhGlEz4oYD1YHlUOhQ5/DAUdcxwrHYsdHx5UiLkakjl408M/Kbk5tTrtMWpzujtEaFjSoe1TLqtbOdM8+5yvmqC80l2GW2S5PLK1d7V4HretebbnS3MW7z3Vrdvrp7uEvc6917PCw80jyqPW4wtZnRzEXMs54EzwDP2Z6HPT96uXsVeO3z+svbwTvHe4f3s9HWowWjt4x+5GPmw/XZ5NPly/BN893o2+Vn6sf1q/F76G/uz/ff6v+UZcvKZu1kvQxwCpAEHAx4z/Ziz2QfD8QCQwLLAjuCtIISgtYG3Q82C84MrgvuC3ELmR5yPJQQGh66LPQGx4jD49Ry+sI8wmaGtYVTw+PC14Y/jLCLkES0jEHHhI1ZPuZupGWkKLIxCkRxopZH3Yu2jp4cfSiGGBMdUxXzJHZU7IzYM3H0uIlxO+LexQfEL4m/k2CTIE1oTVRPHJdYm/g+KTCpIqkreWTyzOQLKQYpwpSmVFJqYurW1P6xQWNXju0e5zaudNz18dbjp44/N8FgQu6EIxPVJ3In7k8jpCWl7Uj7wo3i1nD70znp1el9PDZvFe8F35+/gt8j8BFUCJ5m+GRUZDzL9MlcntmT5ZdVmdUrZAvXCl9lh2ZvyH6fE5WzLWcgNyl3d55KXlpes0hLlCNqm2Q8aeqkTrG9uFTcNdlr8srJfZJwydZ8JH98flOBNvyRb5faSH+RPij0Lawq/DAlccr+qZpTRVPbp9lNWzjtaVFw0W/T8em86a0zTGfMnfFgJmvmplnIrPRZrbPNZ5fM7p4TMmf7XMrcnLm/FzsVVxS/nZc0r6XEqGROyaNfQn6pK1UrlZTemO89f8MCfIFwQcdCl4VrFn4r45edL3cqryz/soi36Pyvo35d/evA4ozFHUvcl6xfSlwqWnp9md+y7RWaFUUVj5aPWd6wgrGibMXblRNXnqt0rdywirJKuqprdcTqpjUWa5au+bI2a+21qoCq3dWG1Qur36/jr7u83n99/QajDeUbPm0Ubry5KWRTQ41VTeVm4ubCzU+2JG458xvzt9qtBlvLt37dJtrWtT12e1utR23tDsMdS+rQOmldz85xOy/tCtzVVO9Qv2m37u7yPWCPdM/zvWl7r+8L39e6n7m//oDlgeqD9INlDUjDtIa+xqzGrqaUps7msObWFu+Wg4ccD207bHq46ojOkSVHKUdLjg4cKzrWf1x8vPdE5olHrRNb75xMPnm1Laat41T4qbOng0+fPMM6c+ysz9nD57zONZ9nnm+84H6hod2t/eDvbr8f7HDvaLjocbHpkuells7RnUcv+10+cSXwyumrnKsXrkVe67yecP3mjXE3um7ybz67lXvr1e3C25/vzLlLuFt2T+Ne5X3D+zV/2P6xu8u968iDwAftD+Me3nnEe/Ticf7jL90lT2hPKp+aPK195vzscE9wz6XnY593vxC/+Nxb+qfmn9UvbV4e+Mv/r/a+5L7uV5JXA68XvdF/s+2t69vW/uj+++/y3n1+X/ZB/8P2j8yPZz4lfXr6ecoX0pfVX22/tnwL/3Z3IG9gQMyVcOW/AhisaEYGAK+3AUBLAYAOz2eUsYrzn7wgijOrHIH/hBVnRHlxB6Ae/r/H9MK/mxsA7NkCj19QX30cANE0AOI9AeriMlQHz2ryc6WsEOE5YGP01/S8dPBviuLM+UPcP7dApuoKfm7/BTBkfGj+fY2pAAAAimVYSWZNTQAqAAAACAAEARoABQAAAAEAAAA+ARsABQAAAAEAAABGASgAAwAAAAEAAgAAh2kABAAAAAEAAABOAAAAAAAAAJAAAAABAAAAkAAAAAEAA5KGAAcAAAASAAAAeKACAAQAAAABAAADjKADAAQAAAABAAABQAAAAABBU0NJSQAAAFNjcmVlbnNob3Rt/wVnAAAACXBIWXMAABYlAAAWJQFJUiTwAAAB1mlUWHRYTUw6Y29tLmFkb2JlLnhtcAAAAAAAPHg6eG1wbWV0YSB4bWxuczp4PSJhZG9iZTpuczptZXRhLyIgeDp4bXB0az0iWE1QIENvcmUgNi4wLjAiPgogICA8cmRmOlJERiB4bWxuczpyZGY9Imh0dHA6Ly93d3cudzMub3JnLzE5OTkvMDIvMjItcmRmLXN5bnRheC1ucyMiPgogICAgICA8cmRmOkRlc2NyaXB0aW9uIHJkZjphYm91dD0iIgogICAgICAgICAgICB4bWxuczpleGlmPSJodHRwOi8vbnMuYWRvYmUuY29tL2V4aWYvMS4wLyI+CiAgICAgICAgIDxleGlmOlBpeGVsWURpbWVuc2lvbj4zMjA8L2V4aWY6UGl4ZWxZRGltZW5zaW9uPgogICAgICAgICA8ZXhpZjpQaXhlbFhEaW1lbnNpb24+OTA4PC9leGlmOlBpeGVsWERpbWVuc2lvbj4KICAgICAgICAgPGV4aWY6VXNlckNvbW1lbnQ+U2NyZWVuc2hvdDwvZXhpZjpVc2VyQ29tbWVudD4KICAgICAgPC9yZGY6RGVzY3JpcHRpb24+CiAgIDwvcmRmOlJERj4KPC94OnhtcG1ldGE+Cvqj8ZAAAAAcaURPVAAAAAIAAAAAAAAAoAAAACgAAACgAAAAoAAAe9BxuSGUAABAAElEQVR4AeydBYBcVdKFK+Med5t4AjGCBQtJkAR3d7dFF1j4gTVkFxbfhQUWXdwtSLBAsCAJEWLE3XUyPkn++m7oZQg9M/1e+0wVvHTP66fn3n59z62qU41EZKsuZoaAIWAIGAKGgCFgCBgChoAhYAgYAobArxBopH8ZYfwVJPaHIWAIGAKGgCFgCBgChoAhYAgYAoYACBhhtH5gCBgChoAhYAgYAoaAIWAIGAKGgCEQFAEjjEFhsZWGgCFgCBgChoAhYAgYAoaAIWAIGAJGGK0PGAKGgCFgCBgChoAhYAgYAoaAIWAIBEXACGNQWGylIWAIGAKGgCFgCBgChoAhYAgYAoaAEUbrA4aAIWAIGAKGgCFgCBgChoAhYAgYAkERMMIYFBZbaQgYAoaAIWAIGAKGgCFgCBgChoAhYITR+oAhYAgYAoaAIWAIGAKGgCFgCBgChkBQBIwwBoXFVhoChoAhYAgYAoaAIWAIGAKGgCFgCBhhtD5gCBgChoAhYAgYAoaAIWAIGAKGgCEQFAEjjEFhsZWGgCFgCBgChoAhYAgYAoaAIWAIGAJGGK0PGAKGgCFgCBgChoAhYAgYAoaAIWAIBEXACGNQWGylIWAIGAKGgCFgCBgChoAhYAgYAoaAEUbrA4aAIWAIGAKGgCFgCBgChoAhYAgYAkERMMIYFBZbaQgYAoaAIWAIGAKGgCFgCBgChoAhYITR+oAhYAgYAoaAIWAIGAKGgCFgCBgChkBQBIwwBoXFVhoChoAhYAgYAoaAIWAIGAKGgCFgCBhhtD5gCBgChoAhYAgYAoaAIWAIGAKGgCEQFAEjjEFhsZWGgCFgCBgChoAhYAgYAoaAIWAIGAJGGK0PGAKGgCFgCBgChoAhYAgYAoaAIWAIBEXACGNQWGylIWAIGAKGgCFgCBgChoAhYAgYAoaAEUbrA4aAIWAIGAKGgCFgCBgChoAhYAgYAkERMMIYFBZbaQgYAoaAIWAIGAKGgCFgCBgChoAhYITR+oAhYAgYAoaAIWAIGAKGgCFgCBgChkBQBIwwBoXFVhoChoAhYAgYAoaAIWAIGAKGgCFgCBhhtD5gCBgChoAhYAgYAoaAIWAIGAKGgCEQFAEjjEFhsZWGgCFgCBgChoAhYAgYAoaAIWAIGAJGGK0PGAKGgCFgCBgChoAhYAgYAoaAIWAIBEXACGNQWGylIWAIGAKGgCFgCBgChoAhYAgYAoaAEUbrA4aAIWAIGAKGgCFgCBgChoAhYAgYAkERMMIYFBZbaQgYAoaAIWAIGAKGgCFgCBgChoAhYITR+oAhYAgYAoaAIWAIGAKGgCFgCBgChkBQBIwwBoXFVhoChoAhYAgYAoaAIWAIGAKGgCFgCBhhtD5gCBgChoAhYAgYAoaAIWAIGAKGgCEQFAEjjEFhsZWGgCFgCBgChoAhYAgYAoaAIWAIGAJGGK0PGAKGgCFgCBgChoAhYAgYAoaAIWAIBEXACGNQWGylIWAIGAKGgCFgCBgChoAhYAgYAoaAEUbrA4aAIWAIGAKGgCFgCBgChoAhYAgYAkERMMIYFBZbaQgYAoaAIWAIGAKGgCFgCBgChoAhYITR+kBUEUjVo6drL8vU18xGjXTh70aS5hb532uq/s22vKb8fEX6Vhq5/7at2Cxb5ef/ZYuu2rx1qy76qiur9LVqy1ap1HW8r9DXcl0qdLsK/tZXfTEzBAwBQ8AQMAQMAUPAEDAEDAEPCBhh9ACWbfoLAnQcFshdqr5J0b+2vep7yN/P6zL0NUu3ydPXPF2fm9JIsnSBPLpXfZ+hS4BEZvy8r+7ijqMfOcqo3M8RxK1K+yB+24jhNnJYrkSxQhdeWcp04xJ9LdZXlhLdoZT9dT9IZoBs8qqbOcIJ8eRvfTEzBAwBQ8AQMAQMAUPAEDAEDIGfEdDhuI2RrTd4RwBvIN7CAiV4jXUpSEuRgtQUydeF93mpqbqkSKYyvrSfyWSa7pMahFjSCSGejfQ47lXfO3Nk8WfCqCu2KtkLWIDcsS5A/LZoVw4QP+d91I3xNkIUq/Szks1bpHjLFimq2iIbqzbLxs2bpUh32KjLel1frNuWBU5gr4aAIWAIGAKGgCFgCBgChoAhoKN3I4zWDWpBAJIHMcxWMpet5C87JUWy1H2Yo6+5ui4fsqgsD3KYp+vyHFmEMKa4bdJ1HZ0snraNZm6VUnUnlipp3KRLkZJFXjcpWSzS141KPDf97JVkuzIlkGX6iqeSvyv1BiCeZoaAIWAIGAKGgCFgCCQqAky+p6WlSXp6umRmZspmHe9UVVVJeXm5e5+o123XldgIGGFM7PaJ+9URStpUHz7tlQi2TU+VNplp0jojXZrp+3z1IuI91I8dKaQzbVu2rePi+TtRDOLoyKP+EwhtDazDeVm6Vb2MSh5XVFTqUuWWJZWbZZm6KSGU5n1MlJa06zAEDAFDwBAwBAyBYAik6tgsJydHGjduLM2aNXNEcdOmTbJ69WqpqKj4VbRWsP1tnSEQDAHG824MHexDW9dwEKAjQA4bqxexeVqqNP15Icy0QNfluUW9ingX9WGEtzEjAbyHkWwhwlgRy3Ghq0ocCV91Hkj1MG7U9xt03ToNZd226N+QSEc+I3kVdqz6jEBWVpY0adJEhgwZIoMHD476rbqQbe27zC4HFgYMzDQXFxcLg4h169bJmjVrZNWqVe5148aNURtQMPOdkZEhgwYNkqOPPloY2CSTzZgxQ1588UXZsGFDyJdNe++2227Su3dvKSwsDHm/UDbc8nPb4kHgfaBty8rK/te+XOv69etl7dq1bqG92bZ6iH8o50rWbdq0aSPdunVzbdCxY0fftzFhwgR54403BGz5Lvm19u3bu2vp3r27tG3b1tdhaM/Zs2fLBx984EiAr4OEsVOK/vZzH3369JG99tpL8vPzfR/t+++/lx9++EEWLlzo+qzvA1XbMS8vT1q2bCl777237LTTTtU+Sb63K1eulIkTJwrPnvnz59d4AzxXc3NzpX///tKrVy9HGNmYZwLPWTyOvC5ZskSmT5/u8OaZYGYIhIqAEcZQkapn2wXUSxGZcYsSwBa6tFaC2DEjVdqpF7FNRprmI6aqOA2ZhQ3XmFHZpAMyiOKy8kpZqt7HZep5XK7hrBuUTDo1VsimvmcYQU6lmSEQDIGCggLp1KmTXH755XLuuecG2ySi6yAGkAkGDYGltLRUSkpKHFFkwLBs2TJZtGiRG4wwaOPvAJnkNZLkgoEmM9+nnHKK3HfffS5cKqI3HOWDvffee3Leeee5QVeop+rQoYOcffbZMmLECNlzzz1D3a3O7SB8gbaFwPCetqXNWCCGtC8DzuXLl8vixYvdwoCR9mdhOyYPKisJuq+ftuOOO7oJmrPOOkt23XVX3zf53HPPyRVXXCFMqICZXxs4cKBwLUOHDnWDe6/Hod1pyzFjxshf//pXmTNnjtdDhL095GOPPfaQQw45xN1Lq1atfB/zpZdekldffVU+/fRT11d9H6jajpBFSNPFF18sJ510UrVPku9tYJJq9OjR8vXXX//mBpz2gz5XueeuXbu6ZwykkXBUJgSZCMzOzhZIdNOmTd3z/ccff5Rvv/3WTTrwHODZYWYI1IWAEca6EKqnnzfRlm+p5LCDhpa21zDTdpkZ6knc5kF05S+UPGY2SnFlL/Rtgze8jyizOiVWfSW/EQ/kGiWOSzWEdXF5lSzV96v4zLyODb6/1ARArAljwIsE6QsQPwYHLJAMiAKDX7wmLBAMBqOTJk2S8ePHC7P/kBDIZiTMCGPkCCPtQfsG2jXwPtC+tC1LYKKA9mUAicdx1qxZMm3aNNfO8+bNk6VLl0aieRPyGEYYI98s5MUx6XPkkUfKvvvuKzzX/Np3333nPKWPP/64zJ071+9hfrVfQyKMeA3xLELgaRMwZIEI8mzn+x94JvCs2GGHHdy2PN9Z8F7yXDAzBOpCwAhjXQjVg88D3kRCSxsrSWyiXsMW+gphbK3vW6pHsWV6miqabiOI9eCWo34LeB2rdLBWpF7H1ZVVslLJ4orKLbJKH8hrdTC+Xv/G+4iQDl5HtjczBGJNGL0iHiCNP/30k0ydOlWmTJniiAUDEGaqwyWORhgjSxi9ti+TBAwi8ShDFGlnyCPhjfy9YsUKKSoqciTU67ETdXsjjJFtGQgK3qprr73WhZV36dIlrEgBJivGjRsnt912m3vehPuM4W4bEmEkYqNv374u9BYPOqHTfJfxNuIJxiNOm4Er32+8jLQZ+Y1EHrzyyivuNZww68j2MDtaoiJghDFRWyaC14XKKWqmPdWb2CsrXXrnZkpzJYiI1gTMnIgBJLy/BsigI5BKFheVVcrMkjKZWb5ZFiihpA6k/4wX79djeyQuAolOGEEu4JWEWBCy+MILL8jbb7/tBnVecveCtYIRxvgSxkCbBNqYV0JUCXsjNPDzzz93g81IDNoD54r3qxHGyLYA3sUWLVrInXfeKcccc4wjJYRF+jW8XkxOQUC/+uorR3D8HiuwX0MijNwrnkUIIDgSgo7QDeHTzZs3d5NBbMN3nQlAQplZrr/+emnXrp38/e9/dxNHRJKYGQK1IWCEsTZ0kvQzGjVX/2mmHkRCTl0+or420b+b6tJE35OXmB7GQz5JoYnqZUMcEc0pVpK4Xpd1KpKzRpdlmvO4xC1a91E/N7XVqDZDQh88GQhjAEAGcoQ04n0ibOnjjz8WwsfIf/FrRhgTgzBWbz8mBQIiKoQiM2jnFe8jg8wAuay+TzK9N8IY2dYiB3vAgAEuD3vYsGHCdzpcwyP2wAMPyEcffeT6XrjHa0iEEeGkK6+80nkQn376adceiDyRN00eMx5E8KDdCEf94osv5IknnnCf42nkuU54+oIFC8KF3fav5wgYYawnDcwjO11bk3qJuUoKW+hDHLLYQ/MTC7MynIANs4A0uFnsECjVQffi8gqZq17HWaWVsnLLVlmn66jvSB5k/ZWaiB3GyXSmZCKM1XFl1pqBxqhRo+Stt95yOS94IL2aEcbEI4yBNoQYkr+KlxH1zc8++8yFIUMok9mMMEa29VD8ReyG/EXEVSJhPF/effddefPNN50SbbjHbEiEEVGtP/7xj07h+uabb3YhpwgrnX766U7g5qmnnnIeR0jkUBVaYkLo3//+txx22GHSo0cPF6Y6efJkNykYLu62f/1GwAhjPWnfbG3J5koIu2vIac/sdGlPrUTNT6T8RZaK16Trq5HF2De2itc7oRzIYakuKzTfcZEqrU4vqZBF6oWEQJo1HASSlTDiaSQc9cMPP3QhquTJQC68mhHGxCWMtCWTALQz7Tt27Fg3eJ85c2ZS5zQaYfT6La19+yOOOEIuvPBCRxYJaYyEIbpCP0OJ9u677w77kA2NMN5www1OsOyWW25x5BBSf80117iyLeQrBxRTKV/yySefuOc4pZ169uzpsCaigDxSM0OgNgSMMNaGToJ/lqnXl6MksZV6Elvr0k4JYkcthYHqKXUUsyMQKpLgECTd5W1UkrhGl4VKGpegsKrvV+nr2iqt+agz/CZunXRN6umCk5UwBm6S0CU8jc8++6yTZYdgeAlZNMKY2IQx0M4IkVCr7eWXX3YeR4RxmDRIRjPCGJlWQzgFgZXTTjvNkRHyGBG/iYTRtwifJF+aUiF4tRHg8msNjTDeeOON/yOMiNrssssuctlllzn1VLyH/I098sgjbiIIcj58+HBHGMGZbUg3MDMEakPACGNt6CToZzQaS1P1GrbVZee8TOmTnSkdNPSUmopmyYHABiWLK/SHcnxRmUzTkNVFWtexjJwhvXzzOyZHG3q9ymQnjAzsyHe76aab5LXXXnODPC/qekYYk4Mw0q8ZtOONQPDoxRdfdOqpXiYHvH43orW9EcbIIEstv9atW8v555/vBFMic9RfH4VnCl4y6sGuWbPm1x96+KuhEUaex5REQmm2SZMmTjX15JNPdjg++uijct1110nv3r3d55RKIooATzFhquQukpeOYI6ZIVAbAkYYa0MnAT/L1mtqrjmK3bPSpLOGnbZXj2Jz9SY2SdMaiimpovzRLEkQQCCnFGEcJY6U5Vii4apzlDjO1ZqOeBsrkuQ+7DJDRyDZCSNCOKjpIa5AvtGXX37piESoCBhhTB7CyETAsmXLXEH1//znP04EB1n+ZDMjjJFpMUjYnnvuKccff7xARqJhgegF8mfxcPu1hkQYIfEXXHCBU6slZYDnM/d/4oknupI59913n/MK77zzzk7A7Ntvv5VvvvnGhRUjhIM6Mh5HyiaZGQK1IWCEsTZ0EuQzBG2y1HOYr2ywpRLDTloSo6/mKXbKTJdWShrNkh+BMh2Ir1HCOLO0QqaqOM5yLc+xVj2ORbq+St2NW5L/Fu0OFIFkJ4w0IkTi66+/lvfee08ee+wxJ+MeauMaYUwewhhoU6T48TAyGMU7gZcxmTyNRhgDLRneK3X9KN8wcuRIRxzDO1rwvVHm5dmCiic5tH77WUMijHgUR4wY4VRQwWvOnDkuOmDw4MGOID7//POuvfr16+e8j0wCQRDxMGZkZMhDDz3kvIz1qZRO8N5la8NFwAhjuAhGeX/IYpoundJTZEfNTeydkyUdlSjman5ihhJIK40R5QaI0eEhhNRxhDgWqddxdmm5TC+rkCmlVbJBhXHM2xijhojyaeoDYcTLiKohEvjkzhA+FurAzghj8hFGcssCZQ+eeeYZN2FAH0gWM8IYfkuhsI4iKmqcEJFIid1sf2WESlJMnvNQDsJvP2tIhBHS16ZNG0HEBs8vXloiP8Bx9erVLrSXXNP8/Hw3YUk+I/mLiJYRhkpZDcJZQ32Gb99m9nfDQcAIYwK3dYE+pFuoR7Gzhp12pjyGCtu0VbLYJC3NFE8TuN3CvbTNShxXqreR2o3zdVmgAjmLKrSuI0qr+plZ8iIQCcKI0AzhQwgVFBUV1QoGBA2FPPKPGDAQvkQxZ4o8+y22zcCCa6D8wv/93/+5ou+oHIZikSKM5FLOnTs3rDynUK53+21QEqTQtZfwLWTvqYmGF4CQPj/G/SJOQf4o2GNgGWhfBo0stDOvkTTOTT4jYalI9DNBUFe/i+T5wz2WEcZwEVS9BBVSoe9C5Pr27evEb8I/6m+PQF8jpBLhGzxjEB4/ni8Eebp37y7nnXeeHHvssb89UYhrEPrhO8X3zK9x/Sw8N/2QMryu5HZC7Agn3d64Nr7z1Fg84IAD3HOdZwXkm+cy311+A7KystxvAG2JV3L8+PGOMJLDGI7A0PbXY3/XXwSMMCZY29Ig5CFCCQs1V7G3EsU9G2drHUUd9IXx0Eqw27TLCQEBiCN5jpM3lckEXX7SPMdVShrxRJowTggAJuAmkSCMDAQmTpzoQonqKm2RppNLDHggie3bt5eddtrJDSwQO8jMzBQGRH4NVT3qfjHwQFUzFGNwg9IioW3k1nANfoxB0Ouvv+4KTvvZ3+8+hHsRiuuFMEWCMG7cuNENnlErxRuA0XbVJwPoW82aNXNeBD6j7Vlc/V2dfAzXqL+JauqYMWNkyZIl4R4uZvsbYQwPavoPgin77bef/P73v5fCwsLwDljH3pCqf/3rXy63jnIPXr5rgUNDirhO8vgOPvjgwGrPr7m5ue65Gc4kDKQXLz1k2I/HlImx0aNHO68heNRkEEKeAdRXHDZsmHvmc04mt/gN4LmLp5FjvP/++44shvrcrumctr5hIcCviLksEqTNmcPK1BZpryI2fbSeYhf1JnZQ72ILzVmknmJqI5rLrKEgwBdzi/54rldRHEpvLFRv42z1Nk7VPMeNShy9l01vKMgl7n1GgjBCGCi+jJogg4naDIIGeYCYMWiAUJDLwkz0gAEDhLwkv4aHk4EdIVChClREijAyAPvzn//sZt39Xr+f/Ri8kgPEQCxUiwRhxKtHLiGehhkzZrhTg2WgfSGGkEc8x3hXOnfu7CYGmCBgHW0frqGkSF4ZRb95nyxmhDG8loIwHnLIIXLooYfKkUce6aIUwjti7XtDGCE0qPMyKURopVeD4EH2+B6EEz5LGO6ll14a1jFeffVV+eCDD9yEjx9PHpNjELsA8awJi8AEEhODhKhCEHnu82zYrJoILDy3UJ/leEw84s01MwRCRcAIY6hIRXm7LG2JAh0AtNEQ1J5KFvtna1y6ehWbKHk0MwTwNiKKM08J46SSCheiukJ/AIp1faVN+SRNBwmXMDKYgjB++umnTtoej5MXY/CHd3HfffeV4447zuWyMNCAeHg1iAtqqYihhFrDK1KEkcET8v4MKBPdIkEYEalgkuCBBx5wHt2a7plBIt6VLl26uAmB3Xff3RFHvC0QRwaPfo1+B2n9sxJ1rsVPqKDfc4eznxFG/+jxvOD5cPHFF7vnBZNMhLaHYoHwS47h1ZiAoqTLvffe6ybF/HjmvJ4z2PZDhw51tQt79OgR7OOQ1v3jH/+Qxx9/XBYtWuTCQ0PaKcyNwJzvesCryHcVslpSUuKIY5iHt90bKAJGGBOk4durB7G7ehP3KMh2ojYFhBRp65hXMUEaKM6XASeENJarZ7FYBSd+0NqNE4vLZLYK5CCKY5YcCMSbMIJSIJfl2muvlXPOOceFKeGd8mqEZzJ7/u677woy+KGYEUZ/OYyhEkbwZQl4WBjcE5Z30EEHOdES+p9fw0Mxf/58l7fKYB5PRYAU+D1mLPYzwugfZcgifelvf/ubnHrqqZ4mHSB59A/6o1fSiFcNtVTqB+LNDuTt+r8Tf3smK2HkbsGchTakHQLtkQzfWX+tZXtFGwEjjNFGuJbj4ztsqnmKHVXMBrLYTUNQC9W7WKBexTQfs3K1nMo+qicIBMJUl6inETGc2RqmOhdhHF3wNG6uJ/dZX28jEQgjgwgGcZdffrmce+650rFjR0cavWKOciZ5bYSOIcgQinFeZr3DzWE0D2PdaIM1g0Xqrw1VT8kJJ5zghEDIY/JrhOPec889LmRw2rRpSeGtMMLot7W15rPmPvN8QNyKMgxMLIVK/gh5JPeWsEi+84SIhrovkxN4s2+//XbnzSYkOx7G9+aRRx6RZPMwxgMrO2f9R8AIYxzaGNAJDMr52au4e06G9MzOlHZKGM0MgVARwNu4uLxCJmkJjq82lTsV1RJdh+C9+RxDRTG22yUCYQzcMcqdp512mvM8kdvo1fA2vfPOO/Lmm2+6sNRQ9jfCGF0PY7A2IDQNBcVrrrlG9tprLxeuGmy7UNbhVXzhhRdk1KhRbpLASy5nKMePxjZGGP2j2rNnT6eOetZZZ7myDV6OxPMBUS6IInm15BIygRGqMSH17LPPuskJykTEw4wwxgN1O2eiImCEMQ4tg/xAc/Us7pKbKb3Uo9hRcxXzNXfRVFDj0BhJfErlhlKiYT9rtJD6Ei27MUFDVKeVVsoGDT8JXZIjiQFIwktPJMJ45plnujCzgQMHOk+CVzgZEOJdxMtITcZQzAhj7AkjXp22bdvKgQce6LxECJf4NbxGtDWTBC+99FLcQgW9XL8RRi9o/XpbavsRirrPPvs4pdRff1r7XxMmTHCKnHi0CwsLheeMl9B3oggoY/Piiy8K9T/jYUYY44G6nTNRETDCGMOWSVe0c7RcRgcNQSX8dGcljB21bEauzrrREGaGgB8EKpUglilxnFxcLlNKymWeksfV+ncRjNIsoRBIJMJIjbIzzjjDeZ8QSvFqKLQiOoOXkVILoVikCCP1CMmrQvzHr1XpRAtiEJSIQHU1WhZL0Zua7gEvD4q4DP6vvPJK5+mhLbwauWUQAdodtVQ/qo9ezxnu9pEijIg7UQoGDMLxrBLeiOooCrYIUHk1ctDw3PGdo14hucSRNiYZ8EwfddRRzjMN4cNL6MWYWOD7Sd+jdiPKzORPh2oItPDdpPbn3Xff7b6rhKrG0owwxhJtO1eiI2CEMYYt1Fgfwp3Vs7hHQZYMytO6OPqDnaFhqUYWY9gI9fBU0EKWciWJqzSXcdzGEpmi+Y0zKwlONUskBBKJMEIcUBolR4lBnVdDoZXZfyTwQw0ZixRhRAQDUQyUB/0aRa0JsXzjjTdqVR71e/zAfolAGMEd8RJEjm677TZXZsOLtydwL+COZ/mVV15xx2FQn+gWKcIISUOABbIYjmonarWdOnVyBIzngVeLBWGELOIZZEKJ/kLfYZ0XwwPNxALPlt12281NVpDLGKpxn0zqPPHEE/KXv/xFmCSKdX8zwhhqa9l2DQEBI4wxaGXUTtsrUeyqwjZ9NVexi4ahttX3KUogjSzGoAEayCkgjaWqmrpYyeKssgqZWqbCOFq/cbWu4zOz+COQCISRARzegiuuuEJOP/10J5PvhzwgevLYY485T8cPP/wQEriRIox4GlasWCGQPr/GABQRF0pV4D2KliUCYeTe8BqdfPLJcsMNN7h8MoiLV4MsESoIGUAIJdYDeK/Xy/aRIox4FvFEQ2RY/FpAwRZvm5/vXSwII+q65L2isHvZZZe5vhOqYA24cI0PPfSQez7wvBk+fLhcddVVIZfkqI4tYe8PP/ywC2+FtMfSjDDGEm07V6IjYIQxyi2UpT/SBepF3CkrTQYoWeynnsVM/dvMEIgmAssrlDRqeOo3pRUyo7xKSvQHfLOOcfwPc6J5tQ3n2PEijAz2Al4mCEy/fv2EHMbDDjvMN/gTJ050oWJ4+mbPnh3ScSJFGEM6WR0b4V3EQ0lYXzTrOSYKYQQO2vt3v/udCxH0U9AczxrECc8yHupwCHsdzROxjyNFGCN2QWEeKBaEsXXr1nLooYfK4Ycf7hYvl0wfYWKB+oPUUczOznbHuuWWW1yNUJ4BXuz77793pXv4jvLMiaUZYYwl2nauREfACGOUWghgWXqqJ7F/dpr0UbLYXsVtqK9ofDFKoNth/4cACqqb1AszW72M09Tb+H1JhaxVT2NsM0D+dzn25mcE4kUYUSdkpj+genjwwQc7DwLhqH4NQQq8VZMmTXKhnaEcxwhj7EVvqrcLnh68yqildu/evfpHIb2HrODdxcMI8aRsQqzzykK60GobGWGsBkaIb8l3vfTSS2X//fd3kwsh7uY2Y0IB7z/5nngZ+c7zvCG0lckTnkNeDK/i1KlT5c477wxZXMvL8Wvb1ghjbejYZw0NASOMUWhx5s/ylBW2V3GbftkZ6lkkBDVd8nTQZmYIxBKBNZVVslC9jd8XV8gsDVVdrCGqZDZadmMsW+GXc4VLGDkSg3RqlJHbgyhETYZXkYXcI8LfODcDwQEDBsgee+zhcpT8hsQVFRU5QQsII97FUMVPjDDGlzBCFI899linmErIoV97+eWXHWEkRDMcARi/5/eynxFGL2iJ8wgSgXDTTTfJ4MGDPYvdrFy5UiZPnuzCUSnBgg0bNkz+8Ic/OPLZvn17TxcUIKDkMZJvzN+xmqQwwuipqWzjeo6AEcYoNDCp4V3Us3hgfpZ0z8qQNpavGAWU7ZChIEAIaunPYjhfa9mNDzaWSrmutLIboaAX+W0iQRgRgoA0Usy6tLS0xouELEIICQkjX428JP6GQLLwuR9jsIYy4+jRo11h7aVLl4ac02WEMb6EEfERwgwJTe3fv7+f5nf7vPrqq3L55Ze7fEaEcBLZjDB6a502bdq4CaU///nPLnTd63OCZ8N7773nyN3HH3/sTr7zzju7mq8QR6/9Dq82zzk8lExULFiwIGblXIwweus7tnX9RsAIYwTbF/9hpg7C+qqoTV/1LLI0Uy8jaqhmhkC8ENisP7hlGqI6Xz2MhKdO0vDUBaqmWqEXZDmNsW2VSBBGBlB4dcgfq22mnYEeBA1ymJmZ6ZQOvQ7+gqFDKQoGhIhRkFe0du3aYJsFXWeEMb6EkYH7QQcdJEcffbQr6xC0kUJYSbtfffXVsnz58oQXvjHCGEKDVttk9913lxEjRsiZmuPcpUuXap+E9pY8w8cff9xFIBAJgRH+THjrcccd5wRwQjvSL1vxzHnuueccCf1US3VQDzQWZoQxFijbOZIFASOMEWgpQGRB3KZVWqoMV89i35xMaabv03zO4kfgsuwQhsCvEMDTuKFqs3ysXsaJKoizUlVwypV8WHjqr2CK6h+RIIxRvcA6Do53k3BUavBRvJ0yA16UMo0wxpcwUjz9wAMPlOOPP14gj36NtifEkJDoRBe+McLorZVRRiVseciQIdKyZUtPOyN4Q4kdvIHkNqNCjCGi06dPH7noootc3/N0UN2Y5w450++++64LxWeiIhZmhDEWKNs5kgUBI4wRaCn8h5mK5AD1KO6ZlyWdNV+xuXoW05UsArCZIZAICKiTUSqVIC7WnMbpqp76eVGZrFACmfiV1BIBvchcQ7ITRryJ8+bNcwIUeBnr8nJuj5oRxvgSRvJXKaB+wgknyC677LJ984T8txHGkKGK+IbRUkkl+oCFiQDqLyKI5bVuIp7ADz74QK699lpXrzOQ28xxmjZt6kSyLrjgAnceL9EOEFGEdD766CMhVJZaoKyLthlhjDbCdvxkQsAIY5itRRhqY62x2E3zFAflZMig3CzJ1b8zzLMYJrK2e7QQKNMf2qUakjq+uFxrNVbIbC27UaUni/7Pb7TuKHmOm6yEkUEqs/wTJkxwA8LXXnvNl8S9Ecb4EsZBgwbJyJEj5ZhjjhHe+zULSfWLXPj7RYswBkgd9TVPPfVUp2aKunKoRng8nr933nlH/vSnPzmCx7ViHIf86euuu04uvvhil1NNPUovBvmkhA/iN4S6egmF93Ke6tsaYayOhr1v6AgYYQyzB2Tq/pDFw5vmSJfMDGmqYahmhkCiI4CnsUi9i58Wlcr7G0q0TqO4nMZEv+5kv75kJYyQRUJPn3nmGeddXLVqla9QRCOM8SWMiN4geIPwjVfxkerfPRO9qY5GbN9HizC2bdvWhY1edtllcsQRR3i+KbyLP/zwg4waNUoefPDBoISOkNRzzjnH5TQixOXVIIoPPPCAfP755zJt2jSvu3ve3gijZ8hsh3qMgBFGn41LGGq6LgMpm6GexX6as9hUZ9EyrMiiT0Rtt1gigDexMiCEU1ou400IJybwJyNhZGYfZcL333/fhYR99tlnroyGn3IKRhjjSxgpp4LgDcI35Pb5NdQqqdOHl8dPP/B7Xj/7WQ5jaKgxgXDIIYc4sojwjVdjQokcw7feesuJ05DrvL0deeSRLj8StdR27dpt/3Gdf6MMHVBg5XkUbTPCGG2E7fjJhIARRh+tBWj5CNxo6OmwgmwljEoW1bNIzqKZIZBMCCCEs049jZ+oEM4kzWtcpu8r1du4LZAome4kOa41mQgjHgPIIoO07777Tp566ik3q4930a9FijDiZeHa8Hz6NWoIUhT873//u1N89XucuvajWPnZZ5/tlCf33DO+hHHfffeVk046SRgI9+rVq65LD/o5oYeBOozr16+vVak36AFivNIIY92A872ExF1yySVOPbewsLDunbbbAoL42GOPue/St99+G7TkD0QU0aWTTz5ZevTosd0R6v6T7+yMGTPkySefdOcijzEQ9lr33t63MMLoHTPbo/4iYITRY9sCGN7FHbV0xpC8TOmqdRZbp2tdMyWLRhc9gmmbxx0BPI0V6mlcpEI4k1U59WMVwlm/eYvLaYz7xdXDC0gmwkgBbmqqka+GlD3vGRSG41GKFGGEKOL1hLD4NaT5ybl69NFHZcyYMX4PU+d+iUQY8Syed955TiG1U6dOdV779hswQIeov/jii64OI6JH0Rywb39+P38bYawdNb6T5BeS13rrrbc6ZdTc3NzadwryKd+n22+/3YWkop4b7DmBkM6uu+4qV111la+QaI5JnyMs9Y477nCkNJxJoyC38atVRhh/BYf90cARMMLosQPkqGexk3oTEbjZQxVRC/R9tj5wzQyBZEUAb2KJksR5Wqfx602lMlNFcBZVbjYvYxQaNBkII6SQchkskydPdkITM2fOdIOz2uo+hgJXpAhjcXGxIy2BOm+hnHv7bSA+GzdulG+++caR4e0/j9TfiUQYKZdwzTXXSNeuXaVFixaeb5HBOV6el156yalp0g6JbpEijEyYILoCaQnne9C8eXPp2bOnkDPYrFkzz/BFOoeRGq30UWok3nDDDZKdne1EarxeWGlpqQsX5blBvwimYpqXl+fOhZcR8ujVuHeO+/TTT8v999/v1FLpj9EyI4zRQtaOm4wIGGH00GrQwtZpKbK/ehb7ZmdKF13MDIH6gsAmJY3LNAxxjHoZP9tULpv1xkw5NbKtmwyEEcn6hx9+2OUrfv/99xEFIFKEcfXq1XL++ec772dELzAKB0sUwkgZgzO1GPvNN9/sShx4KZkQgIUwZcJ4X3nlFadW6aUGZ+AYsX6NFGHknlH5ZEIFHPxav3795JRTTpG9997bVx5ppAkj4jOB3NazzjpL0tLS/N5azPajdAeTFkQGzJ07N2rnNcIYNWjtwEmIgBFGD43WVWsr7pCZJrvnZ0s7VUbNV5EbM0OgviBQpbO3eBqnqgjOBC25MU09jav0b7PIIZAMhJFwMkIOEbD4+OOPI3fzeiQjjPHJYaSEAd4sCONNN90k/O2HGOBFwoNEWZX77rsvaJ5aRDtMBA4WKcL4wgsvyO9//3vnlQ6HMFILkzqHQ4YMEcijV4s0YWzdurWcdtppcvDBB7tr8lJKw+u1R2r7qVOnOqVUciYjPalV/RqNMFZHw943dASMMIbQAzIUpWzNUBxMnUVdeuRkSZ4K3pgZAvURgRWazzhX6zPiZZyl9RqLNcfRaGNkWjoShJGwQPJ4IHbl5eW/ubCWLVtKmzZtXFgZBM2rrVmzxg3G3njjDXnuuedc+F2w8DKvx2V7I4zxIYxNmjRxOWMI3lx44YV+ms7tg3ftiy++cCqYiCAF63++Dx6lHSNFGPkuXHHFFY4whnPfAwcOFDx5kBE/pU0iSRiZNOjSpYsLLx4+fLggdoMnOtGNCIOffvrJ5Vx+9NFHLkwYXCJtRhgjjagdL5kRMMIYQuu10LzFQiWI+zbOkX65WZKlgzBdZWYI1EsEqNG4UdVSv95YIj+ocuoMzWdEOdUsfAQiQRgDOYbk8SxbtuxXF8VgD2ETSifk5+c7T9KvNgjhD7wnlEtggHzLLbe4+ovhDJCrn9IIY3wIIwI3kEX6Bkqpfo18McomvP32224Jx9Pm9xq87meEsWbEeEb07dvXES8UfMlnTAZj0gy15j/+8Y+uPzLJFU5eaU33bISxJmRsfUNEwAhjLa3O3Hy2ItQrM132UM9iTy2f0TaD6otmhkD9RgDSuEC9jCinfqGexrUqNFBipDHsRo8EYWTQjvjGbbfdJvPmzfvVNQUI4/HHH++8F4SbeTVm6hH2IE/ooYcecsI3ixYt8nqYoNsbYYw9YaQPDBo0yOV87rzzzr7ERgKNiXLuI4884sKVKbUSTYXKwDnDfTXCWDOCiO/stddecuWVV/oKj635yNH/hIkz1FLffPNNmThxolPvjfRZjTBGGlE7XjIjYISxltbLVHRaqzdxsIrcHNosTzJ09j7FimfUglhkP2qUkiqNNE+0kbbBNpeuNghhJ7ps3VwlW6nBpItZdBBQlGWWehhHry2W2eplXA7e0TlVgzlquIQRMof3jzIX119/vcyaNes32CFbP2LECIE04j3wG2JGnhCiEs8//7wjqJEI+TLCGDvCSC4a5RLoD/vtt5+rBelHmTLQwWh/BG8QzWEygUmESIUqB84RjVcjjDWjuv/++8thhx0mhx9+uBQWFta8YQJ+ElBlxdtNTi2Kx5E2I4yRRtSOl8wIGGGsofXQCWtBGGp+lvTLzpBuWm8xRQkjgJlFGQGIuZLErFZtJLdjoWS1biMZmoOTooOfzaVlUrlxg2yaO0dKl2sO14b1ShrR8zSLBgLrNTR1oZbb+GJTmXyn3sYyZYyGtn+kY0EY8Sj16dNHrr32WmHAk5WV5Ys04smEINx5550u7IsZ/XDDvowwRp8wMkFAblrnzp2dl5kSBqhgduvWTfzU1wv0dgbo5I393//9n4wdO9aVTojEJELg+NF6NcJYM7LnnHOOnH766W5iyU+Jj5qPHP1PiIKgP44aNUruuusuF6Ia6bMaYYw0ona8ZEbACGMNrddKyWIPVUQ9UPMWCzUk1Wot1gBUhFenpKVLekFjyevUWQq69ZSC7r0kq107yWza7GfCWCrlWqx70+yfZOMclllStmqFVChxNIs8ApvVq0B46pdFpfKFlttYqASySEVwzPwhEAvCCFlo1aqVI4yHHnqokL+Gp8mr4T0iRw01zJdffllmzJjhSILX41TfPlKEkZylSy65xBHZ6seP9nswgTTzGqp3LRJlNWbPni3ffvutPProozJp0iR3mxBDFjClzVE+ZXIAUojITe/evZ13cfDgwa7un19PcwBTJg9QpKS4+/jx4zXQIzmeA0YYAy34yyvPA/rK1VdfLeeee65QGzJZ8hcDd8H3D68i3u4//elPsmDBgoir9hphDKBtr4aAOIdZcjz1Y9xae+SkqypqpvRWRdTGaakaimoWCwQyC5pI4z59pcuJp+jrjpKtio+NdDDkwlN1cMQgZSsDNh3IFs2bK8vHfiorvvhU1k4aH4vLa5Dn4AGxWL2MM7TcxofqaVxQsdlCU332hFgQRogBBbIRvoEwInTi17PEoAwVQkpsUGpj+fLlPu98226RIoyE5f7hD3+Q999/P6zr8bozXg2KkiMCxPtQLBKEceHChTJlyhRX/3DmzJnutAGiyEAf8RIG/e3bt3cTBJBFlHIhjtRbhEyGa6ijvvfee67+HQQ2WcwI429bitqL7XQiFsKIh5Hw5XAnFH57luivYfLmq6++kttvv93lMaIcHUkzwhhJNO1YyY6AeRi3a8FcHWyhijqkIEt2VUXUZszcmiTqdihF/k9+rCCFbYbuL22GDJNWe+0j2W3aSlp2do0nq9CQuY0amrpk9Luy7KPRUrpquVSVFNe4vX3gH4Firce4vLJKxqhy6rSySllapR4W/4drsHvGgjACLgSBgTK11X73u99JixYtfNXdY4KGmXvIwr333hu2lzFShJHwSIhsrIkLqrR4+jhvqIPTSBDGDRs2CIIz06dPF7yrGM/MAGms7lls2rSp8zAzSeDHs+wOXu0fJg0YmD/77LNuQWCEsgbJYkYYf9tShYWFgioq9RdHjhz52w2SaA251ig6f/jhh4IQUyTNCGMk0bRjJTsCRhirtSBexHYaito3I1UGF+TIDkoYzWKDQEp6hqTrTHify66WjoceIRmNt+UshnL2pR+MlkWj3pRV48dpXuPSUHaxbXwgAGmcvKlUxmsu4zdKGim1YaTRG5CxIoyQiWydbEHUApESaq3hhfJjEAa8W3/729+c+A3eLr8WKcLo9/zh7gcOTzzxhBMDgjiFYpEgjKGcJ1rb4E0lf/Wee+5xCqmEASZDOY0AHkYYA0j88opa7qmnnirUXvRTC/KXI8X/HRM348aNc6Tx9ddfj2iotBHG+LevXUHiIGCE8ee2gCziXeyblS4jC7KlreYtNtFQVLPYIJDTroM06dVXup5ymrTac29J0fIljRrRKnXbpgXzZe3ECTLryf/I2ik6iEuS3Jq67yyxtqhSXDdoDuPE4nJ5f0OxrNZcxmILaPfUSLEijFwUYWYUCT/zzDNlyJAhvgeGeBkZlBGOSA0+RCb8mhFGf6I3fvGOxH5MEFDG5YUXXnChyZTSYBIhWcwI469biucCE0k33HCD9OrVy3mjf71Fcv1FiDih8v/85z/lwQcf/F+OcSTuwghjJFC0Y9QXBIww/tySWUoWu6anyi6atzhchW6yNAwVVVSz2CDQfOAu0uGgw6X1PvtKY/0R82JVGp5WvGiBTLvvTlnx5edStWljRGcZvVxLfd8WfjhH6zN+saFEppZXOREc44yht3osCSNXhXeL0DOKtiOfD2Hzk6uEh2nu3LmuxMbDDz8sJSUlvrxMRhiThzBCCmlnhG4IR/3yyy9dSGzovT0xtjTC+Es7QBbJaz3iiCPkL3/5i7RUjQA/Yjf0DcqqQNTWqwhdOPU4yb1FpKtt27YuKuKXqw3tHeHSeLypyXj//fe7cGlC1iNhRhgjgaIdo74gYIRRWxIQGmso6kFaQmNgToZ0ysyQVCOLMevjDGDbH3SY9PndVZKjeYsZmpDvydQDUqY5NbMee1iWffqxbJw3S7bqLLhZdBAo0h/olRVV8u7GUvlKvY34Gow0hoZ1rAkjuW3I5VOYG1VRchsZNHo1vIwMCqnJePfddwteJ8pueDUjjMlDGBH1mT9/vvMq0uYrVqxwYj9e2zze2xth/KUFeB7ssMMOctRRR8nll1/uxLH8TCBB0FBORqGU0Gy8fH5t9913F4jZIYcc4oR4/ByH5xOiXE8++aS7HvpqJMwIYyRQtGPUFwSMMGpLNldvYqF6Fw9Qz2IPrbmYpwMq8y3GpouTu5jVrLl0POwo6X3x5U7kJsWHol/lpiJZ9snHsvTjD2TpR+/K5rKy2NxAAzwLZTbKdIZ5rBLGcaqaulgFcIp1nVndCMSaMEIOIYmnnHKKnHHGGa4+IzP6fo3QxDfeeEPeeecdQWzCqxlhTA7CiIcGkZ0333zTkYJPP/3UeRsZmCebGWH8pcVQR4WYHX744c7LCIH0avQB+scdd9whr732mhPFCientWfPni5k/tJLL3XlX7xeT2B7hLlQc+aaAkrCgc/8vhph9Iuc7VcfEWjQhJGbZ+mjIjc7qVdxNyWMbTLS6mM7J+w9pecXSJPe/ZzQTbdTT/d9na7MhuYyLv3wffnpPw9KJWGpSZRn4/vG47jj9OIyzWcsk3GllbJCBXGSJ6spfqDFmjAG7pQcRgaKRx55pPTo0cNXWCrHQiV02rRpTgAFlVIGil5IhBHGxCaMhBriSabm4o8//igPPfSQK1tASHIy5S0G+j2vRhi3oYEnkdBPIg14FvTr18+Xii6eZ8JQr732WlfmhbDlcPoGqr677rqrq+9JzjU1Rf3YvHnznEoq4kwoGYdzTYHzG2EMIGGvhsA2vpR8U4YRajkeS5nKGIfnZ8tQDUdtkZ4m2SmhCa1E6BIa/GEondHp0GO0nMZwabWH/8EU5HCzznou++RDmXbPHVKyUktslJY0eHyjCUCRCuDM0/qMo9aXyGx93RTNk9WTY8eLMFKfb6eddnK1Cynk7ndQVqaee2ogEqKIAA6hqahohmpGGP0/40LFOJztAgIi1Ld8++23HWnE0wiJ9DIxEM41RHpfI4zbECXSoHPnzk41+YADDnC5jHwfvdqqVatcWZnbbrvNCWFBzMLpG5R+oY3IqSTfmhJAfoy+O2fOHLnpppvk448/johH3Aijn5awfeorAg3aw9hYQ1E7pqXIMC2hMVhJI3mL3h+f9bVrRP++UtLSJb9rd+l1gdaJ23V3yW3fIeyTrv72G5n1+COybtpkKV6yKOzj2QFqRoCZpjXUZlQBnImlFTK7crPlMtYMl/skXoSR0DMGixS7RyGRot1+chm5CQgi+UsQRnKYqBEYqhlhTDzCyGAfQoiACQNuctI++eQTV3tz06ZNgkcpmc0I47bWa926tVNKvvHGG2Wvvfby/f2fMWOGE0B67LHHnHpuJPpG165dXU7lfvvt58ijn2PSj8ldpPwPoank39KvwzEjjOGgZ/vWNwQaNGEkb3HfXC1wnZMlhVkZ9a1tE/5+MnLzpWm/gdLvuhulyY79pJGP2c7tb7JIBzzLPvtUlnwwSlZ/9/X2H9vfEUagVGeXF2pNxq81NPW9ojIjjHXgGy/CSDga4jeopR566KEybNgwl9tYx+UG/RhVQojF6NGj5fbbb5elS5eG7GEwwph4hJH2xDuDV4YJAPJT8SIxMRCO5yho54nDSiOM20AfNGiQq7tILnPfvn19t8TYsWPl1VdfdX0F8hgJQyH16KOPds+mkSNH+j4kobIIc+EdHzNmjBAREY4ZYQwHPdu3viHQIAkjXsQ8vfO+ShIPbpIjbTVvMd+HcmB96wyxvp+mO/TXmov7SNeTT5O8zoUROX2FKjdu0jC52f99VBa9/ZrLY6wPg56IgBOFg2zWWd0izV8cD2FcXyxrtTbjpgYb5F43wPEijFxZdna2DBgwwOUxXnzxxb4VEvk+UbydYtnkC02ePNnlNtZ99+LKeuTk5DgRnvvuu8+XpH8o54nWNlOmTJEnnnjCDUbxxIVilDY5++yzZcSIES7kLpR9or1NIA+NvK+ffvrJlcuYPn26e0/5FAba9eW5aYRxW2+ilMYJJ5wg++yzjyu347ePISpDzUP6S6TUSCn1QR7jcccdJ+edd57fS3NhqN98840Ta8IDioc8HDPCGA56tm99Q6BBEsZ0vevOWkZjl9xMGdk0T3Ii4Nmqbx0j6vejHo+OBx8p7UccIq0G7yGZYSg3Vr/WrTpbjgDOjH/fL3OefUoqi1WsIclDqqrfX6K+n1lSLmM3FMt0DUtFNdUsOALxJIyEoObn57tZfPKF2rRpI5A3v4YSIfX5PvzwQ2GQFgrBMA9jbD2MtAnkkAWBIryGLBB+hG0mTJjg2o5ai3hnIlW/zm+fisZ+DZ0w8p3ju3/BBRe4pVOnTsJzyKuRq0g/evzxx10eZCT7CyHzhMmfeuqpQsgs18t1ezWuD2EuwuVvvvlmWbNmjeBB92tGGP0iZ/vVRwQaJGHM0dzF/ZUs7qxL9+xMSVfyYhY7BAiPa5SS6spoFB59gmSpcluqD3nvoFesAyQGSfNfeUkWvvGqrJ85VSrWrw26qa2MHALrqjbLEhW+oTbjBM1nNMoYHNt4Eka+dwzEEJY4//zzZbfddnOKqcGvtO61iN9QWuOpp55y9c9CEb8wwhg7wkh7MFgmvBRP0JIlS1wJBDyILPxNLU1yUCGQDLbZp75ZQyeMkDHKaQRqsfK3H9ErvM4IIOG5IxSd/MBwyFj1fsZzgeui/M+tt97qJrb426vx28+ECKJNTIrhQfeSY739+Ywwbo+I/d2QEWhwhDFH77iVehcPa5Ir/XIypSBNZ7Iacg+Iw72na+5iVvMWjjB2POxIoe5iJPIXq9/Kqm/GaS7jGFn83ptSvHB+9Y/sfRQQoDZjqYamjtKw1K+1NuNa/bvSQlN/g3Rubq4gPkFoGCFiXo0BEQOgH374QR588EFZtMi7sBMCE/vuu68Tvggnl4mBGddCXcaXXnrJhTHWJTIRGBgSnnnVVVf5kvX3ilkkt589e7aMGjXKeeYI5QzFKGVA3ijqtJQygLhHwugLLAzaA0t1TyIDfDyGEHsWiCPeF4gir5DFUEh+JK41nsegv1OugTagaL1fI2eXEGzyPcHZr1F3kLIWO++8s3Tv3t3zYWhziNv48eMdeaM9azOeOfRBnjmU1fFr3DdeaXJc+b5H2vheIHpDSCq1YvPy8nyfAmyefvppl2tNv/dr5H1ef/310rFjR7+HkGeeecblVDJpE25Ope+LsB0NgQgg0OAIY1v1LvbUuosjm+ZLt2wTuolAH/J8iNz2naRp34HS5cRTpM2QfT3vH8oOpfqDunbKZJn+z3/Iuh8niamxhIJa+Nt8roTxm02lMl3DUos0n9Hs1wggbU9YKAMRv2QNEsDAjULVhIV5NXIZyRmizEavXr287v6b7cllIp+Pa6lrQMSgEO9Gnz59hNl7PJ7JZKtXr3ZeVYh6qANRBr60NSq1hN1FyiAOEHSIO7izUC8REg9BhBDyGiCWvAas+vvAuvr6CvmgrAyeRsKw/RoCL59++qkL7Q3Hs9ayZUt3LZAQvyUkaGf6IHnEdXnQeN7Q73r37i2QZ79GvUWeO7NmzXK5rn6PU9t+hMv279/fTar5CZsNHJvvJiHzlP0JJ8+S/ONACZLAsb2+Eu5NJAZtFs5Eg9fz2vaGJce+sQAAO5BJREFUQKQRaFCEkZsdlJ0ue6lnsbcu1F00iz0CzXfaVTprKGrL3XaXgu49onIBmxk8zZ2jhPEeWaVqqeWEpVYbMEXlpHZQVUytkB9Ly2W0KqauUNJY/wLcwmtkCBJ1xxjEolrqxyAJzPZTBoG8NK/GNWRmZrprgDiGawFiAnEJZSCNl5HzMoiNlLct3HsIdX9IGfeLmEZd5DhwTNqb4uQQR7w9kbIAEQTzQHhgdQ8j7cHSkMhhMGwJbSRXlzYIJ2eXCRE8s+AdDqZcT6A/+Am75B753vMMwNNY1zOA/sd9850Lh4TRx+j3hC/XRVKDtUMo6/iO8FxkUovJNb/Gd5P24nrDycvl+8pkA89LvwZ55ZnBd7M+hnz7xcX2Sz4EGgxhhBpm6uz28PwsObAgWxprKGqWDlzMYoiA4p+SniHt9jtQel9ypeS2ay8ZmlsRLStdoXXFnnxcln8+xuUybq2H+TnRws7vccsU47may/ja2mKZW6EDDCPpfqG0/QwBQ8AQMAQMAUPAEEgIBBoMYcxXstIxtZEMKciRfRrnSCrkJSGaoOFcRIrOdGY1ayUdDj5Mdrj8KknLzpFGGp4WLavYuEFWfvmlLPnwPVn0zuuyVWdIzaKLAB7FFUoUP9PQ1MnqbZxtiqnRBdyObggYAoaAIWAIGAKGQJQRaDCEsW1aigzWnMWdcrNcOGqUcbXDB0EgPS9fmg3cRTpoKY3C40+UlCiSRU6/WcOxijXnYsl7b8vMRx6QqrISoeyGWXQRoC7jTyVlMq5YS22UVFj6aHThtqMbAoaAIWAIGAKGgCEQVQQaBGHkJntmpssxTbKlMDNDmmg4qlnsEchq2Vo6H3uStB26n7QYtHPElVGD3RFhqEvefVsm3/ZXzWNcI1XlZcE2s3URRKBKw1BLFPdPikrlZQ1NhaJbLmMEAbZDGQKGgCFgCBgChoAhEEME6j1hJOy0qYaf9lPv4hHNcqWlCt1k6N9msUUgJS1d8joVSp9Lr5KWg/eSbFWKU8WL6F+EkhdKbMx97mlVTZ0gm6zERtQxR4sR0vidEsb3NDR1+WYtBWG5jFHH3U5gCBgChoAhYAgYAoZANBCo94SRDLle6akySFVRh2ntxTytwWgWewQymzaXpjv2lx2vuFqaDtgpJt7FwF0WzZkjK7/+0uUxrvpunKmlBoCJ8utPJeVKGkvkh/IqWWi5jFFG2w5vCBgChoAhYAgYAoZAdBCo94QRZdT98jJlVyWM3bMzJVPrMJrFHoFm/QdJq732lcKjj5X8Ll1j4138+TYrtf5R6aqVMuOBe2ThW69tk0Q3j1fUO8Hays2yRBVT395YKpNUAOeXKnBRP7WdwBAwBAwBQ8AQMAQMAUMgQgjUa8KYriDlK0E8ummu7KyEkdxF1FHNYoyAYt7psKOl46FHSvOBO0lm8xaeL2CzFisvW7Na0rQuUmZTb/Xrtqg6KgI4Mx/6lyx8/WUpW7vK/e35ImwHTwiUb9kqRSoy9Pq6YvlWBXAosWGSQ54gtI0NAUPAEDAEDAFDwBCIOwL1mjBSSqO1hqCe0DxfBuT6L7wa91ZK4gtopLUuG6WmSe+LLpNuJ5/h6i6meCzIi3BNmRYoXjt5kuS27yBNdtzRFyLzXnxeFo16U9ZNnSQVG9b5Oobt5A2BzUoS31m7Sb7eVCaLtR3Lzc3oDUDb2hAwBAwBQ8AQMAQMgTgjUK8JY2ctpdE3M02GNM6VLlkZcYa6YZ4+Pb+x5LRpJz3OOk86HXm0pKRneMpfhCyWrlwh66ZMliXvvK1hrXtL4bEn+AppXT3+e1k+9lNZ+MZLWm5jYcNskBjftToZZcKmUvm+uEy+K6uUIlaYGQKGgCFgCBgChoAhYAgkDQL1ljByYztlp8vQ3AzNXcySFqqOahZ7BHI7dJaWu+yhZPEoab3Pvp4vYKuGk66eMF5WfP6ZLB71urTXGo49z7tI0vPzxaunsnTFClkzcbzM+Pf9smHGNNlSWeH5emwHbwhAD5eUV8hkrcf4ruYyrtYajVZiwxuGtrUhYAgYAoaAIWAIGALxRKBeEkZuimW//Cw52imjpprYTZx6WfOddpGuJ50hzbXuohO78XgdWyoqZN5LL8jSD9+XNZO+lzZD95euJ5wmBT17Slbz5p6OBvncMOsnmXrX7bJmwndSvmGtp/1tY38IkMs4Q0VvnltTJItVCKfS32FsL0PAEDAEDAFDwBAwBAyBOCBQLwljpt4VtReHF+TIwSp4k6bvrZhGbHtXo0YpkpqVJW2GDJc+v7tScjp0lIyCAk8XsVUFUyo3bZIZ/7pXlox+V0pWLpOmfQdIWyWN7UccJAU9eno6HhuXLFkic198Tj2WYzQncoLn/W0H7wjgZZyv4aij1hXJT1piY4WFpXoH0fYwBBoYAqmpqZKiOfDYFk1N2Ky/B2aGgCFgCBgC8UGgXhLGAlVG7aFiN3spYdy7cU58kG3gZ01JS5fsFq2l/chDZMcrr5G0vDzPiFQVF7tyGD/ecYss/eh9N2jIadVWmvTaUXpecLG02G13T/mQXEDF+vWy6rtvlYC+Iws0l1FrbHi+LtvBOwIrK6pk3MZi+UGJ49QKG/h5R9D7Ho10ooyFgXddtlW/BywMzHlNZoNksHDvtRn3mmz3G2qbBtqS+0s0oz+mpaW5hfeBJdBmgdf09HRh4R4gi5WVla5vVu+rgTbk8yrUsH9+TdR25V65v9os0HaB+6xtW7+fcQ1cS6JY4F4Ttd2C4QSGgb4a7PPAukAf5R4bovHMCuBU1zM5mfAJ9FleaWM/FvgeBvDhWDzDWBKxv9RLwthaxW721PzFgblZ0icny0872j5hIpCWmyetdt9b2u0/QjodcZTzNno9ZNHcOS5/cf6Lz8iaH75zX6DUrGzJad1WdrjyWmmz73BJVyKKEmuoRohr2apVsvDNV2T6P++SzVX6xdxiBCZU/Pxut1EfgPNKK+RzFb8ZW2y5o35xDHU/fpgZlOfk5EjTpk3rHKQy2K7Q78bGjRulpKQk1NMk5Hbcc4sWLdyAuLYBSrFOSK1bt84RDb8/+LEEgHuBQOVqaaHGjRvX2KbcC225SaMzaM9EMa6fgVGzZs2kTZs20rFjR/fasmVL10ebNGkiefo8z87OlszMzF+1X2BQBmnk3mi7Iq2vy7J27VpZs2aNLF++XJYuXSrLli1z68vKyhLl1t11QNC4V/pnbcZ3kX5ZqqWkeB9pow3oQ801pYP38Tbalvvkfnn28JqIg+XtceI7yEK71vacoY/yXSzX0l7J8JzZ/j7D/Zv+XqDRZRmqjs9vUn0xSB19lWcRix/jmcf3EHzAhmfbSq0IwPOM70Si9Zd6Rxi5oc4ZqXJ4Qbb0UGXU1hlUYzSLJQI8PDObNZcuJ56h4aP7SdN+/VQd1Xs7rPzqCyV2b6hH8EvZtGDetlvQBk7PL5Ce51wk7fYbIQXdunsTv2E2SL+IS959W6bdf7eUrlkplUWJM6iKZTvF8lwVGoa6TnH/pKhM3tlQIgyD/M3JxfKqk/dc/PgwKO/atav00+8fA/DajME1P3rffPONzJw5MykGbDXdT7du3WTYsGFuYF7bAAVywb0uXLjQ/UDXdLxEWc/AFPLP/e2yyy41tikD01U6KfbTTz/JpEmT4tqWEFwIIEQJEs/giH7Zrl07ad++vXvPeu6LwTdEJkAYgw3CA4QRYhEgjOs1aoQB1goVNYMsQhx5zzqIF4SSJd4DMAbOBxxwgGu/2vrUhg0bZNy4ca5fQjQiSZ7AlO9Ejx493HekrudCbdcZqc8YFFcffAdII4Nx7p92ZuKDV55TkcQjnHvYaaed3PeQ/lrbc2bKlCkyY8YM951MtEmMcO4/1H0LCwtlwIAB7hkAMaovRj/lt2P27NnuWRvKffH94znAc5AJM555/A2Z5jP6Nn2Evs5zDPLIkih9vt4RRuYvemWly+lae7FDRpqkayOYxRaBFB3Y5LTrIP3+8EdpvfcQF44a7Me/rqta8OrLmr94n5K6FVJZXPS/zfEythl6gBLGA6X9gSOdl/F/H4byRr+Uq8Z9LfNfflFWT/xOyejcUPaybcJAgGAchV0+1LDU17QuY7G+Nz9jGIDWsSuDmL333ltGjhwpxx13nJvBrG0XyCKD69tuu01eeOGFhJvZrO3at//soIMOkjvuuENatWpVI6linx9//FE++ugjeeutt2TChMTPZ2ZQwUD/4IMPlksvvbTGNmWwwSD19ddfl0cffTSugw1m0CGIQ4YMkcGDB8ugQYNcu0AMIcB4uKov/E4Elu3blb8DAydeIRqBV94HiAfEcNGiRTJr1ixHmL/99lv5/vvv3YQIZDpeBmm+7777XPvVdg0LFixw/fezzz6TJZpzH7jn2vYJ9TOw5tlwxBFHyN///vca+1Cox4vEdoH745W2Y1KAwTL3PnfuXDepM336dDcoZz3tnAh24YUXymWXXeYmO8C0Jvvvf/8rr7zyikyePFmY3GhoxiTJ2Wef7SYuO3ToUG9uf/Xq1fLpp5/KqFGj5I033gjpvphYYKKMZ+Hxxx/v+jKTWfRr+j7PRSYEIdZff/21fP755+4cTKgkgtUrwsjNtNT8xb7qWTyquYZEaikNo4ux72bZrdtJ0x36Sa8LL5FmAwdJin5JvNhm/VEvX7dWFrzyosx85AHZXF6mXsFftDXJj8wr7Cbthu3vSmxkaoiTjjK8nEI2zZunYa7jZd7Lz8mqb7/ytK9t7B+Bb4pK5cP1xbJQy2usN/Eb/0DWsWe+lp05/fTT5fDDD5d99tnHDRJr24VBGjObf/vb3+Tpp592s+HxHFzXdq11fcY933///Y6o1OZBYeZ2zpw58u9//1vee+89wbMDDolq3EuvXr1cm15zzTU1DvbxxkycOFFefvlleeCBByJKOELBJkvFziBHeLZ32GEH6d27t3Tu3NnNqLdt27ZOz28o56hrG9oyMBCDPELC8ATgUcbbw8A91v2bCYxHHnnEkbXarn/+/Pny17/+VT7++GNHfAOEqrZ9Qv0MwohH45hjjnHkFQ9HIlmA+AfCqZnEwlPMdxUCCTZMBNCWtGk8c70uv/xyufrqq523qDbC+Nhjj8lzzz3nvpP0yYZmTOBddNFFMnDgQPcMqC/3TxQHE46QxZdeUj2MOow+QjQFBLqwsNCFn9LfIYpM8gV+e5hI4xnK84K+z0QDz6zFixfXcYbof8wom8n/emFE4/dKT9X6ixkyVMtpNElLnKTuegFwiDfRbOAu0mafYdLpsCMkX0NGvVrFhvWyfto0WfjWq1pS49nf7q7kMC1DFVj3GSp9/3Cj5LTvIKk6mPJiqK+Wr10j0+69Qxa/97bWZNwmqODlGLatdwRmlpTJd0oaJ6ha6uKqxJgp9n4Xib0Hg0J+mK6//no57LDDpFOnTi73LZSrhjwxuMFDxaA7GS1UwshAnB9svD4vvviiTNNnDgPVRLVEJ4zMnnONhJvuuOOOzpPGTDrEMZ4GqWAyBC8ys/affPKJzNMJQ0gIYWUM1CJJymq6VyOMNSFT93rah0E1hPHLL7+UL774woXPQ8D4zjLojkUbVr9SI4zV0aj5vRHGbdjwXGTC7+ijj3ZRFK+99prL2ea5QO4iC5NYTHDxTDrwwAPdpCfr3377bRemTh+PdT+v3rL1jjDupWRx19wM6ZebLbmqlGoWYwS0R3U64jgpPOZEadK7j+YyqvfPoxUvXiSL3npTlo/9WPMXvw66d6OUVGk2YJD0OPM8adp/oOTpoNiLbd2sinr6RSTkddGoN6VUS3ZsrohfuJKXa0/mbZdVVMqsknL5oLjcldhI5ntJ1GsnrAWPzs033+xCUpnZDDUkHE8bP05vvvmmExBJ1Hus7bpCJYwcgx9f8jZHjx4tjz/+eMQ9OrVdp9fPEp0wtm7d2oXMHnLIIbLXXns5bwK5Oni742m0MRMDAa8j+Y2EqH711Veu7Zm5j0XIlxHG8HoBpBCCj9cxEHLMs4q2JHeVz2NpRhhDQ9sI4zachg4dKvvvv7+bqCJ/nvxHvI2sZwKLSS1+u/Fc0r+nTp3qwlMJXX3iiSdc6Ct5vbF4VtXUsvWKMKbq3RyWny175OosZ2aGZGp4qlnsEEDYJi07R7qddo50O+UMydD8Fa+eP2ovbpgxXWY+/KBTRi1euqjGG8jr3FXDUg+UdgeMkJaD96hxuxo/0IHE/FdeksXvvytrJnwjFRsbXn5BjdhE6YMibd/lWmLjlfUlMklVU83HGHmg8SgiyEC4FHmMXowfKfIyCOkk9Cues5lerrv6tl4II/vxA82gE0/jDz/84H7Qqx8vUd4nKmEktxKySMgZgx/yFfv27euEHPB2J5LRnyEWCALR1ngcEQairxPKy6AtWmaEMXLIQhzJIcNbPHbsWNeOkMZYRkUYYQytPY0wbsPphBNOkGOPPfZ/0SwIgp144onOk/jBBx+4EHpC9hEA41n0n//8R/ibfHUmRujrEE1IY7ysXhHGdL2b05vlyd55WZKtHijji7HtVul5BZLbpoN0P/NsKTzxlJC9GtWvskq/DGsmfC9T/vYX2TBrhlM0rf559fcZBU0kv1MX6XbqmdL5uBOqfxTy+zWa67Pi8zEyT0t3lCxbEvJ+tqE/BFSmQjbpbP+Tq4rkW/UykjFWb2Li/UES8b0IA0Tshh8nQgO9GOFdkCfIJnlw8ZzN9HLd1bf1ShghEczwPvvss87TSMhbIlqiEkYGOJBEcD/ppJNc+HNdpQbijS/9mlAvvIsQjieffNKRSMJUo2VGGCOHLN9ZFkL4CDXGA4PHGHGcWJkRxtCQNsK4DSeEf0499VQX+cNkFQJAiE8xuXvXXXe5nFwEb0gjIccRAToig4488kjnQSdvd/z48c7DHhrykd+q3hDGbL2TxgruiaqOupsSxlR9z82ZxQ6B3I6F0mbvodJ+5CGqjrqP9xPrD8D6mTNk5RdjZfbTj0nJkkW1ejhSMzJVITVfup9+jnQ99QynlpqSnuHpvGU6S7nm+29l+r/ulo2zf5LNlabd6QlAHxuXKmF8bc0mJYxlsmqLzvj7OIbtUjMC5EiceeaZsvPOO7t8spq3/O0n5E4w6Lr11ltdrhBCE8lmXgkj94dnAtVUhGIYfDKLGxAhSJT7T0TCyKCnf//+TomXiQpydEINfwbXgMeP/DTaALXeAPYQOryB5EYGFFUJ2aJWI2GuvPK3XyNMlfMR/kXOLqqkTBaQJ8cMf6TNCGOkEdXSTNqGRAjQfqgdv/POO66kCu0abTPCGBrCRhjRZGzkfpOZUOO3FcJIJNAZZ5zhCCJKzjz/EKEi5BoxNtJCEKgijJVnIR50JkXwrMfL6g1hbKbuxI66HKaEsX9uVrzwbLDnbaShR83676TevnOk2U6DJL+w0DsWShgXv/eOLPlwtHr9PlGl1DV1H0N7cJfjTpFuJ50uuZ0LJcOr6puec8P0aTL1njtkzaQJUrZmVd3ntC3CQqBcSeKY9ZvkO/IYq7ZIubaBWfgIEP5HmMt5550nV155pQsT9DOgRn2QcgyEyfBDlmzmhzAy8MRbAWEkNBXSkGiKholEGOlrEDk8iwFvNnmzoRiDH0ghg3oWvNoM+sktRL2UvwkNDRBH+jTnYmFA1Uzz4smNDCwoCrIwuAIjFi9G20NMKX1ASZnvvvvOydx7OUYo2yYjYaQdaA88suAUaWMgTV8KPLtoa9qPv0OdeAh4GyGMtB9hxniOo3G91e/fCGN1NGp+Hyph5PlLf+M1GSJbUDCl7EUg779mBLYRRsghIah4DgmDpw7jBRdcICeffLJ79tHnKUGESvnzzz/vRNgI9aemMH2Z6AfEnoww1oZ0iJ91SkuRvhmpsnfjXOme7e0HI8RT2GY1IaAP/bTMLPUq7is7/v56ye3QUdL0x9ur8eB3IjRvvyGblqhkdllosdotd99b2g3XXMb9D9RyG4VeTyvFixbKgtdfVZGdMZo3mXwDZM83HOcdKrWdJ6pS6vcqfvNtWaUUK4E0Cx+BgGw3EuZXXHGFyyHDM+PVGLyTL0EdP9RDk838EMbAoJOZ3w8//NARx0SrzZhIhJG+Ro1F+hqDIGqLQdhCMQbz5BCCL97s+T979CCIEDcWBkgstAvEIbBAGiEVLHgZCYft2rWrE9shb5L3DMS8GOfgXM8884xQMw8Z+2gMypKRMBIGhygUHuBI53cGiCJ9CW8xEwAoSdJ+TADQxqEabUi/IoyeCR9II/2J9dEyI4yhIRsqYUQEhlxiXmOZixraXfx2KyZSeI7h3abf1WWEpJ5yyinOw8izj+gM0kYoe0VZDibCqO0JYeRZROQDdXcJSaVv813kPPGs5VlvPIx9MtJkz5x06avqqO0zQ3/Q1NXI9nndCFBnMa9jF2k7/ADpdcEl25RR9Ufei5G7SDmN6ffe6cpcVJYWCwI4oVhuh87SvL8qpp6tiqkDBgreTi9WoSEAaydPkkXvvKHE8aVtPzJR/KHxcm31cdvNiu28sgqZoB7GDzaVyUYjjBFpZkppIDxC/cXTTjutxmMG8rcYkDEA397w+vDjxCwnuRWBwfv22yXq334IY+BemMUlHOjBBx90Hla8jBCYRLBEIox4E3fbbTfXz0aMGOH6EQSgJoNsQMKog0j5Ehbe480m1AqvAv3MiyG2gwc9QDIgi+QA8Uq4F+shIXURD0LAKBDPoI2aaghLMBiMtCUjYcSDQm4vk0iRDtMNeBfp15BGvMfU78SrgqeF9qOfMSkQSqQEnmvajtJA77//vpuMiGZYuRHG0L4hoRJG8vPob5ApngmJbvQtvIyB6Ii6rve4445z9U9fffVV1zfp/zw7Cenn94Y+fskllzjvI6HxCNBRx5b0Emqysg7iyERIvKzeEMads9NlZH6WdMzKkGZBBkHxArghnDc1K1vaDtlf2u53oHQYeZCk6WyhVytdsVxzCGfLT489KMs/+8TT7qlp6erV7CT9b/yrejmHCGqtXmwLs9o6SJ773H9l6r23O6IazZlJL9dWH7dlWLi2skp+UA/jy6qWun6zt4FifcQkEvfEYPmoo44SyhoMVbXKmozBOzO4NeWAMXBnAP/kk0868ZtALllNx0u09eEQRu6Fe//nP/8p1MnC2xSLfKhQMEwkwoj6Lt5FSGP37rXX2uVZysCKASGhzogqQRQj/YxlAMakCWQR4QhCuRCUqKusBwMzQpEhGXjTomXJSBgZ3N5yyy3O20EbRsNot4DxnoXanXvssYcTUsJzjDcmFIPoU0yd8FSiI1BTjZYZYQwN2VAJI5EdhIXTfkzg1DfjeUQZDSbOAmVhKD/Up08feeSRRxwRJF+R5wRklOdR7969XXrJvffe655RgeiLeGFTLwgjN7F3XqYc1yRXGqelqkJqzTOd8QK6vp6Xh3t6QWPpcdYF0k4JY0H3HpKiM79ebe2kibJk9PtKFj+U9TOmetodj2JW85bqYbxA2gzdT/K7dhO8nqHaVkKflDQueuctmfX4I1KsYjsVG9aFurtt5xEBgoTKFfNJJRXyzNoiWa15jKH5kj2eqIFtzuD4qquuEsRHgg3iIYKQRUJ+CL0cMGCAm8HcHiYG8mxL0v2dd97pPG7RVI/c/vzh/h0uYcQDS+4mP9gI4DDbnQhexkQgjIQ4E4rKpMR1113nQlELCgpqbLJA3Tz6ErPk5O7QlwhxjIYRyshECKSR7wBkA1K76667uhl8MAwYgzI86YjdEAJGOFw0+7kRxgDytb8ypiA8D09jYWGhI45MgPXs2dMNpmvbmzbl+UYZgttvv91NVLAuGmaEMTRUjTBuw4lQawgged88h5g44znIQsQFvzt41en3lNNgezzv/PagJ8CEG7/NkZ5oC60Vt22V9ISRG8CfNLwgW07Rkhpp+rBBIdUsNgikau5iTpt2mrt4nbTZd7jLXfQUEsoXQAenyz7+UMnaf2TjvNlStnqF54tPzy9QwjpS8xhHaGjs/p7rP3LCVV9/JQvfflNWffOFFM2f4/kabIfQEYA0Tistl2dWF8nSys0SvyCL0K85UbdkgMUPELkQeAP4UQo2iGfgxIAYsggZglgdeOCBNd4WCfaEpY4ZM8aF0NS4YYJ9EC5h5AeZ8DvyoO644w6XoxKNnDavsCUCYYSQMXA/5phj5JprrnEDmpruAxzxJEISH3vsMflU63tCIGMlaAFxLFTCwcw+g1ZCVRmIsZ5BGLlAo0ePlnfffdcRjGh7ko0w1tRTgq/nuUaYM2rPhO4FwvcI3asp/Jk+R9vSrjfddJPM1/zYaOV8GWEM3m7brzXCuA0RQuMJryZdhFBr+iaTVLwGnon0eSbk8KjvueeebsIDsojHNZqTWdu3WU1/Jz1hhCxSTmOoEsZjVSGVGzK6WFNzR359TtsO0qRPP+l57gXSYpddpZHOQHsx8hSr8Hq88Yr8eNffpKq0RLZoLoJXS9ESGwWF3aT9gQdLz/MvlLRc72Gxm3Rmct2UyTLnmcdl1bdfeb0E294jArM1j/GtNUUyRwkj5TXM/CHA4IkfGMJdbrzxRjczGUzshsE6+SEBZTcU2kjCr8lI6Ic0Pf74465WXU3bJdr6cAkj98Ogk1xGhH8g13ih4m2JQBgZzDAABGPKt5BHGMwYuOOlpszBQw895PJxKNHCOj6LhfEdADPyGJmt55rxVJEzxKz+jBkzXO4QbUseUmDQFq1rM8LoHVkG0BB8chvP1Fyugw8+2IXw1SawRP8aN26cPPzww+6VXNlomBHG0FA1wrgNJ/oypBGBMMoP7bLLLu65hDedyB/6LZ+TAkLuPBO7eB75HQ4oRoeGePS2SnrCSP3Fdjpg2kcJ48FNvZOE6EHbMI7cfOfdpe2wA5WojZCCbrXnsgRDpKqkWIp09mTh26+rh/GhbYMJHwOKRimpkqFexrbDDpA+l10lWa1aS5q6871YpQ4iyKWc/q971eM5WolsifN+ejmGbRs6AgvLK2XMuk0ytaJK5mtYqpk/BPiRId+HMMGzzjrLDa6CHYm8RXJ7yBVhkEzpjXPPPdd5iYIRTHKWCO9CBpz98FDGarAf7PpDXRcJwsi5EENBxZNcKIQ/yI8ivzFelgiEEdJz/vnnu4E7YZ7BRJPAhwEOBBEhmX/961/OyxMvsQb6NqFdXO/uu+/uZu7xGFN3E+8is/zRJotgYoQRFPwZzzg8xTzjjj/+eIdlTV5GzsD3lrBUnluIhUTDjDCGhqoRxl9wgjTyzETUiXB5yCN51zx/+G3lc35jIIzkz5PriIc8UX53k54w5ivAvdJTZHBelgxpYoTxl64Zg3eKfacjjpVup5wp+V26Sqa6271amc7sLvvkI1n60WhZ+sn7Xnf/zfat9thbel14hTTWsKlsHdx4tc36ZZ1+z50un7Fk1TLZUund2+n1nA11++UVlfLtRvV6aWmNaRWWxei3HxAmSC2nI444wnlQgoWjcmy8KCgIMkjG03j11Vc74RJm7znG9oY3iB+va6+91uV44ZWJxcB6++vw+rcXwhj4kQ52Dj4DA2TO77//fhc6BImMlyUCYcST/ac//cmFMvO+pkE7hIyQZkQsINuJYgzQEJpYvlwnBpVUEHocq0kAI4z+ewEDacSL8BAzgUW5gZq825wFNUlyvshBJn82GmaEMTRUjTDWjhN9O9CX8S4mCjkMdtVJTxibpjSSQZlpsosSxp3zQ6sDFQwIW+cNAZRI03PzpetJp0n3s86XdH2Yp9YQnlTbkTct0DjuRx+WlV9/ofmLs2rbNKTPCnr01jzGg7Uu4/7SfNCgkPapvtEW9aIsGvWWLP3wfVnx1VipLNpQ/WN7H0EE1lRWybTiMvlaxW++V9Jo5h0BfmzI6bn++utdXllhYaELw9v+SPwI4fFhsE+IJQNmym8QkopYDmF72xv7QBAhS3iKUJOMRrmB7c8b7t+hEkaIAmG6gYLvwc4LBpBrlPsoCk4+Xrx+0ONNGCGH9K+7775b9ttvP9fv6H/BDM80QjL0NUKgE8Voa4gb3k487njNYzUJYoQxvF6Al3GQ/qZTYxZPcZcuXWo8IB6aefPmuZqMTPhEw4wwhoaqEca6cSIKgt8VJigT2XjaxyahIEootExNkSE5GTIgN1N65/x2ljxKp23wh81QZdS8zlrz6oRTpMtJNedB1QbUZo3bXj/tR5l69+2ydtIPUlkSfu2rrBatVKm1l3Q9+TQt8XHItpqMNQxqgl0bOZXrpk1VtdYxWmbjSSlbuTxuA8Rg11ef1m2s2iwLyytkjNZi/LzYPLl+2pZQOwaiiN1Q4JcBcTCvD4IehN5BLBGxYSYTwRvI1aGHHupUJYOdnx8watMR3kU+Gl7KRLdQCeOKFSucSiZqmijT1WSE5iI6AFGCOOJljBXJqH5N8SaMzIIjeEPJEZT+gvWzwPWSN/aPf/zD5b7S78wsJDUSfQDP4kknneQEcBAFqcmYEIA03nrrrS6qoqbtwllvhDE09IwwhoZTMmyV9ISxrZbROKggS3bMzpCOmcET8JOhIZLtGnM7dta6iwdJ+/0OkFZ77uXr8os1PnvV99/IT488oDUYZ0YkXzA1PUOVWnOl9yVXKGk83Xk9PQnx6CxPpQ6uV437Un6841YpWjBPtlSZ98tXA9exU6mSEbyMozeWyuiisjq2to+DIUCI3Y477ujCS/H61DSIR62SUhGUyfjuu+/cJAi1zsgLuvDCC52QRLDjM+uJV428R3LR8BwluoVKGKm5R525Y4891pVeqOm+EMDBG4WnYtSoUU4ICM9krC3ehBHBG/JuKFdQ22AdXKZMmeLKboBxtOr3xRr/cM9nHsZwERSX87XvvvsKRdCZIKvJmNBhUgwRMCZ6omFGGEND1QhjaDglw1ZJTxg7pKfKsU1ypLcSxmYeau8lQ+Mk6jUiMNO0b3+te3ihNB+4k+R27OTrUld88bksG/OxLB79lpQuW+rrGNvvRIgU19f15DOk8zEnSn5hoQuX3X672v6mzMe6KZNk5kMPyNopP0jJsiW1bW6f+USgSskIpPHt9SXy5gYVGPJ5nIa8G+GkqKOecMIJLlyrJixQDSQ8EAEX1CExvGqEeCE/j2IbIV/BDDlv8tH++te/un1jlfMV7FpCWRcqYcRrihcMERck+yFENWHA4JO6WWD41FNPuZBe1sXS4k0YyXUdOHCg3HzzzS4ksLZ7R+Hvsssuc3lk8RK7qe364vGZEcbwUSd0nvqxhNOfccYZNR4wEN7Hs+2uu+5yqseRDvczwlgj/L/6wAjjr+BI6j+SnjAWZqTJ6c3zpFtmumRrjoVZlBFQQpaepWFwKi7T77o/alhqoTTyQdR5oM995r+y8K3XZcOsaZoruDGiF95myH6ay3iQqqYOk5x27T0fm9zKRepNWD72I1n9/TjP+9sOoSGgVTjljXXF8rIuyN4YaQwNt8BW/BgjN09OD7WdajI8ac8995yTmV+6dNvkDHkThHhRa5BZe0QlguWk8V2FAFCoHSEJQr0S2UIljP/973+dUizlRSgRQf1KJPyDGRhAlMeOHesIE4IpsfacxZswUsOQmnh//OMfneJoMJwC6+gneK7pN/EI3w1cRyK9GmEMvzUQ9CrUSWAmeS655JI6D/jnP/9Z7rnnHperTKRAJM0IY2hoGmEMDadk2CqpCSP0sKsK3pzTQh8iShxTlcyYRRcBwjsbd+8jbYYMk+5nnu3KVzTySNS36IPbqZH+6x5Z8NpLUrFhfcTVSPO1JmOLQbtJj3POl8a9+3gGpUKljDf8NFMWvPqizH/1ectj9Ixg6Du8s75YXlfCWKqDcgv+DQ03iB2EjyLAf/jDH1xB8mDqqBAdlgceeMAtCN8EhGs4BvXp8ASRz0hoa00hrdSCoq7ZJ598IhMnTgztIuO0lRfCiIAG5RaGDx8up556qgt5q+myIT7k45HLiXcy1rUZk4kwQhQvvfRSN8FAjTEzy2GMRB9A4IuJi4svvthN9tR1TCOMdSEU/c+NMEYf41idIakJY6ai1EM9i2e2LJBOShjNoo9AigoftD/gEGm33wj13g2XdJ3x82qQsRL1csx4+J+y+N03t5ExHdRG0tJz86SxKqbucMXV0nzn3bbVZPQwoUA5Deoyzn3uafnp8YeFepFWYiOSLfTLsT5UwviOEsZ12gdKf1lt72pBAPLQVMvYUEcRIRv+hkBub3jFKB1AHg9iJfxdfaadMENygQ477DBXWy/YMTgmXskPPvjAFbKntlkimxfCiJeAUFRCc6+66iqXo9e4ceMabw/Bmzlz5rh8Rjy2YBur0NTqhJGSKDVdJ9cEqX/55ZfdJAETBpEwaocRAs0gfLfddqv1kNQQoxwLebPxLEVS60XG+EPzMIYPOKJehNLjXfz9739f5wHxhvPsY9Ii0p5u8zDWCb/bwAhjaDglw1ZJTRgbKwHopR7Gk9TD2N4IY0z6W1p2jvRRQZn2Iw+V3PZah8tHKY2Ns2fLyi+/kEXvvhG1cE+8njntOkiv838nrfYeInmaZ+nJE6qDLHIZF77xmsz+7xOyadE89YTGrwZbTBo3TicZq/mLHyhpXLZlqxRFaHAbp1uJ2Wkhi4jW4BWDNGLBwkkJm0SxEu8gZQ4CHsfAhRKGCgk45phj3Kx9TYXYISF418jfg3gmsnkljBA+JPoJcxuqdd769+9f4+0x6KQUw/PPPy9PPvmkTJs2Tag5GAuLN2H0ksNIyC7KveS+JoNQUizazwhj+CjjYUTo66KLLnLlNeo64g033ODylPneWg5jXWhF53MjjNHBNR5HTWrC2FprMO6gHsYjm+dLWyOMUe8/eO2yW7aRPpddJW2HHyBp+vD2RMJ+vsJV476SOc88JWt/nCjFixZE7bozmzaX9iMO1ZqMB0ibocPEk1rq/671a1nygdatG/uxFM2bHbVrbcgHHrexRD5V0jhvs4oNKWk0qxsBQkkhRngGEWypyahFhsIpOYx4CLc3SiUwY3/88ce7Go2U6QhGGiFV6zUyAJKESiZhrbHyrG1/zXX97ZUwonhKOC/KnxDnE0880WFQU3gu50cAh/BciOOPP/74K69tXdfn9/N4E0YmF3bYYQentLv33nvXehv0u0cffdT1PVR5zSwkNRJ9AK86ZXCYJCNHtiaDIBJJEVBJ3X6irKb9vKw3D2NoaBlhDA2nZNgqqQljp9RG0k8J40HN8qWVEcao97fcth2lSe++0uPc86Xl4D28n0+9R+QvLnn/HS1ZcZuUrVstVaXRk6fHG1rQo4/WYzzU5Vum4g31EJbKDVL6Y+3/s3c2sFWVZxx/LPS7fJQPBaxQqEJaQIwwBaEKFggfmsYwQghuDrcsy0IcGF3UxESzEN0wkQAKkYkmG5soWyCaKgKKYPkcOGylaEEKQkstlpUW++32/F53Yynn3J57e097r7xP0rR9+95zz33Oe06f//t/nv9T/KmceH29fHP4oDI00d1YNfSL0v2vOFJbL4UKGkuaW+WCBYwdXhCYRAL3JUuWmH54/OxmpCZu2LDB1NuRJtjeOBbAiNYSAMEBAwaYhuzt5wV+37hxozz//PNy9uxZAyAD49H0PRzASEAJIArUhJKmCnh2s1rS1bU3IywawBEwHWkGo/17dzdgZCOBYJ32KjCxbunLnPf58+dl27ZtsnXrVvPlR8De3j/R/rtlGDt/hXg+odSLSir3qpuRes89irKzXxkRFjC6ef/KcQsYr/RHLP8W04Dxlp5xcmtSvOSlp8mAeFvD6PdCHDBhkgFfg+5WRcWsm0N+u1ZlKWifcbbgbTm+dpW0NGgrBd0J9Muu69FTEnr3kYzZ98voZb837TXi4p1bB7idA4C2vqJCjr34J6nYtdMAXAsa3bwV3nhRXb0cUNB4tKlVKpVltBbcAwAHhFoIhgieSE91MoJ0VD2fffZZ+eyzz4T2GE4GaET0BZESjhdMbZXG9YDGPXv2mFo+p+N191g4gBE2AkAEEIJtRTUWcORmzCfdlzYlBQUFsmvXLlMf6jY/EuPdDRhZJ5mZmUZVl56fgGrGnOyy9rItKyszyrwrV640bHTb2lmn1/zYxyxg7PwVJrMCgS5UjefMmeN6QOpm6T3L2iON3g+zgNGbVy1g9OanWJgV04AxR3sw3qaAMbdvmvTXn6354wGCAlpn3DQnX27++a8kVeX7E12C1GBn0Kx1UFUHD8i57QVyestb8l8Nuvw2UmYH3ZMno37ziPZkHC5JukMZqiF+8/m6NVK+/T2pPXPKit+E6sAO5h+/3CCHFTQeamyR8hYLGIO5i3sR8RGADYIOtMVwYnpgu6g7pG8gaVkwguy6uxlAMT8/X+677z7Tk9FtHumXqIPSkgJBk2i0cABjIL02KyvLtI5YvHix5ObmGpbRLTUVIQ0Y3HfffVdeffVVU8sYzMed9VV3A0bOf8iQIUZkiTToESNGOK495pESSP9FFGWpn6X3J6wjmxjXqlnA2PkrT+ubX2gboenTp5v71O2IPO9IhSaF3i+RLgsY3bx/5bgFjFf6I5Z/i2nAOC6hh9yenCATe6dKugWMvq3DOAWL8cmpMmLRQ5Lzu8cMeAyndrGhslK+/PtGOf/RB5rmecSIyvh20m0O3Hf0rVrLeL8MvmeapI8Z0+Yv3n5s1cDn3PZtUr7jfWUZ35eWy3XeXmhnefLAifpGOaqAcW99s3xlAWNQnwEYUaicNWuWqePJyMhwnA8AohXGO9pL9IUXXjC9E4MF6+zcAxqpCwq2c4/AywkVrYLdBChFo3UGMFLTST3jU089JQ888IABSIw5Gf4EIJKS+txzzxl/u7G4Tq8PdSwaACPCNw8//LBZI9R8OtW7Bj4X/mEN7t+/36RFI4Djd9pu4L2j8bsFjJ27Kjz7yKx4+umnDVikvYabIbrEsw+wyLrzwyxg9OZVCxi9+SkWZsU0YByvCqkTUhJkfK8U6dvTMox+LbiEPn1N7eLQ/HkyfMHCsN7mO1UWrDt9SkpWr5SqA4VSf0HT47potzn5+sHSZ2S2sqOLZXDejJDPn7rL2hOlUvHhDil97RVprL5wTe+Uh+zADl5Q1tAoxZcb5aNvm+S01jFac/cAbNeCBQsMGzhjxgzp16+f42SEXBC5oV8g7RWo5wlm1O8R0AKUFi5caNp0ODFrsGqARtJct2zZYmr3oi3VsDOAkaAUgAhohm2FdcXHjDsZoAgVWpg0glNSdYMBc6djeB2LBsAImCZ9Gb8E1kmw86+pqZEKTeknbRdgHWizEW1rJthniNTfLGAM35M8i9jUIrOC9jeki9Niw8m4/woLC2XVqlWmDyi1xn6YBYzevGoBozc/xcKsmAaME5N7yk+SE2VcWrL0toDRt/WWmjFUMjQddfDUPBl458Sw3qdFA9iaL45L0R//IN8c+ZeK33Rdi/YeCYkSn5Jm6hiHzV8gcfEJoam76j+gFg2Uv97zkRStWC6Xz30lrY22GXVYC8HhRWcbm6REWcYddY1ySusYrTl7ANASrzW49OCjzo50VLegiUB9/fr1BjASpHfUPJ1jE5Q988wzhkHq37+/AY1OZ0KqIawlyquApY6O7XQMP8c6Axg5L/yAdD/B6eOPPy6kqbr5mfmk/pIC9/LLL5v6Tur3aL0RaYsGwJiUlGT8AftKHzw2GpxSott+dlhFUlJhet544w3TnqW6utqws6SuXitmAWN4V5r7kbVPXTEbOagYw3Q7GWuNzTI2KEjZ577kfvTDLGD05lULGL35KRZmxTRgzFV28U79yk5Nkl4OTatj4QJE+zmSeto3e7T2XnxU+t12uySrBH84Rh3gJQWMJWteVMB4SJpI6+wihpHPgADOLYt/LUPzfyppQ4dKT5fdSbfPhjhP9b8/UYbxz1Jd9IlcPnvabaodD9EDFU3NUqqA8b3aRjnR5H9da4inFzXTCZoI0JcvX25YxrS0NMdgnR12WEACJhjGSk0F98LoABqRq4fBpJG9m5gO6a6bN282jBpKmCiERpN1FjDyWQBGYzR9HTVGAtVgvRnxLaD5zTffNGzu4cOHpaqqKuIuiQbASPBOLzwC9yeeeMIIJLmtk7YOoA0L65ANBmpgYRthfgCO14pZwBjeleY5R+sf0uXnzp1reqZyfzoZ9yFq0Dz31q5da55Nfm1KWMDodAWuHrOA8WqfxOpITAPGqalav5iSKCNTkiStR1ysXoOoPm96GQ6YcIfkPKK7yVkqsKFBazj2vdpouZS//55cOHRALpYUS/OlGl/barQ/zxtnzpUhM2bLoNy7JWng9e3/3OHvdWWntI5xu5Tv3KbiPYUdzrcTvHngawWMJxua5J3aBilV4Rtrzh5gVx2268knnzT9F93SJEk/pQ8etT6kpVJn5zVNEjETUjFhkGDZnAyABCiihnHdunUGCDjN666xSABGzp0glTo9FBnxB4AtWM0eIhsAIXozUkMVENKJlB+iATDyWVh3EyZMkEWLFsm0adNk7Nixrim7bT87rCvA8ejRo7Jv3z7Tv7K0tFS+0tZFMOIw1z9ms4AxtKtLNgV9FxG6oXaR+3D8+PGu6fI8l9goIwU/oFzsZ/aDBYzerqcFjN78FAuzYhow3puaKJMUNN6cnCSpFjBGfr1pYJCePVZumDJVsn72kKQMcQ4gPb2xsh6wdM2aLlK192M5peI3NaUl8m1luaeXR2JS76xRmlI7WZnGX0qvEVkhH7JJU8/qzpyRk3/dIGVv/S3k19sXOHugqrlFvlTA+PalevnCAkZnJ+no6NGjZaqmSRKoT5rk3gcVsEhjeSTl9+7d63o8pz9kZ2eb91i6dKmMHDnSaYoBn7SUoMUG4BX5eq+A1PGAER6MFGAEHNKLEZGXZcuWddijEsCDyAtpvbBoMK+R9Eu0AEYuF5sX1JERNM+fP98ARrcNjLaXF3/A+ACmafXC+qQWFuaRWscfs1nAGNrVpV521KhRBig++OCDJuOB1HC3dcZmxMmTJ40g186dO03dtp8iSxYwerueFjB681MszIppwDg9LVHuUtA4IilRUixgjPh6I5XzpvvnyY0zZ8v1E++SBO271SnTYOE7DRboxVjz+XGpOrRfqj85rMDxuDTX1miKaqeO3uGLE/qkq0rqrYYtTR8zVnokuTfmdjrYdxrkNPNP6S+vKWh8XX++JK1N7q0KnI5hx672wDcKGMsam2VLTb18rt+tOXsANgdJeVivYD0CEXxAhIVAHKYrFCO9EPYIURtUU52a1xP0w1rCEqGWWlRUZHoShvI+fs6NFGAkMKU+b8qUKcIxScMkgHUzgBAqqaTrwnAAqL2kArsdr/14NAFGUgJhfwCLCOCQwuwmwNT+c/A7gTzpqOXl5SbIR3mXL2ody7R/I+OR9J3TOXT1mAWM7h4P3GusKZh9nm/ca6SF88VGFmJUTvWyrCXYawSnaCNE5gPMNesnkhs27c/eAsb2HnH+3QJGZ7/E4mhMA8aZ/weMmRYwRnztXRfXQ+L0AZ3926WSMTdfUlTCOtx0VLeTqzp0UKr2FUrlxx9KbdmX0nSx+vsHvAakvpgGgL2GZ0n2kkdl4B0T9TMNCettyjZvMgzppVOl0lRzMaxj2Bf94IGLLa1yWoVv/qmA8XiDBYw/eOb7nwimYLvmzZtnGD1aabgF5wRIiNHQF5AegfS+C8V4L4IzgODkyZNNz0e31wMU16xZY8RMjh075jaty8cjBRgDJ07vwZycHMOmwfDCclDL52SwjIB0FFNfeuklI4gTqdTUaAKMgc/O5gI+ATiSOggrFI4BEAny2YRg3eJD0lQRLEHEhA0Kv2rRwjnfcF4Ti4AR8LV69WrD/vpRqxwAigE2nx6zw4cPN5tW48aNM6CRmlkn41kHKER0ivVDDfGmTZvMucI2+m0WMHrzsFfAuHv3btMKBeB/RjO5/DKex6wPNhli/Znil4/cjmsBo5tnrvHx+NQ0SUofKDlLH5MbZ8814DGc3ovB3NisD/r6yvNysfhTqdy9S8q3Fyhj16QspH91bMk3DJKMWar4eu90TbXNDXZ6rn+rOnhAKj7Yob0ZC6Su7KTrPPsHbx74jwLGMwoY/6GAscQCxqucFqjlQYAF5g/gwFh7I4DiHyBiDytWrDCsH8F2qDZs2DAjfjNz5kzT89Ht9TBBMGlbt241tZJu87p6PNKAEX+jGosgEKIbCOC4iW7AdgBySIkDMAJ8zp07FxEXRCNgBCBmZmaaGs+8vDzDxgICQjUAIWuV4B/BIABAcXGxYa8RMUHtktpcPxmjUM851PmxCBhJsQbE4/tI15iy6QJjiKgNzCJpzqwnACLiXnyxOePEKuJ77jVS448cOWJYfdLwOd+u2lywgNHbHeAVMHLtqG/mO9fVL2MTld6wZIP4paDr17l393H/BwAA///0nVaSAABAAElEQVTsnQWcXNX1x0/WNe66cSfEPYQYBA8QtOi/WGkpFCstLdaWFiteKO4eEkiQIBEIcXch7rKRdUnyP9+bPpgs82ZnZmd2Z3bv+XxmZ/bNk3t/974353ePVRORo/qKShmdniQDUhOleVKCJMfERGUfIrXRac0ypFaX7tL60sukXv8BYWvm4YICydu1SzIXLZDd30+V/cuXSc7mjVKcnydHjxwO+XXj09KlZocu0uz0s6X1ZVeIVKsW8DVytm2V/UuXyNqXn9N2z5cjh0PfzoAbFcUHHCw+LJsLCuXDg3myMr8oinsSnqanp6dLx44d5eKLL5abb77Z9SJ5eXmyd+9eefbZZ+Xxxx+XoqIiORzE3KxXr56MHDlSzjnnHBk7dqzr9TIzM2XFihXy6quvyiuvvCJHjx41L9cDyumLs846S5588klp2LChJCYmul719ddfl9///veSm5srhYWFrvvxBecZMmSInHbaaXLRRRdJnTp1JD4+3vUYcPniiy9kwoQJ8sMPP5hxAJ+yCG1o37690L/bbrtNatSo4fV0hw4dkkWLFskHH3wgzzzzTNjHhPl54oknyuDBg828adOmjTRq1Ehi9De5WhDP1wL9TcjOzpYNGzbIjz/+KOvWrZPNmzfL9u3bZefOnbJLfy/27dsn+fn5cuTIEa8YROLG+vXry3//+185++yzfTZv48aNcv/998s333wjW7ZsCen4MSYpKSly3nnnyRNPPOE6h5wGHjhwwODNs6S4uNjZHJJ35kZsbKwkJydLWlqaaUtCQoKZN24X4B5izPfs2WPmxPLly2X27Nny7bffmrmRlZXldmjIt/Ps4D7kWUAf3OSll16St99+29yTPDOrmowePVpuuOEG84xo1qyZa/fBZvfu3cI7v2XhkpUrV8obb7xhnitVcTzKgivactl+xcpy9TIee2b1JBmUmiSNEuMlyRLGMqJ5/OF1e/eX5mefL/X79pP0Vq2P/zIM/xXn5kjh/v1Kwl6Q7ZM/l7y9u+RwYUHIr1RNf6Dik1IkY+zFcsKf7z2m0ASo1BxVJTxv5w5Z/MBfZef0KVJcmK93UdTeRiHHONATWsLoGzGIDz+6EAVInJtAFpcsWSKvvfaaQIaCldTUVGnXrp1ccsklRiFyOw8KZE5OjiGnf//73w0pigQFPhyEEeUWRXv48OHywAMPSKtWrYyS64YNJHS/Ps/AhbGA3ARD3j3PH6mE0WkjRHHAgAFy6aWXGnJdmvLvHFfaOyQBkggJh3zPnDlTFi5caEhDqElMaW0py/fRSBjL0t9wHMvzBfIKSZw8ebJ8/vnnZl6wyFDWBZlA22sJo3+I+UsY/Ttb2fdi7rAgwzNkx44dZT9hFTpDVBNGa2EM/UxFMYqJi5Mmo8+UDtf/XpJVWU1wWckO5dWPqPJ5RB/6B1etkMzFC2XXjO/k0NpVkrNtSygvYwhitdg4aTzyVGl3zY2SpiteibXrBHYNVWAKMvfJutdelh1TvpaDa1bKkWJrGQsMxJ/3toTxZyy8fYKc/OY3v5ERI0ZIt27dvO1itq1fv95YtCZOnGhW3F13LOULLGdYryCM9957ryFK3ix1KG8o7BBULHpYQw4ePFjK2cP/dTgII62O0+cill6sM6NGjZL+/fu7dgZcUGLfe+89+fjjj2XWrFnG+ut6gB9fRDphrF69ujRo0EB69Oghffr0kYEDBxpijcW6rAIBd6xdWBmxNmKJw/q4du1aY23ie8hEpIoljMGPDGSQBbHVq1fL1KlTZenSpWbceeawMFPWxZhgWmYJo3+oWcLoH07RsFdUE8ZRaYnGJTUjKVFSYq1LaigmXEx8giTVqi0tzr1AOt18u2CRq1aO1tujqoTmbt8mO7/9RvbMmSn7lixQy2OmFOflhtSKV6d7b3VLPUcaDBws1dWaEqgU52TLjqlTZPs3X8q2yZPkcBhdKAJtW7Ttf+B/LqkfWZfUXwwdVpquXbvKPffcI/369RM35RuFCjdEiBtWmDVr1vziXIFsYOEIYnT33XcLbkS1a9d2PXzSpEny5ptvmuviOljREi7CSL9wP8Mt9LLLLjMuwlgdfbmmLliwQKZMmWJINWMCiQxWIp0wOv0Co7Zt2xr33Z49exq8atWqZSyyYMXcKouwUAGBZK4tW7bMzHvczCAPkApccvm+LFiXpX1ux1rC6IZM6dsZcxYJsAqxAANxxDrEAhVeDriUWwtj6ThWxB6WMFYE6uG5piWM4cE1as+aUKOm1O7WS5qOPkPdNi8s8497wECo4nukqFAK9YdgvyoDe+bMkp3TvjbWRshkqCS1cTMTy9jmiquk/qAhAZ/2iK5kE8u4/avPZeWzT0hR1qGQEtqAGxTFB+xXwrhJYxjHKWFcZWMYjxtJlEyIIoQR4uhGTrBofffdd3LXXXcJyjNKc1nlpJNOkssvv1wGDRpkXFTdzgcpIt7qrbfeksWLF7vtVm7bw0kYsTISr0Q8Kdh06NDBkEi3zhGLR5zVww8/bFwpUXqDlWghjA5GLDKADxbHYcOGyQknnCAQR7c57C8uEAMIBIQQYghhIBYJayNzEWsuhAJLZHmTCF99sITRFzqlfwcpJEaR+MVVq1aZhQIWx3BVxmW5vN2TrYWx9DFjD0sY/cMpGvaKasI44n8WxlbWwhiauaazIaVxU2kx5kJpOORkqduzV2jOG+RZSIaTtWG97Jk1Q/YtmCsHViwzxCwU7p/xqemSVLuudPjdLdL01NMlNjlJLamxfrcU8lqsVsVd076VFU89plbRrVKUXX4B9343NAp23FdULBsLimS8EsbV+m7lZwS6d+9uXFGvv/5649738zc/f0J5Rjn++uuv5b777jOWl1AoT506dZKhQ4eamDRi09wEEoSL2EMPPSTTpk2rEPcwz7aFkzA61+nbt69xSz3//PMFnCBJ3gTCwth89NFHgiWWuCu2BUNkooUweuIASWrRooUhi7jz4l6dkZFhrNYky6FPoRDII0QCt2zIBNZcXFVJmgP+JMmpaLGEsewjwH3D8w6CuGnTJjPWjDcLBIw5iZKCTfYVaOssYfQPMUsY/cMpGvaKasI4TDOk9k9NkDaq7Kdal9QyzzdcT6u3ay9dbr1LcNlM1NXgihaIWc62bbJn9kzZ8OarkrVxvRTlHDqmcOmPR1mE/na++Q5N7nOeJNVvILHq/heo7J03R9a9/KJkLlus7dwU6OF2f0VgjxLG9fmF8umhPFlTENpMfNEO8JgxY0yim1NOOcXEh3nrD+Rw3rx5JgHEc889ZzLNedsv0G0ouCj4WC3PPPNMV28DFDTcw26//XYhfpIMd8EQokDb57Z/eRBGsjqCDQQd6xnkx83VEjxwl3z33XflwQcfDFqhjUbC6IwR2Tnr1q0rLIAM1UUIMINIYnHkO+fl7F+Wd+beNv3NIAEU85EkF7iuEucG2aiouRmNhNHBynkvy7iUPNbzfvH8XHK/0v5nQWD+/Pkyfvx4+eyzz0ysa3k8gyxhLG1kjn1vCaN/OEXDXlFNGIcqWeyXkijtUpIkzRLGMs+3pLoNlCj2lA6/uUlqdOgUFIGiEUdVgYXoVdNV9zLHP+qPf7G6HWFtJCHO7hnTTUKc/H27dXtOmfrMj1SzM87VBDijpf6AgUER5OyNG2Tn99/Jts8/kd2zvi9Te6rqwbsLi+RHJYwTs/JlrSWMP00D5idlNMg6SdZSSIk3wbqCBeuTTz4xpRxClXgmKSlJSGQCKbrwwgvN9b1Z0lDCcQl89NFH5dNPPzWWndLKVHjrR6i2lQdhBAcI0AUXXGBcrk4++WRXaxlEBbdJLMCk2McaC4EMVKKZMDKXaT9uqmT9bdy4sZnTzGtiQlu2bClNmjQxZRbKQh4cTHFVJRnK1q1bjeUJwjhjxgxjkSI5TkUkSYlGwsi85XkCXqEmjdxDxGh7vlg4CFQgh1iQcUnGJZ5yNiwWYIUM5zhbwujfSFnC6B9O0bBXVBPGwSkJ0ldfHbW0RromZ7FSNgRqn9BTGg46STIuuEhSmzUP+GSQRLKd5m7dIgV7dkuKniNBE+jEqeKpy+8Bn8/zAEpZULNxz8wZsuObr2T/Sq3XuHWTxjoeEL4LVmp17iYNBg2VVpdcJqmqsATaTq6fo8rfutdfks2fjDtGlo+GLtYy2H5F03E7lDCuzSuQL7IKZF2htTAydihRxMoRu0isHMTNW+wXShxKHTXVSAZBPA8KVKgEBQ4LIzF7WNTc6o0Rq0dGUEgr8Yy0qaKkPAgjfYNQE5dHbcb/+7//MwmJfLlYEssINpB74uywzAaihEczYSw5F6i/h4WR5DhgiLsqZTlq1qxpXsx35hr3QVkFV1VcFXEHduIb2RaqhRV/2xeNhBGXXrwXWJQKZQZaFgUgjMxpxph7iQRSvPOitA8v5gH7eFuoKok7zz1IIpZG6jJiWWaMaXs4xBJG/1D1lzCykEPSKt4pQxQu4TfyVa0djAtzJLiqh6uf4ThvVBPGfslx0js5UbqlJUv1OEsYyzpBWpx7kTQ77Sy1MnaXhJqBu6NC6AoPHZTN496X3d9Nk2ZjxkqdXn0krWkzk221TO1TxRjlqlgVUcjoNiWNu76fJvvmzz6WQTXIkyek19BYzT7S5Y4/S/W27QK2iEJWSYCz+j9PyY9vviaF6i5L0h4r/iOwVRPerFTC+HV2gWwoDJ78+3/FyN8TS0zz5s3lzjvvFOLkULC9WV5wR8WS8sc//lHGjRtnkkKEclUdwghZxDUWK5pbtlSUsjlz5hgXQIqT86NfUVJehBFsIDUkB7rllltMLCOWMzeBVGOJxS31ww8/NMpsIEp4ZSKMzGUWQOgTGEIMyAB84oknGrdVsquSndctK7Abxt62c49g8eY+QVnEbXH69Okm42YghN3buQPZFo2EccKECfKvf/3LYBfqRSDmAC/uI55vEEbGG0sziwcsIlBGCIu0m3eFJ/54OnA/QQKIpX7xxRdNArBw1dqzhNETfffP/hJGFnPwwuB3BJfycAnzmDnBAkMgz99wtSeazhvVhLFnYpz0Ugtjz/QUqWkJY9DzLkbrEsYmJEr763/3v3i++hKrP+SBSr4Suf3Ll8nm8R/KbiVztXv2ljpKxiBkac1bSFII6nHRpiP6439w9SrJXLpY9s6brclwlkr2+h/VDTZwtxn6jvtthxtuktrqjpvSsFGg3Tb7b/roA9n08YdyYNVSKdifGdQ5qupBG/MLZFlOgUzLLZRNRZYwMg+wvJCdlPINEDU3YUWW5B4UiP/yyy9D7jqGQkc9vVNPPVWuvPJKo8x5awtKOclvKKT9t7/9zSQaYVtFSHkRRqdvuFSCz9lnny2DBw92JfcQeV6UIMEKgoskBNJfqUyEsWSfsSBBGCCJWB55sWDC/02bNjUurJBxf61NJc/P/2DP/eK4p5Jh03FdhGyEW6KRML799tvy5z//2eDGgke4BNLIHIAYEtdKPc9GjRqZeYBnAwSS+4xtLDTwXPImLAAwlrinTp061SxgQR4hB6F+HlnC6G0EfrnNX8KI9wVeMliHN2qN1XAJ84O5wHt5LhiFqz/led6oJozdEmKlR7LGMVZPlVrx1sIY7MSJT0mTxJp1pPOtmgDmnPOCPY0WsF+tbpnj1fI3VfYvXWisdTXadZRGw0ebeoe1TuhqiCm1HUMh+fv2alzjKtk6aYLs+PoLte5lyRG1Vh0N0CU0takqJmeeJw1POlnq9e4TVNP2zpur5T+mypZJH0v2pvVBnaOqHrROrYuLs/Pkh7wi2VIcfsUtGnCmKDxkEesVWTjdhBIalNN45ZVXjLud237BbkcxQ2EfqolK/vKXv0jr1q2NRcDb+VDIWSG+4447TLbKcCqY3q7vbCtvwojrHJaRm266Sa666irjSufNfdhpH4QFpeiZZ54xWTzBzR+pzITRW/8hDRkZGaasTK9evYSXZz1HCAZEIxghs+bMmTPljTfeMC6XWB3CTRotYQxspBzrI0SR0kLc17179zZeDrix+hp7LEeQxGeffdY8G7FYhdpCagmjf+PpL2H86quvjOcFvyFkO7YSeQhENWHspCTxxKR4GVwzTepYwhj07Epr0Urq9uqn5TTOl/r93dPn+7oAKzV7tWbiyqceV+K4UkhKQzxgfLrGojRoJHW69dBr9NXkMoMkWVcJy5wMRxuDCyz1Dw+tXSP7lyzS2MbJeu1VWt7if1lUfTXY47uEGrWkVucTpPmZY0z8psdXfn8kKc/+ZUtk1bOPK1leJEf8VAL9vkAl3nFVTr7MV8I4VxPebLeE0ShCZ5xxhtx9990mGQjJVdyEVfT333/fxMYRkxEOwfLTp08fk/wGF7EaNWp4vQzPgLlz58rTTz9tyCuWz4qQ8iaMEBfI3DnnnGNcd7HI4kbnJsRVkZwDwkicFeUB/JGqRhidWLY6deqYBEPcB1jecVXEdRUrJN+5WZt8YUqdUrJrcv+goJIohQWOcFocLGH0NSLev2NscVdmnEmQxHOIjM1YHd3c4zkT5J+FGKz4jC0u4MRjhlIsYfQPTUsY/cMpGvaKasLYNi5GTlDCOLxWmtSN914HKxoGoSLbyAMZspgx9lKp06OnpGu2ukCFZDeFqgRRk3D5Y/+S3F07NPnN8fX00pplSM2OXdTaOFJqde0maS0yJAbXkhBYG4v0hz5v5w7Z/uXnsnfuLDmwVkmjJqMpzsv1qyu44ybWqiMZ512kbrk3SowqfzGqBAYixDFmb9ooKx5/WLOlzpCCA+pqpgq0ldIRWKpkcXZWnizW+MVdh6u2hdFxyyL7Jm6muGh5S/yBYotShCL01FNPmQB+EnmESzp37iy33XabcZPFPcxNIIkkviFbKq5gFSHlTRidPpK8BZfUK664Qrp06WKSd7iRGbJ34n5FPB2EBeW2NLJS1Qijgyvv4EicG0ShQ4cO0qNHj5+yq2KJhFCwsME+/gpWKEjElClT5PXXXzdujLishkssYQweWcYfSz5jj+v3kCFDhDhX7gmemW5CrNrChQvl3//+t4mNy8rKKvU+cztXye2WMJZExPv/ljB6xyUat0Y1YWweW026JsbL6NrpUj/B/aERjQNTLm3Wh3CMFqtvOvpM6XL7nySxdh2J0x/dQIWYwv2aTGDHt5Plx7deMZlLS5KlmLh4idMHflrTFtLw5BHS8qJL1Q22lsRqwoOyCoSVUh6Q1n0L5mks4UcmrtHvuoiKQzXFoYXWY2x//U2SrPXn4l1KGLi2VRX4vN27ZP1bb8iO6d/KgeVLTEyl6/72i58QWKBkccahXFmp8Yt7j1Rtko3SiwvW2LFj5dZbb3WN14FgkGiGBDOUvaCMQDhLWWDNoU1kBPUVU7l7924TI0bCiXfeeeenMS7PDxVFGEneAqEhUREuvCTvcHObw10ONzlcIilHwliWFmNVlQkj8wfSgKsvCyhgAb4QiFGjRsmAAQOMxZH7x1+BoEMacU+dNGmSeWGRCpdYwlg2ZLmXuMdYHKDU0DXXXCNgCpF0E+4pStiQRRqXR8Y6VK7HljC6oX78dksYj8cjmv+LasLYIKaadFLCeE6ddGlkCWPA8xDLWkqjJtJUM6O2v+F3pvxFMBY/6iRumfiJcQndNWOqq2WPcxMvSTbSer37Sp0+/aVmp65KHGtKjCoBZRUylubqiuIBdQ3dO3+u7Fu0QLLWrzHWxtJW77l2/f6DTSxj/b59JS0jcEsr7rG7Z82U7ZM/l82ffmSyp5a1T1Xh+FlKFqcezJUNal3cX8UJI8rQyJEjzSo6BM3NYoL73EZNDPCqpgdHGUIJCpUi5G3O4Q5I/NBFF11kynx424dtEFeyFD755JPy3HPPmfTopREht3MFu72iCCOEhvE7/fTTjdscrnNuCTog/JBGEhUxhosWLTI1A331uaoTxpLYYH1nXkIacVPFCs6LzxALX3Gknuci8RBJUiDvWOzJphqOUgyWMHqiHtxnSCMWRRKCcZ9BRhh/7j03YXwdrwc8H0KVGdMSRjfEj99uCePxeETzf1FNGGvoQ6K9Zkq9uG51aWIJY8DzML56DSVuA6TJqNEav3heUO6hx9xRD8jqZ56S7WphzNm2+RfuqCUbZqyNSlYpu9FYr11DCWSCZkaDwIZK9i1YILt++F52TvlSSeM6jWv8nyuKDzfRtIzWUrtbT2l18aVST8uB6K9QQM3BLTVPLSxbP/tEVjz1qBxWl1jwseIbgelKFicf0FTXShazfIyP77NE/7coPVhNWDkn6yZJPtwsVNQbozQACi4xjOEWFHDi8qg3SFIbiKxb21icgTA+/vjjgsURElmeUlGEkT5i/SKbJ2VIsDRSVxCi5yaUeWAc33rrLRP36cs11RJG7yhy3xBXS3ztsGHDDJFgDIhxYzx8kQnnjMxZiDvJoxiTcNRns4TRQbvs7ywUENNIOaERI0b4dP9mYQbLIs/Kxx57zCwG+LOAXForLWEsDaFj31vC6B9O0bBXVBNGfobbqoXxynrVpbkljAHPN5LRtL7kSmkw5GSppTE3wSSiwbqYu32bLP/3Q7Jr+hRjXSwtSyk/4LiApjRpKjXad5QGg4dp7ceeam3sFHAf3A4o1DpwxDXuX75Uditx3PHNl6ZtJWMrPY+PTzuWoKfzLbdL4xGnHItjDIA0Qg6PqGvZ9q8na/Kff2ss53aTgMfzGvbzLxH4SsnipP05sl+VttCVnP/ldSJ9CySMpB733nuvDFWXRhRMN2WX2CssIhQjJ9tjuIW2kYTk8ssvN0oaljRfrmAoZ5SPoKZWuOqgufW5IgkjJBqcSHwDVn3VW4ExdROSr4AP5Bq3SBYC3FyLLWF0Q1GMNRHSCFHMyMgwlifGgKy+/rqpMldxW4S8k3041GIJY+gQZSEA0nj99debBQIsy24LMyzCkGiKZxIlQvgcCiujJYz+jacljP7hFA17RTVhJKF2K7Uw/p9aGDOUMMYGoNxHw+CEs42xiUmS3qqNdPrtH6Suuocm6mpsoBY12pezZbPWQ1wia195XvYtnBdQoheU4YSatbX+YW/jolqvb39J1RT+CRpL6aYoB4LJMYvfLslcOF/LbpBBdaXkbN0ixflq+dMfkZICYY5LSZWOiknT0WdodteGJjFPyf1K+3/vnNmy/u03Zd+S+bbERmlg6feTlDB+rIQxTwnj8amS/Di4Eu2CRYTsj/fff79x/0Qp8ia4nlKagUQOgWTZ9HauQLeRcAIljThLko24CUWYyU743nvvmdV9t/3Csb0iCaPTn5aaPIy4Olx4sXqhzHpzL8bSgfIKuaZIOtZGFFpvFhBLGB103d9xV4SwE2fLogtlaSCQLHCUJpB16jL+85//FGo04pbqbRxKO4/b95YwuiET3Ha8Hsgmjes3zyWyqboJz0zcUikNRMKpA7qgXFaxhNE/BC1h9A+naNgrqgkjAEMUL6+TJq3V0pisCr8V/xBIrttAs5WeKJ1u+oPU7NI1KOsiV9r9wwzZqtlJd333bVDkCJJGttT0jDZS+4Se0nzMuVK3Z69j7rFlXQBQZQyrH1lUCzL3ysb33jXxhbm7tilp9G7LIpay+dnqKjtytNTv0zfw5DeKSfbGjbJHSeOmCR/Inlnf+zcgVXQvHSEZr2TxA31B4atyyhtWyVFwb7zxRhOH5bZoAsFYoC7XDzzwgKxevdrVIhWOKUUcI+6yKOO+sqWSaGL+/PlG+YbUlqdEAmGE7GPZuv32242lkTqNbhYQlFli6LBuPfzwwyZJh7d4VEsY/ZtF3DeQRlwWIezDhw83CzClHQ3mmzdvlr/+9a/Gck/WYW/jUNp53L63hNENmeC2E6PKGEMayeCMxdGXUPuUeG9K2vhbysbX+Sxh9IXOz99ZwvgzFtH+KeoJY1Otv3h+zRTpkJwgtXV10Yp/CNTt2Vcaqito87PPkdTmLfw7yHMvJWNkQt308Yey7o1XJXvzBs1Sut9zj4A+J2g8ZVK9hkoWexuLZ121NibVrSexPuJ//L3AEc2UdqSoUJPhLJNMTYSzR+tFGmvjtk2/YCgk5qndtbs0PGm4xjL+SttUz9/L/LRf4aGDkrdjp6x54VnZMmm8iem0sYw/wfPTh2KdP3mqpH16IFcmaBxjVSaLgAIRY6WcZA7NmjX7CaeSH1BiqSGHFYQEHaFUakteq+T/TjF1sqZSRN1NSMoDCSKDK4paKNPZu13T2R4JhBHSgkWRrLK0B6UJd0lvghUL11TS/z///PPGjddb4WpLGL2h576N+dlJwxywQJ177rkmBpdEOb6EmFuKvVPuhPEIZcImSxh9IR/4d7h/EyPMc/Nvf/ubNFXvJF+Jjli4wo2fcj94aJRVLGH0D0FLGP3DKRr2inrC2CguVkZXT5LOShibJXp34YqGgSi3NqoigzLTYswF0vysc7VgfVeTcCbQ61PGoliDyde9+qKsfv4pOVxYEJJi9Ul16mmbTpCMCy7WmMYuktywkYklDCZ7a8k+QdryddV4+9dfqWV0umZSnWmsj4fz8392pWV1Wt1k6/cbJJ3+cIch04HWZIRIc60VTzwqG95/29RkhLBaOR4ByOK+omL58pBmi8zSMaiiwv3I69e//rVcdtllJtOjLzIWLTBBaqkl+fnnn8tGtboTS1QeEgmE0eknxLpfv35yyy23CHUacaNzE6xbxDFOnDjRWLhKJsCxhNENOfft3FcQCu6r/v37m9IbbHMTXBXHjx9v6ogyFqHMlmoJoxvqwW9nLHH5fuihh0yssK8FAdyNubdwTQ2F14MljP6NmyWM/uEUDXtFPWGsFxsjQ1ISpFtqonRISYoGzCu0jTGxGuup7lLtr/+dtLroMolXv/9gSlqQVObg2jWy6aP3ZOO4d49lA1WiVFaJiU+QhBo1Ja15hjQcMkwan3KaksaGkuAjPiGQax7WuJSCfXvlwKqVpmYjiXoOrl5+jOz+r/20oXa37tLxhpulZmctwB2ElRHSuHHch5ox9VPZt3ieFO7PDKSZVWLfQ8WHZXNBoUzJzpfvcqouoSbuCjJAxr/rrrvOZHx0i1+MpomB9ZMEIihpU6dODany7QuHSCKMEEQSr5Bdlrg6Mnm6SU5Ojmzfvt1YQShJgtXRk7BYwuiGnO/tkHZwv/nmm03BdyxTbqQRyziWe0gjWVPJsBkqsYQxVEgefx5ihe+66y4T/42V0U1w38fbgbhqrIxlFUsY/UPQEkb/cIqGvaKeMNbSWow9NPFNr7Qk6Znuf9HeaBiccLQxoXpNSW3cVNr++jp1R9VSGqy2+lhxdWtDzuZNsu2rybLj2y+19mBo4/SIa4yNTzQxlvUHnSS1T+wu1du0NS6qxDuGQrA0Zm3cILu/m6qWxjlyaK3GgqkrqWMJJCFQxpgLpf6gIRpb6a7k+WrLvgXzZed302TT+PclZ/NGX7tWye+wLq7IyZeZuYUyL7/qprshuyPlNIjDwRKCK6ObQhtNEwUChPLNiv7LL79cbuU1IokwMl4kMxoyZIhxTb3wwgtNqQcWCUoKrsW4QFIr7vXXXzcxoNu2bftpN0sYf4IioA+QdsgaGTJxTyXWzRv+nDRfvU3IkDpu3DhTgiGUJWEsYQxo2PzemfJDv/3tb40FmZhGNyGzNM8j7q2vv/7abTe/t1vC6B9UljD6h1M07BX1hDFdyU77+Bjpp4RxSM20aMC8QttIrcH6A4ZIs9PO1EL1A4Juy37NjLrmuWc0E+gCydm+Jejz+DoQV9C45FRpctrZ0mjYSKnft19QSWi8XuN/bqO5uqK/b8E8Wf/6K3JwnZLG7INmd1xjiWVsfva50uysc7yeorSNhQcPyP4li2Tpw/+QAyuWhjTjXmnXjobvdxYWyZxDubJAyeKKwvJxV4xEXLCA4C5HGQZ+XCuLkJyHkhEff/yxyU5IHGN5SKQRRhYAKEECWbz33ntN3JWvUg9r1qwxLnPE0pFt1hFLGB0kAn8H79/85jdyzjnnSPfu3V1LbTBnIekfffSRGSssjqESSxhDheTx58F6jAWfhGG4fbsJiW7mzp0rL730ksng7Lafv9stYfQPKUsY/cMpGvaKesKYrD1orBapwdWT5bRaljD6nHRKruv26iutL7tayVA3dfts4XN3r18q0SLr6N45M2XFk49J1oZ1UpQTuh/V466p7Y1RZSutRSup0bGzJsTpq/Uae2hsY+djWV2DsIwed379hzqSebt2KrFbrMlwZsqemTMkf99uIUYzqW59TXxzmbS58tcmk2ugcZRHCgvl0I9rZdWzT8reeXMkb/eOkpev0v9vLiiSKfuzZXlhsWwsPlJlsUCBveSSS0wBaspqVBbBYoaFhhhGiBKZU8uDNEYaYcRajEWrT58+ct5558nIkSOli9a9dRPKahDP+PTTT8uXX35p3FQhMpYwuiFW+nawI/ENcwMFFqu+N8HCiyv1Bx98IHfeeadYwvi2sczu3bs3pFh4wz7YbZDEK664wrh88yx1E+4pMje/+OKLJqmR237+breE0T+kLGH0D6do2CvqCSMOijX0B3moEsbz66QLHeJl5XgEjJun1l5sNHyUdPnDHyWpfgO13rknYDj+6J//O3rksCkbsVNj/1b/9xklW+VDghJr1ZYa7TqrpXGENDp5hCTWqyvxqWnHym/83LygPpGgBnK3Z9ZM2fr5RDmwcpnkbNssh1XZzRh7sbS/5jeSWEfdmHSVOlDJ3bFdNr7/nuyc/q3sWzQ30MMr9f7r8gvlk31Z8mPRYdlzpOzxr9EGFkSCeCqSNtxxxx0mo6NbJs1o65tne6kt+Nhjj8miRYtCks7e89zePkcaYXTa2KhRI+nQoYOxdJGIBVdJrI/eBKJNRkfcecEP917iWql/Sf9wX3YjPcQ+gjWk55lnnrGeDQow2A0ePNiUYMDt260uo7PI8f7775uYx1AucFgLo7eZXvZtXbt2lSuvvNISxrJDGZYzWMIYFlgr5KRRTxjpAKRxmBLGS2unSZwqYbH6snI8AiS2SWvWUppofcF2195gXDshkYHKEV3pJsvojm8my/Zvv9BSGmUvgOtPG2Li4pWwpZpkODU7dlE30TFSS1cW2RZMP467Ju6pWE4ph6HFm3d9P112z/xe9s2fLXV69JZmZ4zRUh99JLWpe6mD487n8Q9xkfs0PfvWzz+VjR+85fFN1f4IPVyRVyBv7s2S7UoYQ5daInpwhSziqkgpjQcffFB81eqLnl79sqWksMctlVIFni6Wv9wzNFsilTBi5cI1ksRGY8aMMQsEaWnevWKwdK1atcq4zv373/8WispjpbSEMbg5QrmFHj16mDIn119/vYlp9HYmfgdINARhJC7OEsbItzDileG4pEIe3WTDhg3m+UMyo8mTJ7vt5vd2a2H0DypLGP3DKRr2inrCCMh0YlBaooytmSo1tMxGchBEKBoGqyxtjE9LlwZad7HxiFOk6ejTg6tvqD+mlNJY+/ILsm3yZ+puuUYO55evqo9VMalOfa2TOEzq9umniXG6qfWvTlDWP294HtXU/wdWrpDMxYtkz9wfRA4fkWStD9ni3POlZhf3HyNv52Ib5UbytbbXlk/Hq2vqE8fKjxRX3QQvYAJZLFCr7mJNdvNmZpbsVXfUqhjBCIEggybkgQypkEdvyW6wehSqBTwzM9PUXwTDSBCUcAgPJUCoh+YmZP7E4oUrGNknUcrDKZFKGJ0+U0geJQr3VLI6ekvAAkaQlZkzZ8qTTz4plASgkLwljA6Kgb2DcefOnQ1hRNGnnqg3AXfuNQjjjTfeaAnj25FPGFkIuOGGG2TgwIHSsWNHb8NqtlEXFms9mZvJllpWsYTRPwQtYfQPp2jYq1IQRoDumRwvp6YnSbMkLYmgPw5WjkcgsW49aXf19aYgfY02baRaEBjhulmkSsziB/5iykVAho4eLf/YMxMTlJSi8Yy9pdXlV5uYxlTNMhlKccqG7Jr6rWRqUpyOv7tF6g0YGPQltnw6QZY99A+tybhPinLDFPMZdOvK90BmTKZmSF2YWyAfHMiVA0rKq6JU11IxuKNCcC6++GJJSvJeFoj4NeLaIA3fffddxEAFWWzevLmJx/OlqFGagPY/8MADQrkIlPJwksZIJ4yMO/GM999/v0nSwUKBm6DkTpgwwZQmgTxawuiGlO/tjnUW5fXWW2+VhlqqyZswL62F8Wdk3o4Cwti7d2/jPty3r+Zn0AU4N8Fi/80335jFAIhjWcUSRv8QtITRP5yiYa9KQxg7JsTJgJR46ZKaLE0ScVK14iAQl5Ss7qgZ0vH3t2lm1IESrwH/3iwZzv5u77hrHlq7Rta8+KwpfI/lQzU/t93DuF1jv9SSjKWxersOUq/vAGNtrN66jST4sHQE0iBiGgtVyc3esF5ytm5R99du6pLaVGI0DjQY7PbMma01Kz/QEh6zTKKgQNpS2fY9rHNmg8YvLsgpkMlag/FQFYxfZExxQcWV6vTTTxeUHSx23oRi4gvVrRllhwQykSK4VxKXh6WMDKBuQgF6lPDHH3/cZCjcuXNnWEtsRDphZJxbtWplMCMBzqBBg9ygE8Z+/fr18qq60VE/rlmzZsY6aWMYXSHz+gWEkURDKK++LIzMVRLdEP/5hz/8wVoYo4Awcv/cc889gjuqm+WYSbF48WKz+DJp0iSZM2eO13kSyEZLGP1DyxJG/3CKhr0qDWFsHhcjXRJiZVCNVGmTnBgN2JdbG1MaNpZanbtJhxtvMgXpg70wmUR3TJsi2774VAvfLw/2NKE7TmNVq1WLMZbG+gMGK3Hsr/Ua20hi7TohzaJarAknqilBjU1IlFhNVBFMzGT2xo2a9GahxjG+LXtmfx9WC0voAA7PmYqUMC7KypN5amGcoyU1cqogYUSBRfm/++67TdZM6jAS0+hNnDT/KDqhiL3xdo1gtuFSizsq5Qqw2vC/WxIXzk8SF9zByFRI1sVwSaQTRvqNCy/ZHSHbZHiEfHtbMGBRjnhGCONrr71m3Fep6WgJY2CzB2yxRJ122mly7bXXmsUab2cAa1x/P/zwQ/nTn/4U0sygNumNN8SD32Y8jfQ5iov3P//5T2NddIsJ5iqzZ8+WN998U6ZOnSrEVZdVLGH0D0FLGP3DKRr2qjSEsXZMNWmmrzM1U+oJqd5du6JhQMLRxnp9BkjDoSOl6SmjJS0jI+hLbPvic1n/xqtar3CV5O3dFfR5QnqgksY4E9dYzxDHhoNOkkYjR5mYxmCIXcm24YZLXKMyUyWKvLxnNSx5XMn/Kd+Bm+uyxx6UrRPHyxFVTMLpllfy+pH0f4ESxCkHsmWuWhjXaPxiQYVYqSsWEdwSceP829/+Zoq6o9C6Wa7Xrl0rjzzyiFF0qNEXKQLBhSBiJb3llluMtTE9Pd21eShqJL5BGScBRbgkGggjCwa4olIXkPgrXOkoKO9NeE7MmDHDxF2h6OKWagmjN6Tct5ElddSoUSZL6tixY6V27dped8YSjkV33LhxJhEV2WlDJZYwhgrJY+fh+cOCFYTkH//4h5Bh2teCFc+fp556ynhrhOL5Ywmjf+NpCaN/OEXDXpWGMFKPkfIaFylh7JOWZDKl0rkqLYpHjFrgmp97gWScd5HUaNtOEvQBG6hAbg5rHNKmj943pTQKD+6X4nJOdlNam2PiEyS1STOp2fkEadB/kHEhTVclLEatgqEgjqVdv7TvDfFUHFdqTcYtn3wsuTu3yeGC/NIOq5Tf5ykJH7cvW+bk5JtyGsWVspe+O9W2bVsZMGCAcY/zVTuM8gokjLnvvvtM0WlqxEWaQNCwkhGXRxIXN/nxxx/lhx9+MCU2cA8L14JJNBBGB6OePXsahRfiSLZHlGBvCwdYmYnBoi4jrsxk+nQj5+VRVgPCS8xty5YthcWP1atXG/dZLHSRKJQwufzyy01GYlwY3bDjfsMCTlZf4m2Jvw2VWMIYKiSPnYdFNtxQzzjjDLnppptcS6WwN88aPDR4jkIW9+3bV+bGWMLoH4SWMPqHUzTsVWkII2DHa28u19Iag5QwJqslSA1CVVooeh+rRKr9DTdJu/+7XslTQlB1C8mMmrtjh2x4/y2NX3zmWJrLCEU2Pq26ZjVtJC0vvFiannGWxjTWklhVbLwpYRXRhU0ffyRbv/hM9s77QS2Okaf8hxsTtddKthLGV/dkKWEsEPLFVkQUbLj7Wdr5Tz75ZDnzzDNNwhtfiRp26H2HdYkYnRUrVpR22gr5Hlc/rDfEMfpKa4/yTR+wjtEnkvmEQ6KJMEK2SMDC+FJeBWLjzTUZhRciSPZOyNoFF1xgLJTe8As3YeRZiusfxJX424yMDBNfCaF1ylCEazHAW39L2+a096677jIZiSG5uE97E7DD7Zv6l8Qx5ueHblHPEkZviAe/DTdu7hmeo5BGt0UA5iKu3cQA33zzzWZhIxTPHksY/Rs7Sxj9wyka9qpUhDFWe3NmerL0T02UxokJkljFGSPF7tNbtpVWF/9Kmp997jFLm/7YByqmNuF3000pje3fRE7SDW/9oF5jrCb5wZpaq2t3aThspNRo30FJZD3jVurtmPLclrlsqez6bpqsf+dVyd22tTwvHRHXylL33p2FxfKhZkddnFcoVTM/qgjFw6+66ipDsNxcERkwMmNiVXpVY9g2bdoUEWNYshFYFbGO3XHHHaY4esnvnf9JKLJRY3mJNyKBD5/DQSyiiTBiJcE19ZJLLjGKL1ZnSKQ3wV0SUgah7NChg9eYR44LJ2GEfEG2sIwSf8m44965YMECmTJliqkbCWkMJdHyhkUg23BbbNGihSldc+qppxqy6+a6SGwtsaITJ04M+aKGJYyBjJrvfXExZsECV3jIIosAbPMmlEnBQs8CAJmasSKbhH3edg5gmyWM/oFlCaN/OEXDXpWKMJIyYmBygvROTZCumi01NdZ7EoloGJhQtDGtZWtpdPIoaaK1F+v17RfUKVHosn5cJz++8Zoma5khB9euDOo85X1QbHyiJNdvII1HnSZ1NRlOrc5djLUxTlclK1IK1KVwr5bpWPnUI3JozSp1Sy2oyOaU+7V3FBbJWk12M5n4xYLIdF8LJygoqijcKBski6mjNUSxKrnJO++8Y+Kppk2bZpJxuO1XkdshPCTw+fvf/y4o5PTHzaJPAXoUcrK9UiIEEhlqiSbCSN+ZE7169TLJj3DtBUtvFjCUXJRdBMzdMA4XYeR6WHXaaGIxxpkFD7Lk4pq6W2vNfv/99/LRRx8ZUrtlyxaTMCYc42sA8PMP5LpTp04mEy3txW3aTWgrxOLhhx82izTEMoay/ZYwuiEf2HbmIfcISaNwRR08eLC5X9zuBxYwyIpKXCq1YCGQoRBLGP1D0RJG/3CKhr0qHWFsHx8r3ZU0Dq2ZKjU1s2WVFR3ZOj37SPtrfmfIUor+sAcjR/RHdP/ihbL0ob/LgRXLpCgnK5jTlP8x+qOCtTGhRk3NDNtDGo8YrXj0kuoa11iRQgKdg6tWyqpnnpB9C+dJ7u4dFdmccr/26tx8masZUhcoWdyqCW+qmuDKR+p3XKOuu+46Qxa8uSA6uGCNe/3114110SELzneR8k77Ib5//vOfjZUMZQ7LmTehHiNEcfz48YY4hiPmLdoII4ouBBDXXtx1iWmFiHkTxzLia86EizAyprSLJEe4IHfr1s1YdWgL40h8LS7UuP5hFSdBEyUqKkrAFfddLKHEfJJkCtLmJtxfJJgiOyrWUqykobSAW8Lohrz/2xlTXrhCX3rppdKvXz9TC5ZtbkLWW+YkVmM8G0L1zLGE0Q3x47dbwng8HtH8X6UijHSmnrqhdklKkDF10qR+fJy4P0aiedh8t50kL/Hp1aXBoKFacP4Pmgymqcka6vsoL9+qdTFn+zbZM+sHWf3ck5K1acOxjKFedo3UTZTdSNayIjU6dJK6vftpJtWe6qLaXhKq16gwF9XcrVtk8yfjZee0b2XPvJmRCl1Y2jVbyeJXB3Jk8+EjcqAKltMgkx9WDhJwjBkzxhVj4v1Q/MmiSikKVslDpei4XrQMXxA/hAUHsoZbpZvVFCUc11rcwyDD9NMhQWW4/HGHRhthpPEovBkZGca9Dhe7ESNGmG2+FOHjOu3xTzgII+3AojNw4EBDwPiMK6oncWV+Yr2ZN2+eSdBE8hiyukIc+S6U1jqP7nr9SLtwWcR1lvlAUqEaWn8Ya6ib0E6SMj399NMmk2ao56UljG7I+7edBQswxA0aCzdEhMU3X6U0mI+4vj/22GOGLGI1DtW4WsLo37hZwugfTtGwV6UijAAep6/2SfFyuWZLbZoQp4lwqh5lxLKWntFaGg8bJe2u+03wxeyVMO6aOUN2TPlGtnw6TvL3REgpjSDvLGpR1us7UJqfdY6kt2p9rKYi86Oc50jhwQOyf9ly2TLxY63L+JauYtOhyp36hd7Rz68O5ci4zGzJ0c+hcQwKcjJU0GGdO3c2yWGw0PTt29e1FayKk1UU9zhcqSJdIIhOIp+LL77YKOfe2oyyhhIHYSTmkcL0oY53i0bCCFa4e2LBu/rqq42rHeQGC1mgEmrC6GRExaLD2Hbp0sVnRkraSxbKWbNmmZhGLDtYlrHgkWwkVAq7N1wgtpBFSAQJmMCSBQxKkbgJVkReWEXJjkrSm3DEC1vC6DYC7tsZT1y2IYvE9kIWf/WrX5lnJ5mmS5PMzEwhIzNJpZiPoUh241zTEkYHCd/vljD6xieavq10hJEOtUiIlbOqJ0tbtTQ2SPDuGhVNgxRoW4nTazziNGk8fJQ0GjYiOOuiXpRSEMQubv38UzmwcqkUZUeJO6oLYLinJjdoLLW19Eb9gYOl4XDFRhPkkD22POWIKsyFqkBt/PBdWfXsE3K4MN/UZSzPNpT3tQrVmrhfrQzfZuXLpIO5QvRiVXNIRfnBQnPnnXcadz5cN91k5cqV8vXXX5usmMSGRbpAKkg8gXUMlz63RD4o5hAG+saq//Lly03cWCj7F62EEcUY4o2CBTHDRdVXmRI3zEJNGJmn/fv3N1Y6LJ9Y6twSjDhtYlGABDLEMq5bt85YHEmMw3hDHsNlbcS1F/do2nnSSScZYoFV3y2DJu2FRFBvkfi2V155xbTZyfbq9CcU75YwBoYixJ/nCvOPJE8ssPXo0cO4FmM99jWmzpWmT59u4qWJrWUBLpSLFZYwOij7freE0Tc+0fRtpSOMgN8gLkYGJMfLialJ0jHF3QUlmgbK37ZSWD5RS0m0vfp6JYsj1ZLWSmJc4ol8nfOI/ohSe3HFE4/KlkkTpODAPmFbtAv1GpNq1VX31L7S+JTRUr1te0lp3ETiSNShClt5CYrz1k/Hy+rnn5GcHVuVQB4or0tXyHUOaezmBs2K+p3WXpyeU/Vsiyg/WJCwLOJm2rx5c9eyCAwQcX4osKyK4yoX6UL/UNbpH8lv6J+bWyp9wV0RKyPWnIULF4a0e9FKGB0QsOBRKxCLHslwSIDDYoO/EmrCyEIA5Ovcc8+V4cOHm/ZAbv0RiCOWRdxUGXNqim7dutWQSazLELOyuiVzX2FRxEUWctFKf/NOOeUUgx0ui6WRWxL2UO7l5ZdfNgs04bKCRiNh5B69//77BUtduOJRHSsi5JCxYr47Y1qzZk2h7BCeGbjyY1Xku9LmHxmFuQ9IGkYfGF/6EErxlzASg04blixZYjwqQtmGcJwLUo0LufMq6zX8JYzffvutTJgwQaZOnWrciMt63fI6Hrx48awDs8oslZIwVtc4xraaIXVg9RQZVKNis2KW9+SJTUySVI3Z6/rHv0iDk4ZJLNazAJQNp71YwCinseLJh005DayN//OddHaJznfFAlKdoDFXEMeMCy+VhiePkFQtDUC9xvKUvXNmy5bPJsquGVMla/3a8rx0uV9rt5bSmKXuqAvzi2R5YegzY5Z7hwK8IC5VpPZ3LHBYQSBZ3oTFBJLC3H333bJ9+/aoUDLoB/3Bgkq9O2LcmjRp4q17ZhsufxCIF154wbgtuu4YxBfRThgh2tRmBEeSe0A0UKb9lVATRsiY4ypL+Q+sO74WAzzbyVzmhdsxxBGSiJURAonFcfXq1YZAomyxX6AC2YAk4nKKBQpSAcmmzbQRYlEa2aYdLM6wSEPbgmmHP+2ORsJIsfsnn3zSJDRi/MIhPBtxv8blFNLP/GLBiYUKCCLPSsaTfdjX7bnp2TayMTuLAFgXmV+htmr7SxgJKQBHSuJgXY90ASsWcnhheS+r+EsYiR/+6quvTCkpFpWiRSCJLFDgURGuRZVIwaJSEsZE7VUt/SEZpoTxtFqpEqefvatmkTIMoWtHWrMMrT94orS96hpN8NIjKLJIaw6tW6tlNGbLpvHvy74Fc0LXwAg5U4wqEjFxCVJbk+DU6dFLLY79pbqmi8faWF6Ss2WzxjIulR/ffEWx/kEVlcrppIkauFGJ4sT9WaaUxq4qmOwG5RUrDUWmicFxq7WHdYP4L1ak77vvPvOjzQ94tAjWMWpMYoki4YibQGp27twpDz74oLEChNKqE+2EEYUYKwpJkVhgIMGH23zxhm+oCaOj0JORkjnMq127dsbt2B/l3Wkjq/CMM8o8CiElLMiqioUP6w9ZVmk7xASC6Sj5jgWKdmB94l4CD6xP1FiEiEFoWZCBPLJQwTGlEUXOjxKPZeONN94wVo1QW6GcvvMejYQRd2JKUjAejF04BFLPggiE0NOyCHnEtd0h/v5cG1LIogSLUSy64c6/dOlSfw4NeB9/CSNzDBwhFBCLSBfaSdwnFlEWdMoq/hJGngkkJeK5wHMgWoRFAH7L8JZhwakyS6UkjHSK1/D0JDlXy2uk6QMpUa2OVUHq9R0kTUaO1vqLwyQto2VwXdaV3l0zvpcN770jmUvmS87WTcGdJwqOIqNsSuOm0mj4qdJA4xrr9uqt7qkp5RLXeFh/hPP3Z8ryR/4h276YZGoyVkbSWKAEcVV+oby9L0u2Fh2W8KgdkT3ZiPuixh6EESscSpA3YUWXHx0I4+OPPx51Li4o7NRFu+iii0xfvfWRbVhxIBB//etf5aWXXjJkIVTEONoJI/igRGdkZBgXX0ptQIK81WZk35ISasLonB9lnphKXGWHDh1qkt/ghuxvu5zzeL5DQpjzKInEO6J4QdroA66qzAmIH66K3DNYmriXIIhgwnxjW6BtQHHnOiS5oSYopDFcFjSnv9FIGJ22R8M7lh7mEvHfjCneCyy+heq5UhIDfwljyeMi/X9iPT/99FPz4r4oq/hLGMt6nYo6Hi8gFgUeeeQRM+8qqh3lcV1YVOB+IOXRsjJeg4511zjGoakJ0iY5SepqiY1KLfqjSgmJFuddKK0vu1rS9IfUlI4ItNMocvrg3TJxgolfLMjcGz21FwPtK/srbriiJtVroPUqT5C6Pfsa4piu1kbIZDjl6JHDUpybJ2teeE62fjFRcrZsVNKYH85Llvu5ebhsKyiUJbmF8tmhPNmr5TQqpx3VHVoUXlbKIUdYjFC63VwMWd0lqyQ/2MRzhNqNyr2VofkGyw+Wnt/+9rdyzTXX+LTyQBpR6t59910T24aFKRRSGQgjcwaChpWWciUknfGV6dMTt3ARRkgspI3xJfkIWXGxOtIu2ssrUGHRgDkOOeQFkUPBh0iy3XEPxZLJ9Xk5Fk/awot7KRBLJ23EXZH4YNwFsUaRlTjc95oljIHOjsD2x3KNRYzFNtyLif1mPjHHwiGWMPqHqiWM/uEUDXtVWsII+C00+U2XxDgZUiNVWmrG1MossQmJShBrSqtfXSFt1B3VZP8MIO7FweawPmDz9+yWzR9/KCufeVyOHC7WbKlVI+aMeo3prdtJY439rNOzt6S1bCVxuoIeEwSODp6lvUPOt2oc4/avvpRd30+RwkOVK/kN3qcLsvNknia7matuqVlV0B0VCwjxOCSPICkMSq435RrlGCvLXF2T1QAAQABJREFUM888Y9xbcAkKl7JT2rwM9nuUeaxON910k/zud78zroO+ko7gxgNBxtITqriVykAYHfyxoDkJZ3BNBUtIky8JF2F0rgk5o12QRpLzEDMIiXRizZz9Iu2dewlsuMcgFFhPII1YN8tDLGEMPcqMKXFjWKZ5XuI+i3Vx7dq1ZuHBWXAI/ZVFLGH0D1VLGP3DKRr2qtSEMV1XPBto8psLtSZjt9TEaBiPoNuYULO21GjbSTLOv0CtjGO9KqT+nLxAV/n3zptrLF6bJ3xQORLd+NNx3YdkOGSUTWuaofUa+0vLSy6TNFWE4lJS/TxD4LuRTIh40Z3Tp8jal5/XREM7Aj9JBB9xWEnQJK27ODM7X7ZqXwsqpT+D7wHIyMgwSvUtt9xiLEXeyCJnQPlhVfyPf/yjkA6eWJxwKjy+Wx3ct46lCasYFkZi3YgzcxMsAtOmTTMlNkIRL8N1KhNhhCBitb3++uvlxhtvNHF7xHr5knATRq7tWPogjiQ4uuCCC8wcZ2HEbX77anN5fIfLIq5jWKAgiyTecSyZ5XF9SxhDizLPRqzCxAeSLIU6msQs4lrMWIf72WkJo3/jaQmjfzhFw16VmjBSgTFdYxfP1cQ3PVMSpWacurQE4TYTDQOZltFamo0+SxoOHWbi8IJtc+62rSZ2cef3UyVz8fxgTxO9x+n8iE9Nl9QmTTVpUE+p23eg4tlHElTppfRGyEV/9MhIu2fOLFn55KOStWGdFOfnhfwyFXFCYhez9Af94/05MienQLL5ga+IhlTwNSkcftppp5myBB07dnRtDck/cI+j7AbKbLhib1wbEMIvUBLOO+88Uw8P65Ob4IZKn++9916TNRO3xLJKZSKMjivmyJEjTR1E3lmA8CXlQRid62M9J6tlp06dfnoxxyGOLBRgca5oYY6RXId5xn2FFWrDhg0m+U55ts0SxrKjzaIaJJHxZAyJV8S9eNmyZabOIl4KEMVwk0V6Ygmjf+NpCaN/OEXDXpWaMDIAiUoAhqclSm8ljG2SEytl8hvqB9bu1kM6XH+T1OrSVYvTNwxq7uEeeWjNalmptRf3Lpgr+Zl7gjpPZTgoJjZO4rRECSU3mpx+tlpv20uyprqPdXEnLGuf9y9drITxMcnU97w9O8t6uog4PlMT3GwrKJJPNXZxsSa9qYLGRWNtgThdeeWVxoWPZB1ugksVlo/nn3/eWELc9ouG7d26dZOhmhjl6quvNhYotzaj2GFZJL4T6wCKYFmlMhFGBwtId/fu3Y2rL3GDWBndLHnlSRid9tGWxo0bmwLrjHvv3r0NaSRBDS7YTkkEtzY75wnFO3OK2DWnlAfEAkLxySefGNJIIhQsUOUtljAGhjjjyDhhBebFAhoLSpR7gChC/nEtxmpMpspwx6CWbL0ljCUR8f6/JYzecYnGrZWeMJLqpn18rPRQwniyyZga3kQm5T0J+AEmdrF+v0HS6ZbbJbV5C4nV1OPBSL7+kGYuWiArn3pUDqxaIUeKoiedfzD99XmM4hqjLqqJmqwktVkLzTo7Sur16S81tYBwsPj6ul7W+h9l07gPNTvtNM1Mu8DXrlHz3ZrcApmblSsLC4plc3F4Eg9EMhhYh0jIgTvhrbfeahLfkMjETUh0QywfcX3lFVfl1paybsfqhKsilkOywvoiCps3b5ZXXnnFuJTNnDmzrJeuVC6pDhiQLgjZtddea4rSY9Fzs95VBGGknZBC4lcph8DCSBtNHEY7KbVCYhy24WLray44/Q32HZIBcSDTI6QCqyJZh3H1xoIPNhAP9itvsYTRf8Qd0o9bPotIWA43btxoyi4Qn0iCG6cUCzGM5eGCWrL1ljCWRMT7/5YwesclGrdWesIIPaQmY9fkBDm7dqrU02ypCfp/ZZFqagmr1aGzNDxpuLS+4ipJqlsv6K5lLlmsiVemy4b339SMnZuCPk9lOhDlJkYtjXW699JEOH2kXu++kt6qtaQ0aqxBj6GbR7n6o7jru+mybfIk2TFlclRDiCpWrArZ3Kw8+fxAjuw8fFQOVoCCVtEgOrXFxo4da2ovouD7SlhCsgbIIha3aCjw7AtfyhyQDZa4OzJ9umWF5RwoflgXec2YMcPXaf36jkQsxIuShMWNVHEi8KZ0CdYoLBiRLpCxESNG/JRoxi2ZEDFcECSs1WQBrQhyBHmEIOKaSvH1Vq1amfkAmcTqyCs9XV3/tU8sopR2b3gbG4gfVkRKKWB14p7B/ZT5RD03MIAssiABWaxowUX3zjvvNGVnfLUFgsQCChY02h3K8eP3jLEhw+3NN99s8PfVlvL4znEzhegzptyLWBIZV8YUDCCILKJBHBlP5nh5WxRLYkHc7iWXXGJijAMt61LyXJH0Pzg7z2IWXMoqeERQU5bnQIMGDcp6uog7nszmmzZtkrffftsk0Yq4BoawQZWeMIIVnWyXGC/n1UyWjMQEE8sYQgwr9FQxmh21+RnnSuMRp0r9gQMkPi096PZsGj9Otn4+SfbNnyUF+/cFfZ7KeCBuvymNmkjt7n2k+elnSqNhI46V3QgRaSxQJWf/8mWyefwHsklf0SyQxVyNNflWCeMHmTkmbrHq2RfFWFOI8SKmC0tLaUKxZKwiKEsV4TJXWvsC/R4yQAZNiKNbZljOiZLIjy5KPv0vq+C+SRkKiIgvgo6l4ocffjBYo7RGutAXEuBkZGQY660bYUThBk9cMYnvCiXhCAQjLOxmwU3fUaghi1gdSYSExbF169bSvHlzQywhj8wRf4U+YS2ETKCs0VdcEyGI9BmiwX3EuPKqKAw8+0P/qFHqK6aX/SG/CxcuNAQJ61kohfFg8QYizz3iNodCec3SzuUQf8aLMWXsmL+8850zfoyh5+fSzhvu77Gc40XB3Pa1IBbudoT6/IwB9xTEnBqDZRUSY/EbGOlZlIPtJ4sXWMIJKSEDc2WWKkEYGcBGWmKjn1oZu6cmSQd1T60MQlbP+NQ06XDD76XJKaO1AH2ToArOk6nzqMYKrHruadn08YeSt3u7UFTeyvEIkC2Veo21u3STuj16Sd3+AyWVLKpqgSyrtbEAd+ClS2TzhA9l8ycfHX/hKPsvS2strsnNl1ma6Ga61l8sf+evyAAMhRmFrGbNmj4zhTqtRUnih6ci3KucNoTyHSUK11SII59RVr0JlgKsfCgqoajFCElnJZtrMgZugkKK5cJRQt32i5Tt4IclDnKF8uVGhkONZyj6zzhg2cKyiKWNl6eVkTnCuEGquGcYO170kfFxXlgUHasiFigIFQSLuYNlkZdTrL2iLVAlcaM/DTUOnvHzJc4CCopoOCzfjAVt4B5xm0O+2hfq7xgnXjz36DvPAsijJ1kM9TVDcT4WQHiBoa/nTCiuVZ7nAHfnvmIOllW4r/kN5P735fFR1utU1PHco2DGsyfUCzwV1Se361YZwkiJjWax1WRI9RQZXENXnvV/d1XCDa7I2h6foj+w9RtKl9v/JI2GjzxWL9BFKfPV8mJ9KJCpc8XjD6mF68NjtReroAuhL4w8v0usWUfSW7SS5mPOlTrqopratJnEJiWXqV5j3u5dskez9239bIJs+3Ki5+Wi6jN2ml2FxTJNXVGXaKKbdVUwdjGqBsw21iIQAQigTGIRhsjwDmlEuYRkQSYgjLyjkPGCIEIs2GbFImARsAhYBMKPQJUhjCS/IWPqsPQkGVU9WWpoiY0kH6vP4Ye+7FdIa9Fa6nTrKa0uvUzq9uwVtJUrR83omeoOt+GDt2T3jKkR4b5TdnTCd4aYOFVkklNM6Y26fQZIs7PONfUaE3W1MVjJVheQrZMmyo5pX2sdzLIn/gi2HWU9Ll8Vu/WaGXWcuqKuV+JIKQ0rFgGLgEXAFwJYaLDUONYa/sei6lilcUfkBUF0XtFiGfbVb/udRcAiYBGIFgSqDGFkQOhsj+R4Gaguqbil1tUEONEs9fsPlmanj5H6/QdIWkZG0F3Zt3CBWhbHye7Z38uhtauCPk+VOlCVmdj4BE2A00bqDRisLqq9NYNqF3VZrR9wvcYj6tJwYMUyWffqS7Jv4TzJ3rIxaqHcrFbFZXkF8mVWvuxS62LkR4ZFLdS24RYBi4BFwCJgEbAIWATKBYEqRRhBtFFMNWmXECun1kqX1hrTGK3CymvG+RdLh9/8XpLq1JU4jQEJVrZP/kKWP/qQ5O7aLoVZB4I9TZU8zqyC68p44xGjpcmpZ2jpjb7qJqyZwHR8/BJdNS/KzpLds36QZQ//XbI3bRDqYUarfKeuqLOz82SlksWsI9a6GK3jaNttEbAIWAQsAhYBi4BFwEGgyhHGFO1x/dgYOVNrMnZVK2N1dU2NtljGWE2yklSnvhLGC6Xt/12n8XNJQcXPQUzIzrn184mm9iLEpUrXXnTuikDelRhyE6U0aSbprduqa3AfqaPWxjo9ekqMxuBU8+H2DP6HNX50xzdfyY6p32gNxqlSqElPjh6NPrtckRLfPE12M1EJ48zsfMmECFu+GMhMsvtaBCwCFgGLgEXAImARiEgEqhxhZBRS1Mo4IjVReuqrTXKixPtrDYqQIYxPTZe05i2lyajTpNnZY4Ju1eECrWGldY12TP1aNrz7hhw9HL2WraBBCOGBsRrXWKNdR6nXd4A01rIbuKfGa3awOM38R9wjpTkgiUc0o5ZJNJS5T3J3bJfN4z5Ud+AftJTJXv0+8uvBeYNsf/Fh2aaxi58dypMFeZoK3dtOdptFwCJgEbAIWAQsAhYBi0DUIVAlCWO89rqFWhl7KWE8tVaaEsjosjFS3iGtcQtJb9NW0tSqFaxQOiN362bJ2rBWYxdXR6VlK9i+h+M4rIlkS02qXVdStWZjnX4DpY4mI0pv2VpIiANxLMw6JHmayv+QFpXO1HjFzHmzJWfndik4kHnMFVUtc9Eoq3O1hMbBHFlZdFi22syo0TiEts0WAYuARcAiYBGwCFgEvCJQJQkj9DBNe94lKUFOq5kijRLiJF2tP9EiMZpsJbFGLYmvXkPi0qsH3eyjas0q3L9firK0QG72IVHGGPS57IE/I2CyqCYmS3q79pLWqrWkaExjnKaLj9VU8cV5WsLkwEFjWczesF6yN6wzbsBHojQ9/GGdM9RdnJ+TL5+rO2qmxi1m22n082SwnywCFgGLgEXAImARsAhEOQJVkjA6Y5YRHysnpSZI55QkyVDyaMUiYBEIDIE8LaOxOb9IZkIYNTOq5YqB4Wf3tghYBCwCFgGLgEXAIhDpCFRpwlhDYxmbxcXIydVTpF96ssRqLGN0OadG+vSy7avMCEAO9xUVy5SDubJI4xbXqTuqJYyVecRt3ywCFgGLgEXAImARqIoIVGnCSBXGREVgmJLFoelJpi5jcpTFM1bFSWv7HBkIZGmimw2a6GbigVxZp+/ZkdEs2wqLgEXAImARsAhYBCwCFoEQIlClCSOd59VR6zJ2T0yQPjVSpKHGM1qxCFgESkdgpbqhLtLXrLwi2aVxjDYzaumY2T0sAhYBi4BFwCJgEbAIRBsCVZowOoNVR11TiWccqYSxbXKCpGkCHICxYhGwCPwSAWou5mvs4nQtoTFLay6SFTXHJkz6JVB2i0XAImARsAhYBCwCFoFKgIAljDqIgFBDy2yMVrfUE1MSpLlaG4lntGIRsAj8EoEszei6u7DY1Fz8IafAWBZt7OIvcbJbLAIWAYuARcAiYBGwCFQGBCxh/N8oJilBbKVWxl4piTJMLY1JanWMsaSxMsxx24cQIgAx/DG/UL7XRDfLC4pls8YxWrIYQoDtqUKGQLX/Pb+PWut3yDC1J/oZAWd+OVvsPHOQsO8WAYtAZUTAEsb/jSrZUVNVweiSFC+nVk+WRonxUjMuemozVsbJafsUWQgUq+J9UAniIrUqfnEwR/ZqzcUcyxYja5CqcGtiNGFZUlKS1KpVSxo2bCgHDhyQzMxMyc7OlqKioiqMjO16KBFIS0uTGjVqSKNGjczc2rJlixQUFEhxcXFQl4F4cr7GjRtL7dq1hfNDPg8dOiS7d++WPXv2mM9BndweZBGwCFgEQoSAJYweQEIaG6trahdNgtNPS210Sk3y+NZ+tAhUbQRyNLHNkuw8mZ9bILO19mKRkkWb6KZqz4lI6n18fLw0adJEevbsKaNHj5aFCxfKzJkzZd26dVbhjqSBivK2tGnTRk488UQzx9asWSNvv/22WZjIyckJuGeQRRY6TjjhBDnnnHOkb9++0q5dOzmsbv/Lli2Tr776SqZNmybLly8P+Nz2AIuARcAiEEoELGEsgSZWxrrqjjqkepL0VsJYOy5OEvR/KxaBqowAZHEnNRcP5coKJYvbNdGNJYvlMyMSEhKM1axLly5GoSx5VZRLSBGv1atXS35+fsldKu3/kEQsMq1bt5aOHTv+9OrQoYOMHz/evMAEa6MVi0AwCDDHatasKRkZGdKpUydhbjmvb775Rh555BHZu3evsTYGen4s4hDEk08+WcaOHSutWrWSevXqyRFNKrZz505Zu3atvPXWW4Y4YmnEkmnFImARsAhUBAKWMLqg3j8lXvppPGOHlCSpoa6pWB+tWASqIgJ4nW7VOour8grkK82KuqnQxi2W5zxIT083ROj888+X66+//heXLiwslKlTp8oXX3wh48aNM9aOX+xUSTegyKNkDx8+XEaNGmUsNfXr1ze9ff755+WVV14xJNoSxko6AcqhWyxIdOvWTU466SQ59dRTpW3btsblmUtD5u6+++6gCSPz96yzzpIzzzzTvBITE3/Ro//85z/yzjvvyJIlS+TgwYO/+N5usAhYBCwC5YGAJYwuKNdX19S2iXEyShPgZGg8Y7K6jVixCFQ1BA5rLA1lNGZk5cn3WfkmyU2Wxi5aKT8EiMc7/fTTjULJe0nBwrh+/XqZPHmyPPTQQ7J9+/aSu1Ta/zt37iyXXnqp9OvXT/hMLJijdFvCWGmHvVw71rx5c/nDH/5gCGOzZs0kNTXVxMrSiLISRqyJ1157rbm/e/XqJVgzS8rHH39sLOXc31gdrVgELAIWgYpAwBJGF9TjdHtdJY0naamNrlqbsXVSgsmaCmBWLAJVBYEDmuRms1oXv1fL4lyNXcxXrni4qnQ+AvpJjBMxUzfeeKMMGzZMunbt+otWkSAjKyvLWBnvuece48YWTDzVL04cBRsgirfddpugbLdo0eK4FlvCeBwc9p8gEcBl9Mknn5QhQ4ZIcnLycWcJBWG84YYbDGHs3r27V8L4ySefCK/PPvtMduzYcdz17T8WAYuARaC8ELCE0QfSiYpOA7Us9ktLlDNqp0mCKm8xpmqjj4PsVxaBSoLAUS2YsTavUL7MzJF1RYdlp8bVWNti+Q5ubGyscYf717/+JX369JHq1at7bQCkcd68ecJ+c+fOlc2bN3vdr7JttISxso1o5PUnnISRrKiXXHKJnHHGGSaOkXjlkgIp/eijj+S7774zrq8lv7f/WwQsAhaB8kDAEkYfKOOEmqwItVeX1P4pCdJOYxobJfzSZcTHKexXFoGoRAA31E1ab3GJWhW/zy6QTCWLuZYtlvtYkvVzwIAB8qc//cm4XHpzWXMaRcbG9957z8Qy/vDDD87mSv1uCWOlHt6I6Fw4CSMWS+IjiY3EtRr3c2ImEeJucS9/+eWX5dNPP5WtW7dKbm5uRGBiG2ERsAhUPQQsYfRjzMmamoF7qsYzdtXMqUlqdbSJU/0Azu4SlQhAFg+pK+pMzYi6UC2Mq9S6SAkNK+WPAGn2TznlFLnqqqskIyPDZwN27dplrItYJCCOVaGQuCWMPqeE/TIECISTMFJSIyUlxSwKXXHFFcb9nKRN3Lvbtm2TpUuXyvvvv2+si2ROrQr3dAiGzJ7CImARCAMCljD6AWqCopSsrqj91MrYQ19tNXNqmhJIKxaByojArsIiWa/WxWlqWVxbWCw5muTGltComJG+6KKL5LzzzjMJN0iQ4Skoj8Q4OpKXl2cKfT/77LPy+OOPm0LiKJmVWSxhrMyjGxl9Cydh5P7F7ZxsqU2bNhWS6tStW9fcu5Tq2LJli7Ey7t+/35LFyJgOthUWgSqLgCWMAQx9q/hY6aSZU/umJ0vjhDhJ1we9FYtAZUGgWAlIrtZbXK7lMxbkFMiKgmLZo/9bKX8EsDzEaQ1YsjPiqtayZUuTnZGWFBcXC+QQlzWsE3Xq1DENhBxSYuOFF14whBGLY2VPfmMJY/nPzap2xXASRk8sIY8QR8rocI/jfkoZDWtV9ETJfrYIWAQqCgFLGANAHptig7gYGaFJcLokJ0pLfVmxCFQWBLKVHO5QwjFFy2dgXSQbqqWLFTO6JL8gvumf//yncUcldhESiWRnZxtL4sqVK4UYxxNPPPG4RlKL8dVXX5X58+dX+hIbljAeN/T2nzAgUF6EkaZ7egzwvyWLoGDFImARiAQELGEMcBRSNHixeVyscU3tn5Yk1fWzrdEYIIh294hCgPBELIsbtHzGzOw8Wa2WxS0at2jDFitumBo1aiQdOnSQm266yRT2RpHkhQJJcpsVK1bI4sWLhVT8Z5999nENnTNnjkl888EHH8iyZcuO+y6YfyCvvDxJK+fBollUVGSsmlg2AxGsp24JfDgnFpaSguteUlKSOY7PSM+ePeV3v/udSRyCO5+nvPbaa6ZO3rp16+TQoUOeX5nPXKegoMBci1qWgQptqFWrluAq3KBBA5OsBJLPds7HubEC79u3z5RDgOgHipNnm1gwoM6kUwfQk1xwXs6PRZnPjBftAhMycZJdl22MGe3CxXH37t3G5ZGSLG7t4hpYvEjGQmwd1mys2pyLfnIuLGGcD4s2cXdYv8E2lMK40wf6Aua0CayZQ85coA/0n/7QlszMTPM5kLF1Ygo953rr1q3lwQcflP79+/+irAb32D/+8Q9zLW/WfMcbgHc393CuCZ7g6jmmDlnkvOBcVgE/sGOu8s48op9ck/Mzf5ivlO5gzrLNrc3+tIV6qIwRY8f97gjnZKyYJ04SH/qPKy5zjJczxxz82I8alHv27DFWV2/PB+f89t0iYBEIDwKWMAaIK4Cxzt85KV6GqKWxldZnbBAfJ3EodAGey+5uEahoBLAgFmqM4haNWyQj6jdqXTyg5PGX6npFt7RqXb9Lly4yevRoOffcc01Reqf3KFtTpkyR77//XhYsWCAjR44U6rihdDrKJnFPixYtkkcffdTsF4jC7FzHeeeckFeUTMgCip0j+fn5Js0/ihzkwx/hfLQVpbBVq1Y/WU2dY1GSIXjeCpRDEqi1CGlwMkm2b9/exHi2bdvWnNM5D++ff/65fPXVVya7pDdlHkJB5knIjrfvPc/lfEbxRQGGuNEOCBltysjI+InIsA8KLecEF0jUjz/+aBRx4tIgr3xHXx1S4Jzf1zvYY+2ikDzj4RAljqEvlFJB0UcZZ8wgOp06dTKfGTuUd0cBh1Bt2rTJLDwwX8AbouUQE67F/k4fuS59bNy4sSFuDglA6ac/HL9hwwazmAHhoN9sD4Y4Mkd4QRoYZ4gN7Ye00i/eaRfzAVLikBHmIy6cYEDf6JdDfthOW0q7F+gXcwqy7ZAprPjXXXedcE9yPU/hXnz99ddNX7l+SeG64AIRc8iR5z70E6zpE9d1+sI+3Ou88CSgL4EK56a9YIirK2PHfM3QceR6zGG+5350SD/jxv0HfsxV2k0fnLYE0gbuca4Jfs79yvGMA+d2FhgcEku7eHE/QW4ZC2cRgDasX7/+p3HleO5b5jNts2IRsAiEH4FqeglrSAgQZ0BLV0tjfU18c3J1TYut5TZqxcVKfDW+sWIRiB4E8vTHdr9mRP32UJ4s1oyoO/QzGVHtQ6Fix/Dkk0+W3/72t8aCSPyiIyhHKKik2YcUjh07Vu6+++7jVvFR4iFCbIc0QU6CVapQOkn5P2zYMCFjK4qnI5CE2bNnG1I2ffp0Z7PPd5RTFEHI8B133GGUcs8DIFAPPPCAjB8/3nOz+QwpJAlQjx49DBliI6QCywTkxpPM8h0kipebpYS6lRMmTDA4oiD7Iyi3bdq0kcGDB8ugQYOMMgwm9MmxdoEZ/YCcoBxDJCBja9euNbUywWr58uVmeyDjghLNAgJzA8uyZ3+xOkNeIEtgMWrUKIORQwogIhBM2sU1UcQhCZA6xvDbb78VLNMOMYFQgDf1AbHioviDNQSD8zgLFJyLfoIx8w4rFfUCedFPFPtAhXODJQSNsaavkF/aBM7028HaaQfXoB2emIMFRJ120D+sU7TPl0DEb775ZpO1FOw4P32GqEJc+d9TIFTcB1zX21jiCYCle8mSJWbhwPNYPoMl84eFn9///vfmGs4+zB1wfeSRRwQ380CFMc/IyDD4DR8+3MxbxtHBkO+d/tB2rscLjCBzLEhRngf8mCvOYoK/7aBuLHN16NChZpHDOY7z8+zCZZ57kL5zP9E2hyjSNs/7CGLIfcSYQhy/+eYbmTx5srm/mXdWLAIWgfAjAMOxumEQOPOzQUXGE5MTlDAmSFdIoz78E2y9jSDQtIeUNwKsyRapZXGjuqGu0CQ383MLZZNmRMWx0D4Qyns0fr4eChwK3TnnnCN/+ctfjKKK4oqg7KPQ/etf/zKp9iE57HfrrbcahQwy4+wHUXr44Yflk08+MUozBCEYoT0XXnihuQ5KJ5YeRyAXKG4UFZ84caKz2ec754N4kMjniSeeMMq45wEortdee6289NJLnpvN565du8qNN95olEssZ2WVadOmyasa64lSDOHyJSiwkJbOnTsb4gyJgtCg7EMofIlDHrF2QRohZnPnzjUKORYdb5Ynb+fjWldffbUhcdTm9Lzuxo0bZdasWYa4MF969epliDTtdhOnXfQdxf2zzz4zLsy0B6J20kknycCBA02/seY55MLX+Rg/yDB95Hy4TaPgByKQNsYaF9DevXsb4upYxCAR/gpEAjIHWYMUz5gxQ1atWmVIBgTEm5CplLhhStlgxSytz97O4bkNUoSln7HB0lhSGB/uqfPPP9+4vYKzI9yz9IH729v94Ozn7R28mK+QNjBkvoKr8yzxdoyzjTFkgQOyzfgxV+kHc5ftbtg5xzvvkMUzzzzTvFhkcYQFLMqFMC9Y2KKN3Eu0jYUAXwIeEH/mF0SWhQnaxXbabcUiYBEIHwKWMJYRW1SF1pox9axaKdIyMcFYGst4Snu4RSDsCFBrMUutiVOz8uSLg7mSqywxOEoR9qZWqQugMOEOd8kllxgF0lPhR1FzFMg333zTrPhD4n71q18Zaxcuno6wik/9NiyRuGWipAUjljAeS0SCdemCCy4wZA2LiKeLXaC4YiVZuHChPPXUU0YRx2XVH/FFGLEUYhXC2uosHPhzTmcfrDcQf4gVJIu4WBYKsIAFQtKc89EWFhM+/vhjc17Iqb8CwcEFFLJKHG9ZBesf9wPlZlhAgUC6kfTKQBgZLyx2kDUsxGXBEJxwB33mmWeM1R/S64ZdyXFyI4wQYRZPmFu4rfKMC5SY8xzkHCyKsTCxfft2v4lsyXba/y0CFgH/ELCE0T+cXPci9UINdU2FNFKjsUdqkqTq/wkBrIS6ntx+YREIAwL5uhK7Xa2J87V0xnKtt7hOk9yw3m7XZ8MAdoCnxCUL109cD6+55hqjVDmnYGWdVX8sjFj0UISxxOAuisUOq5IjuI9hNWK/5557zsQiOd8F8m4JoxiFGysICjhkBte50iwhvjBmbLAs4vI3adIk424IoSnN5c8XYcTyjBKN1dHT8uirHZ7fsRgBGYDosbiAGzRWIchHMISRtqDE40rJ/GPuYp3yRzIyMmTIkCHG/RjX5bIKZBWSAlHEjfHFF180bfNmdY92wsiCwQknnGDcyHElJ97VH6uiG8bMCwc7LHrvvfeeiXFkgaI0cSOMWAIhncwr3KeDmWO0i3sGLwHuIZIPQWwDWZgorf32e4uAReB4BCxhPB6PoP7DPTVRkeym7qkDNHNqi4R4qaM1G4lpBGArFoFIQEA9UDU+8ahsLSySlRqv+J0muNmlVsbcSGicbYNBALexiy++WE477TTBeui58o47HS5YxEThXocQW4V75u233y4jRoww+6OAQSZR/olhvO+++4zVCFIRqEQSYcRSctVVVxlCTRIWBOKGtY93LBaeglLKC+XSmyI5c+ZMowBDrL25TWL5QKFF8ca6CJEvmYmV66FQQ7K4FqSPa9EWYu1oGy64JS11jA/7Q+ghMCQ2wWLiS3wRRs/j6C8KPS9IGtdy2oSlFLdHJ1bM8zj2Q5nnRXsd6zb94zy86Cf7Mcf4nnPx4rzO/p7nZP49//zzxqJKUh5/hLZB3EjmdPnllxsXbQcvMMMaSpvoJ9sR2gPetIPjefckzvSfscH9mIynkEdIe0nhfvrTn/4kQ4cONZZa5j/94pycn+t4CsQYXMDM2xzjOhBmFge89Z9zh8IllXbR344dO5q4Zp4dLHKUFNoJ0QJH2s7/DnbMU+YrbfJ87nAOsGOOMlchabgde+uv5/XcCKPnPnxmLGkPhI93nlO0iTnI/Qf2kF5v9xDPOBYBGFNc5OmTFYuARSA8CFjCGAJcAZFXdRLhaPKbYelJ0kVjGmvrZ7KnWrEIRAICJLg5qATxG01ws0gzou4+rEqUKlLWshgJo3OsDRkZGUZhReHDyuOpoJIZ9e233zbJTSCPCEoiLqzEXY0ZM8Yo1yh7KHMoXiRCuffee02MHnGNgUokEUZIBO6gZJMk8yKCRQXCjNINSfAUYpuwyKKIeiPLYIjVhP1wwywpKKrEgWG9haiiTEMaPAWcsZ6R3ATSiXspJIa2MC5YgLHU8b8noeI4lHUyUhKP9cILL5iMtr6UcH8JI/0l7gy3V2LQIDSQK4gdRJu6ncS0kY3SU0pe25l7KOUQHxKVrF692pBG5gXn41y8ICreLFkch2vqu+++a/rpeT23zxADcCZe84orrjDthAgwXownsbtgTj8hsLSb+4A5wFzACsziAnF8ngLetB8r2ZdffmniCj2/5zNxiywOMG70DwyYB5wT90na5ilYZcEFQgXGJYXvcZmk3bS5pISKMDIe3B9DlejecsstP8WdlrweOEL8mPPMV8gafWKuMk+7detm5jlx1J4Cxjw/KNPzzjvvGOIIniXnjOcx/hJG5hdtgczzDk60Cdx5HuI5Qb1V2uRp2efa3Ncs/Dz22GNmvjtJmzzbYT9bBCwCoUEANuN/cEForllpz8JPSaL+wHTRkhtd1NrIq7ZaGlP0YW7FIlBRCBzWH9Z8NS+aBDfqgrrYJripqKHweV0UVJI/3HPPPSZLI/8jKEa8yOhJxkRIhmMdQaGFyPzxj3805SVQsDwtKySrwMID2URRDFQiiTCiQBKnCUl0sIEAkfgHYofS6ylYHiAruEZCLEoKGTwhHyjCWF1KClgSy4crKgTeU1CWsYZAyiBFJPHgOpyL7xgDCBTthbw4BI22ewpWQI57/PHHjWsdyrM3cssx/hBGCApKPXGrvG/UZDiQBEgs1hosaGCF1RSLKaTRc754to12cD76SJZRSAaEGAsf84LzgRFzlqyskDXO7xBNzkV/SKrDggbWRl8Ew/PafMYtlThGYjLBmr5A7B2yyDaIGgLxYk5AmsjuysICRAP3Yc/+gTUEg4UXb5lH6ROJjSCHjkWRc/z61782/Su5YMCCA+diHMGlpJBFFdzcSreEijBCpBgDYhZJoAN5dsYBzBl/7n8WEJirjCtjA8llLLm3WIRhbjBXWQBgrnpiB7mkP7h//uc//zFzgf/dpDTCyPhxv4AhZJH20SawdOYX48B4MJbMBUgt3zl949os1jiLAMTgWrEIWATCg4AljGHAlbx0LTWmcZRaGttoncaG+jmmmnVPDQPU9pSlIMBqEJbFPRqzODMnXyardbEA19RSjrNflz8CKN9kv7zzzjtNHJLTAggIyhquqJSigAB4kgpW3rGCQW6GqoXBIVMcj2IIeSChCQQqUEE5i5Qsqd7ajuXhtttuMwplSYsZRPmVV14xViVfiq2389JvlNS//vWvJmMoRMhTIAeQp6efftrgCinyZmGCgEAasZShQJN9FGXXU+FlLP/73/8aAoNlEIugNymNMEIMSOrCwgIWNMiRN4GkECN71llnmfImWNW8Ce3gfCRO4oWC703AhsRLuFGTWdWzb2ACGb/pppuMZQri4i9ppL/MZbBmzjvWRG9t8NyGdYr2YHGHdHomAYKMsEgA4eHlj7Ao8eSTT5pzMZ6e8tZbb5nyNSw+eFt08NzX2+dQEEbwxp2U++C8884zhNnTQsj8Ar833njDvJirENiSAhmmfzxLwI5yJswNz/HkGBYPIMm4prJ45SalEUbmJ4sauOzims1c8TY3aAP39l133SWnn376T14UznU5D0SRRGDeFgGc/ey7RcAiUDYELGEsG35ej8aemKbuqU3UutiVshvJ8dJI4xrTSrizeD3YbrQIhBCBfUXFsrmwSOblFMpaLaGxtUjjlPT81g01hCCH6FQo2yjd1FbEHdURFGVctXAFw8KI0g2JdATrAkSTY3Gd9LS0oRjiDkeGyFe1hIQ3hcw5j7f3qkgYUZBxZ2Q8iGfDqlGSKEDssF5CpIjncuLYSmLouNZBOrD+4GYJEULBd4TxxMry/+3da6ysVbUm4BI27L0BN3DAI7L1uE63itj0SdpLOnZIJCZGE2OMMSb8UUmISgxGvCSoeEFQYuSHxtsfDV5iNBq8/NFgYoSE2HYbm1aJnraxFUFA5OCF274A2uP5NpMzKatqVS3WxrWq3hE+6rK+mjW/d86v9njnO8aYQhftsdnU4/b39jiLMCIFiBWlkuNsu4JpBM+YUuHkvMp9VRhlnBRoT07lhz/84dFVV101kKxJhFjfKNxURvPWXoKuuZl5SgWkgJu/bbP19vdZjwiMuQ0f3z3t+8fbcH3CZG2N8cY3vnFQHds5iBNyZ0sX213MY1udMCLVSLt9V6nhXvdjQJm95pprBgXbI9JsAWrc4OZz5oYtTcxV6t54qDHCiaBZkGm51ONteb0eYRT1YLsQW45os/9N69ujclJA9ccih7DZPvzcnPL7aAFg0e1H+u/J8yAQBGYjEMI4G58N/xWwjmeUuvgvu3eMTt+9c7S3SOOe+kEuLhkLAocVgQN/+evonnK0frm/9lmsMNQfVRjqHx6sTbYP67em8Y0iwGF/9atfPWynISSsD10Ugmc13+o5p3vcOHqKsQjDQ3A8p1wwjiHC+ZGPfGRQw6ggyMC8pu1VUxg5zQiHCp0IR68uIi/wk5NH8aWQrLc5vbE1HkIG7SOJXPXFczjKCB4C+oEPfGAgZ75n3GYRRoRVuOZll102qEjanLU4QIE688wzh4q7wg/HCTEnXL6fvUCRjFlkDV5IY9sKBhnuc83gdemllw5hgwq/TArdHL/WR/Ma3lQphF9FYYS/metApBHhD37wg+3tmY9bnTCaS3Iu7deoYnIz4w975M6CkUUOi0frmbkKM3MV6UMae6PWyxVUTMuCie+YNNemEca2iGDLFQq+MNT11FnzSRg1QkwdF3LbzHwyXy2mWTDRl0n9aefnMQgEgY0hEMK4Mdzm/tSu+sdLMZz/smtHKY07R//5uN2jnWGMc+OXEzeGwO9KVbyhCtv8z6qG+n9q24z75LFUKGoSljeG5+H8FAeX0y3kyv5z47lDQuiog8IM5V+Nm89TY+y9plqgnDkOPOM4cdCuuOKKoVBFy6cab2Pa61UkjJxTjqmDotGHbHJO5V3ZQ1E4qtezyFTD1RghZkiMkD/5WL1R4ag1FD+5XJSwcZtFGBFO+WlUH+F96znMxtXChHxZj+MFYig+lB/XqIrsrPZcm/Y48pdccslAsHtVCj4ceblv1NhJ+aTj1/poXxtD94P9A90Pzdr9gCy69nlsqxNGYc4WIxTrEUbazKKDuUohvrgKXwmhbjmf7ZxJj8bTb5C5akxVbe5NuxYoLE5deeWVU1XjaYTRIhaSaJ9Y/ULg/UbNMr+PSDHSKLy5X8TxWX2yWGJcPV+vvVnflb8FgSAwGYEQxsm4bOq7OwrlvbU3438otfGMIo3/XEVxnpS8xk3FOI0dIoP7SkX8bYWe3lCq4s9KXfxNhaD+W70Xorh1Z4gQMg47hcA2AkKwOOCMs41AcIYQimlVADl5VLELLrhgCCcTVtYbp5FCKY8RAZ3XVpEwIt+KnMjjUhjG+DSj9lIVhb7JX1vEqCLCPy+66KKhUA9sjRtDZBQo4kB7nFS1dRZhlEsmrFWf5JjNY/brk/cmnFmxk970geIpvFWRlHlMfpn8W3OvJ6DmsDw1ebTaRTbmNRhRLOUh2nJGaKLxcI8gEe0+QRKQIWRU+3feeedQpIaSOH4v+G5KLvV0HtvqhJGqiNSdVfnLvZqKmBk7KqAFDuRxXqM4yxuUCyqcuJ+r2rBQQr1FGM09r8dtGmFEEC1IWECgCk4Kjx1vy/crPoQYI/ruo3GzWOZ3ct5FnPHP53UQCAKzEQhhnI3Ppv71+HIOnlrE8fl7do2eXUqj6qlHl9p4yGXY1K9KYyuEADLoOFArrYrb/I+77htdX6TxF/fPXrVdIYi29KWq7EjlOffccwdVq+8sB1goGUdctUrhX9NMcRUVQ+XKcdZ6o+wgFBQoVT1nKUb95zhqqxaSioxwklWb5ID3BUTkSqn2+c1vfnP03e9+t4dq3ecIjoPads455zxiYcCHEVGKnnGySDBuswijSpH6ZVFAxcl5TFVTIbeUJGGyvckvsyG6sEGhqfOYnMjzzz9/WLjoCxAhjBRubVHIbYcxy5piibjLVVMpE6EVGin8shFH4yR80lx2X2gXoZd7qc9yeW0xMYlcLBNhdM/bs5IC1ytviJk5oXAR7Bch6saASisn2pYVxqKFuRs75NyejNoV8joppHQaYdQPqrUFBMWeZv2mtXmiPxYKkGP96XO82zmXX375EGo8LUeznZfHIBAENoZACOPGcNvQp44qtI8pevjkKobzH3ceNXrOsTtHT9m5Y3RsOREhjRuCNB8qBO4vh2l/kcWf3ntgdH2Fof76YKmK9fruymOMbX0EFHEQTmb1XGXO3uw9d03lkCEZwklnhVoJI+M0IiOUyt6oC0gjBQsZmJZ31H/G81UkjAii0DZEGVnhODeDoQqRKs8i8osYp9chbFO+KuKD9DRDcj5XoceUvUltzyKMyKZQVBVShZLOY0I1Kamc8D6U0WeR1tYeNWgeo3C9/vWvHzaM7xVLhFGFTuTi2muvHbZmmNUeTIS02nheFVwKHyLkPcqX8TEmverlvjCnERkKE1KiHZ/tCwy1710mwih3tBUv6sOnkTiKM8LoNwSBXMTave83w1ztw4ypgrayMN8snExaBJhGGBE6c9R8oNTPSxiNp7lKLbU4Nm7ytCmWfusmKZ7j5+d1EAgCiyEQwrgYXptytsLcJ5XS+NwijKdVeOpTqhjO43fUvla1mh8LAvMigA/eV47SneWQ3VIk8braNuPn+2ql3Yr7vI3kvL8bAsgDp4xj9da3vnUge9TG3oSQctwpR3KQZhlnGmk877zzhmqVHKymCnDaW6EKbcohmkU+2/c0p5GKYS/CvtiE9pAbSoE+zmPa48DL41OpUh970yekY95qh4djWw2EBEEX5kfhogo2o/IKr0S6qXobMVujcPKpl321RwVJ5HVRhRCrcZtFGFvoofDDeQnjaaedNihIxnV8oUKRJWOKbMxLGG1hoZKlENc+DFS4KOKCXFx99dUTt3Rwre4Hc4OKKLya8qlaJzVJKOpm2jIRRpgLr3Xvt9xlWCFm5qoxFAq8ERJlqx5k1FxFGpsheeaatj1OCnedRRip4AijbW/mIYy+12+ZNlVD7RckWp/cs9RHRagm5QC38/IYBILAxhAIYdwYbo/qU0DfUccxFY76tMpl/K/HHD16RuU2nlqqYywIzIuASqi/PXBw9JN9B0b//Z4Doz/W6/vqEIgabXFeFP9+5yFPyAkyJh9ICN04gRKypSInorLeXoIcbuQG4UJAOXjNgRS2x5H69Kc/PWzf8MMf/nAuR20VCSPirVgKUicUD67NKH8cU2F481ScbJ/rH9/0pjcNirIcwp4I3XjjjQ874JPCXbc6YVRkRgijgj6UvWYIoznc1CgVLScZQoAsCm0VYuk5fLxvHm6mLRNhdL9TrSmAfk+aUf2obkidxY15Ct60z7ZHlYKFGYtcMB7NkDxzFFm0yCFndNw2mzC6D88qFdtvYp+r2b43hLEhkccgcHgQCGE8PLjO1ap16xNLaXxKhagijsJU10px3LPjyNGOzkmZq7GctBIIIIJ/Kef/lspR/E0dv6ycxV/V8Zs67q8//m0x/pWAZVteJHJopVxxFaoTcjfuGFNkkDt7882rEFBlOGvC05CfZhQHiiAHkgM/T3urShhtQ4AwCn3sCaOxoGIgjvIZN2LyBltFy54wKkbUFBshr+O2DITR/JukRplnCI+qnPYTNX/lrDWFvGFh4YNaLtySiiQ00hgh9siSe8rz9WyZCKPKyrYtgdc4YbTXpDkltH0jhLHtZSlsvs9LbYSRCo0wTtpaZrMJozHVZgjjerM7fw8ChweBEMbDg+vCre59SG18/p7dldd4aL9G1VWPDHFcGMtl/ACi+GA5S1TFeyts73/fvX/04wpB/WVVQP1zvRfbfgggC8IBbd1w9tlnP8LZa1eDKFJk5gkfbZ9BPFu+V59/x2GkiinYonqkPK/12l1VwkhhFJKKgPSEEVFEGBHHjRJG+9shjMIue8JIYaTCccKXVWGcRhgtbFCwVMBEUlRF7RdPEBQEsVVBdV9Q0LxGkoT2whJpciCNxk6IK9W9H0P3yTIRxte97nUPK4z9AlFTGM0pRZQeDWE0V/viQcajhcurdvpYKIzGLYQRCrEg8PdBIITx74P733zrrhqJPbXKekrlMj6jVMZ/2X306JTKbTyh1MZYEEAW77z/gdGvS1X8yX0HRzcffHB0e4V63VvvUxZj2w8BIaicPYqKAh89uWtXw8njnM1b1dTnqDLaGneUkUPKDEIi58nWDesVwthswqhPnHjq3VbOYUQKEUbkQ5+bXXfddUO4qhwsqs1GTLiwtvv9MrWDzHO+5TAqOjNuy6wwrq2tDZWC7bEnL9X87Uke9VUYsFw85Ida7t4Q7mqOGiOfsVgCJ8q9MMozzzxzyO0bVyqXiTCec845o3e/+91DgSbztRmMKOUI449//OO5IgraZ9ujisvmq7naV2Cl7ApHbXmMk8KMozA2FPMYBJYDgRDGLTSOsjR21ojsLZJ4epHGfy6l8ckVqnryUTuqIE7lJ0Vt3EKjdfi7ggcKP/3TAw+O7qj9FG+qsNNfFmH82b6Do7tKVTxw+LuQbzhMCHBu2558L3rRi4Y9xnpF5TB97UA8r6mKiXImVdZcr5COPtleQp6lKq590RubxbeiNxzHeYxjTwlCGJGy8fDBrVL0ZlqVVJh9/vOfH/Y6RB4XNSTove9977C/nQJHfQih4jLapi5SMMdtmQmj/S7NL5VpbZ/RzGIJNREelHG5vPb9QxYnqeNURaRRoRy5lKrAqqhpkaK3ZSKM7iX7aQoZ7aukiiD4whe+MISkKtK03uJQj4/n5qp733zdu3fvoPq2c1qVVGPiN2DRKqkbKXrju6MwthHIYxB47BEIYXzsMZ/5jQakuGEVxXncaK3yG59Z2278t+N3D2pjqqjOhG7p/khVPFjHT+/ZP7qujv9bpPGOIooP1HvIZITF7TvkSNPpp58+stm06pK9inW4r8o+jJSsq666atgPbdb3IYzIorBZSihVtBmyiXxqi4oxjyHKSCeF7UMf+tCWJIxIB8XmVa961Whtbe0RhYiQlZZn6NoXMQ64QyESxWFauGRrw5YdKkCqUIqYjtsyE0ZKljmhcE5fXAXpaRVb5d0KQaUqTlPcG8bup+c973lD6KktQ2DX2zIRxle+8pVDYRq/J30lU1j1KuCkvRJ7TPrnDUfqpTxIc7Vf3EHYVTJW6VRV3kltR2HsEc3zILD9EQhh3MJjuKeci5MrRPWppTI+tYjjWhXHeVKpjidUyJmBiy0nAoji7yv89JZSFG+sQ3EbIaiqoO6rv8W2PwKcO+FyCqDID+qNcuJQ3OPRGLLn4DxzAJshekL7OHzIzyzzOc68A3G0L2Ezyo+cPlsmfPnLX25vz3ykqFFC5PAhZb0T6oNbQWHUJ+OiAMuzn/3sR2x9IYzXNdtXEFFexOSVnnLKKUOeHuVGmGQ/LhRLREb71NtxW2bCiJwj0cgdjJoppkIl+9a3vjVsNUJxnNcQRgsyxlBOZG/LRBgps/b1tJ1Jvz8hUvejH/1oII0KxUwKG+0x6Z+7T42Ddt2n5qrfkmYKZsmDvvLKK4f9YScV0AphbGjlMQgsBwIhjFt8HP1E24Ljn446YvSfijQ+85hdQ1GcY+vH++iSIo/qHMEtfinp3gwEbIVBOdxfROHuKmTzy9oq41/3Hxxdv++BoajNwRmfzZ+2HwKcPARM2fq1tbWHLwBJlHvEuXNMU1Ie/sCUJ4gI4oNknHrqqYPD106lPNxxxx2Dw3fFFVcMOZKTwvucrx3bHLz0pS8dwgV7Z942Hzab14btOubpq+IkKi5SRWwvQXHsbSsQRn1C6KiqL3nJSx6hTlG8EG5KoGsWmkfxmsfk1clVlbfKme4NERKmd+GFF44ojZMUm2UmjPbltD3Es571rCHnsGGDoNuMnRouZ3RerM1bhJGKvewKoznl/vR7YquWZn5LzFU5sZdddtmQszwv4Uaw5ZK6D+zz2JsxMD8RSYsmCt5MWtwKYexRy/MgsP0RCGHcBmOINO6qfwAfXwTxCaU4/lPlNJ6xu3KgSm38xyqME9v+CCCKitr8ovITf7bv/tHv6h/lPzz419HdlKYSFRHK2PIgcO655w7EwX51vfqBhCl48v3vf384phG59ZCgKspnksfFEe9D8jh8iI7QSCrjrOI3HG8OKYKrHXl3zSgYSO3HP/7x0eWXXz448+v1V5+QMGQMaRwvRrKZhBGh+9znPjcUSVlEXYEdZ1kIrnHqw/w4xi0cj2pz8803DwS/YTLtEY5nnXXWkFMnX6/feBzRRuC/973vDfliqq9OIkbLTBjl4SHS8hf7sOfbb799KI6E9AjTnURMJmGO9BtDubqK38hr7G2ZFEaq4nOf+9yR6rvC25uZV5S/a6+9dlgcgh8857G1WsSS/+m+R7x7s2hy2223DYRRhILfkkmLRSGMPWp5HgS2PwIhjNtsDO2qdlLlNj5tV4WpFlncW+GqJ1WRnBOKSB57xJFD/uM2u6SV7a78xH2lJt5ZRW1+X/mJtxRh/H/77x/96kDtM1Z/i6q4fFOD6kdlUw3S5uRIgJy5ZrfeeuvoM5/5zKCoqAq5HgFrnxt/FD4mBJLDd/HFFw8FdsYLfwgl/dKXvjSEQCIskwzRsUm27T/sFamYSDN94ywq1PKJT3xiIE+Til+08127/DSOqEI/lJ8+zM15m0kY9UvoqAqRk8r+t36NP+qTfr7whS8cveMd7xhxnvW9N4U+OMsK1KhuOs1p9hlbHShwJKwX6UZAjU0z5FA4KhWNcskZn2TLTBiFpJ5T+XLCR3sV256NchdV9oU5nGcZso8sIp7Gz1ybNH6LEkaLKy94wQseEZ6sH/p2ySWXDGNmsWdRs2Aip5eSJ3y2r3LqWm0l8ra3vW1Y2JnWtgUnYd7vfOc7h0UO93l/X1FmFaexDYZ8Q+1OWpBo7Zv7CKi5ajz6MHTn/PrXvx7mq4Ui+aXTLIRxGjJ5PwhsTwRCGLfhuBk0x4mlOD6pjucct3N0+u6doyfvOnp09OP8JbYdEPhzEcXbKxTtf9Weij8vonhzKYr7iyimoM12GL2N9RFRQB4QRuoVQtYb8p/Z0JQAABWkSURBVHHRRReNrqmCKnIEJ63c9+fPeq5teZLaE6rWl8X3OZUTKTdf+cpXBtIzrS2qIOWCWkMRHbdWKdVm84rCTDOE54wzzhgILPUHcR63zSSMnHkHJ3leZaX1hyP//Oc/f3Di9bkneM5BZITjCpfkNFMwp5F7BJGi+rKXvWwIHTQu/bgLEzQGCgchoNOIxzITRtgoemO+9kVvhE/L6UR4KLoI1Cyz+IJ0nXfeeaOXv/zlQ2GpSfNsEcL49Kc/fSj8gjD2+2bqx9e//vVBvaMKT1t0mdXfzSCM5pJrvLgWhhBv93kf6g1DvyUU989+9rPD/JqUc9j6KbzVeFjgEM7ez1Xn+N1w3d/5zndGP//5z9vH/uYxhPFvIMkbQWBbI8BbSRWNbTqEdIlj6h+Lf6xiOE+s49RSGp9SiuPeynU8sZ6nqurWG9i7iiRSFG+qQja3lKp4az23ZcYfHqg98ooszpcNtfWuKz2aD4G1tbUhNFHRF/mLvSEhtg249NJLh20E1nOO+89Oe47syA+Th0g16M3edsiU4hVUuGmEhxP+nOc8Z3BIKQ791hraU6DF3ngKk/zgBz8YimBwUikZTenkxCKJCAFHUmjreDiqthYljMLl3vzmN4+EeVJCe9MXJBYZu+GGG4ZcTUohpx9p5whTRDnT8kZ78zdEQagklRZ57K2F48LPlg+KiwhP1RYC6HuQTPvXydlU/VN+HiWoN447sknBQhiNibYn2TITRvi6HyhtCkI1gyUiBuO2n6BFFfdGC09FjpBE2JrvlGth1Keddtqg4E+aZ4sQRvNKDuBZFVJ88sknP4JAmWPy+BB95Mn8NfZCYN3rnrs/jPGkvNTNIIywco++4hWvGBYm4GiuNIOTeea3xXw1V23hIpqhzTX3BPxaMS73lXukJ9vasTXH1772tUEJR5JnKfchjG0E8hgElgOBEMblGMfR7hrJk8rJeVrt3/iMym/cW+Gq/zCQxsdV/uMRo6NKiTTYsccWgb/UesyBqm66X4XTOm6vsNObiyz+630HRzcXWfx9vRdbHQQ4s6pBUiv6AhUQQLrkL37sYx+buXK/CFqImeqJSCOVqzdONydX8QqqwSSHtp3P+T7//PMHp5lT3hsVVFvXlCqqcIsKrBxkTqoQQTlpLaxVX4TQcaQn2aKEUYXZN7zhDQMh6/fv0zYCd/311w+EUVie/gjX4/Qjb0iiAjPIpDzOcUOMkT3knvoltLRXbvQVMfZ5KiPF0Xdywp3r84gsog6/cXUKbpx2Y/DRj350IB0I0jRVeZkJo/kBK9VpkT3zple24CpsVz4e4kOFtSABqzamxt+iBDUcgez3uBwf20UIozDs97znPUNYNvWz75fwTIstFkt+8pOfDIsF+mOOu7+RLLmpFgImkavNIozwMseEjgt1R/70ozf3KPLdMBQN0PZmdE/AD3HXjn0Xx03uos8IZf/Upz61bmhrCOM4gnkdBLY3AiGM23v8Hu69wjhH1WjuLtJ4bOU4nnzEEaMnl+r49FIb1ypU9ZRSHv1DF9L4MGSPyZN95VT+9sDB0a8q5PSGKmaDIP6x3ruvHpHI+YvEPybdzZccRgSobWeVSvH+979/UJ44ab3JYZMXJ1+Lg7wZRukQVnbBBRcMYXq9s4vwcGSpWxQShMd7k0xemZwwW00oVjNucqKodQ7EkyOKOCGGyFNzopEmTnKfY9W3tShhpIggdC9+8YsnqoAtHA85RBiRCH1xcJwV/ZlGGJFD+Lnmcyq/jiPdF2TRb9fNEUdgPPoOJMb1NeULefF9nPpmznGtFFB5lpQf5GMaWfS5ZSaMcEZybBIvv5U6288RcwlhMY6wdngPXuaUgxrmcw5Y959vuLfHRQgjkmixhNKMBPbtGm/z3fYf+obEtjnvmpBJ6qR7S//HbbMIo/vafWYBRai7hRnqdm/mmwUJ2LkvzNeWy2iuwg+O2unzqrUBZ8quLU78Vsiv9t6s+RrC2KOf50Fg+yMQwrj9x/BvrsCgHlv/+4cijkjjqaU2nlKPJ9TrE+s4oZ7v4tDUPzKxzUOAVqiQzb2lHP6pjj8qaFPHbQcP7al4y8EHR3fX3/dv3lempW2CAAeW4iRc7H3ve99A4ppT1hwvxW6++MUvDtUgKXSbYRxSDqCcSeqNfMReeRFCKcQMSZWT1BzI8e/mTK6trQ3kiUKKOHGIpxnHVFuNHDYn27Vyqjm4k1TGRQkjBVUlWAqgnLVpRunRJ46xPjF5WAqWIOfCgSeZflKFkWXVXSmO1KOe/E363Kz3XCOnXdXKb3/728NedsZhEqHo21lmwmh+wNW+f6rTUrqQ7DZvehwaSTem5lMjOP1iCBLnPH9rc7BvYxHCaK4L95TXp2+T+qQfxlWfzA3f6fuvvvrq0Vve8pZhUQLBHTfn+V14NEVv+jYtDrkfzFVh6Bal4LhRa9dFoRc9YL9Vqrz5up6FMK6HUP4eBLYXAhhDYuK215gt3NudNcqPL8fnGUUUT6uQ1Wceu3N00lE7Ro/vVrxDHReG9eEPtBvIPop3l5Nwc6mJv7hv/+gXBx4c/aaI4311wqPbgv3hr8qTbYoAcqi8v0IScu76HCOOJucSefnkJz85KBbIzWbaa1/72mE/NWFnHNRmSIpQP+RJmBmHd5a1rSbkNLY8wFnnj/9N+1RITjUlqHfynbsoYaTecZIRYoVOtDfe5ngf2msVYlV+Rc5baF77W/+IZCIzQv2MHwyR7nm/p2+rEWaKkyIuQlkRx3lsmQmj64ez0FRFVyjiiNqkRYVZWMHXYRGA+kcZt9jRFgnaZxchjOYY5Q6ps+gy3lZrs3/UBwSRGkedpORPss0mjMise8uejK95zWuGxY5JhWsm9WX8Pdfgd8kCz+dqe5pvfOMbQwEi9+88FsI4D0o5JwhsHwRCGLfPWG24pwKhhKvuqTzG4ymMO44cnVyPT6jjifX8CUfXUQRyZ/1js6Mcrtj6CCCJA0EsQvhvlZdoW4zb7//L6I5y/v9Q/8j+qV7/uUJO76mDC95I5fot54xlRIAaRwFr1Qc5sc2oTQpjCA2VH4QsIk6baXKb5DAiPPZta8YZlNekcMfFVWVRqNos0ogkymFEHCkZwjSpOPMYFe+mm24a8jQ58kI9x53vRQkjkkFB0dbZZ589OPbj2wCM940j7Bptu4GYcOxnXTMnHOEX/oooK2CDQLh2/Z+kOI1/p9dCFikz9tik1ghDRWzmVZOXnTDCUUikSrzyEB2KryDrTY2fhGt7z9yRE0oNkwvstYUSc3b884sQRnOMMi/sWb4sUrveHPPdwlRtZfGud71raoj5ZhPGtmAivFeerrkqJ9R89RvkWuYx94TfBTnACvuYq5RF1+Q3Yx4LYZwHpZwTBLYPAiGM22esNrWnJ9TII4xCVlVVPXVnVQ+sf7CPPfJxo51FGncWudxZxXIQyHq68vZgOZn3WzUuAnigHuUf3ltOwZ1FDG89eH/lKT4wurWe3+FvxQ5DEFd+yjwCACqFiptCGxGuXjmx5YOCN6p5UiQOh8ln4jjK90N0mjUVQf6kbTOQV8rMNOPUU9eEu3HotUkJQoC9zyGlcGiX04z8ag8RvfHGGwenU+grUkBpHXdgfcZ+cl/96lendWHi+6q36o88M9cKbySBQ976ghS2viCvQnFViPX3ecy1KwaisAqyrJgNMsMRb6GPvo/T7jqaOtO+E5lRWRLWqn5yyOd1vvUPmaIcnVV5sAhAP4fkYSo6JATypz/96TyXM1LMBdEW/kk17U0lTW0p2GLc5jFkWuimvq2trT38ETi4Zm0hHuspVPC0oGCOIR3ID1XcwkAbU2PR5i58KcTUcveRbThgAZ8LL7xwmGvjhJGaboFmEROabNFFcR6LB/rZ+tPmWD/fjTUF2XYWxnqSuVfMISGkb3/724f7qJ3X2rI/owWdRcwcdD+ao8YXcaQ0WnQwV2Hj3msquTHyfeYjLN0f+m9hQ56tolDrjdt4/+Bk/BxIezPhwnI7tSuyYdZiTftMe9SmSIy+vfY3+ZXzbBvSzs9jEAgCiyEQwrgYXktzdlMd7ds4HMUKT67jiUUin1KK45D3WIVy9pQCKd9xlY07eU/9g/rHUhNvqwqnt1ZO4m1FDn9X+yZSERFIuYsHH1ITN1cbWmXkl+faOWm2lLBVA8efw9usOWeUEQrc4TDfyQlXDIPj2BtnV0ELziG1C7mbZfounBRR5LghaBxoZKrlTHFAOfJNVeTIuz5OKMceaaVScph70xdOJMKyiCGsvpuDjDw67H/ourWpwAeFD74qPXJYVSfVp0WMo40o+C5bhSD/yC9SQ4VCVF0Tx5tjbDGgbTsCY+SrFR3hoOvbvOa7qVuKsFC4+jmkTWqlYxo5Gf8eRMW4tfb6v99yyy1DER6FeLQ9j5lf5rd5AYdmrlE7+nbbbbcNim7726RH+CEz5pjrNL/MF2173fJwEQ0YG1PYUsPgq+/G2nkK6OgPIt8blReZW8TMMW0iLZRPIebmgH6a7+aY+8d16o9Qb3NM/yblL/puY+i3wTUiVsa4mTZdo0UkFVgXNW3rs/6Zr8aa6ojMGyvj3xZs3POquFLAhUvbdsM1eI0omqv6s4jJL7Yo4fv6EHz3hnmgfb8LFlfmNW1adHNN4+aeVkHX784iJHS8nbwOAkFgMgIhjJNxWbl3TYTj6n/HF2k8aUetej507CkCKZT1uOE4pEAeU/+g767XR9c/SD63LEZFRPzuq0I19zrqH7J7ihTeXUTwrnr+53oPaTx01Os6N2risoz+4b0ODivHnJPGIW4r+77Vij5HsxGJw9ET388x5XD1znz7Lg42FUFf5lW9OLfa4jRrtxEmqgsnsJEmYWyceO27TtfO8Ud+etKjL8gFZ3XSNhetr9MeOb/IMBLLUW1qivP1xbXpi7bllCGz3tuI+S6KlzF1/UgJIknVcU0cVo4rZ5sj7voROd+5UdMuAtzU3H4OISSuhePve+cx42Q+6re50Zt2zAnkfhrZ6c/3XBv615Tm9ndjithpUx/nJQiuD87IDYwbOXP93teOa21jiqj1Cx6uy1wwTuPzjNqLyC9i+uPQpgUCj/DTH2TKHHON+mOhAFH0HH7TFga0597UjrnUL6C4PsciiwCTrse1wwt+FnXce+4N/W5EGo7GyHyFjXuk9X1Sm/O8p33zwW9Er/DCyjwwv4zXNGwmfYcxdQ09sW7n6a9D+/POsfbZPAaBILA+AiGM62O00mcgkSfWP2p7dxwxelKFr55S4atPtMdjPVc0pwKw6h/R0UAcTaZDx6H3AOf1VjFr+cN6fv2vSiMMz9t75dOM9v31EFG8vUJMby8V0XFLKYm3PVCEETncKheSfgSBIBAEgkAQCAJBIAgEgccIAf784EM/Rt+Xr9lmCAjkUWXV/o5Uxd21WrnryMeNjqnHY+s91Vf3VHTdcaVEHlfvHVfEcnher51zVB1/b9J4aIJXWFophftKJbynDtVMPQ4KYj0ihArU3FuPzttv9boe7ZfotZqViwXkbLOBTneDQBAIAkEgCASBIBAEgsAEBEIYJ4CSt9ZHQOYRIrmnCOPxSGMRReGrjxfCOpDGIwfiqHgOFbI4Zj2ORhWMNzyXwXVEfc77JqHXwnOGx3o+2EN/K73ykBpIBnzIZD14JZzF8+J09VhlwIfHInf1PoJX4uChx/rbEGpaRPDuB4ogVmjpXUUa764P3FXHn+r9e+vcqIgFWiwIBIEgEASCQBAIAkEgCDyEAF+93ORYEFgMAROnET2kj4546PHfiaD3jq6/7apzhbYeV4Tw2CKQu+pQiXV4rOdH13FUvVaRVQEe7TCEsv5UrRRhRPzqfy2UVMVS21oghCqXKjgzVDCtx/31PmWQWuiwD+I+n682tYFgtsc6rd7/d6JZL2NBIAgEgSAQBIJAEAgCQSAIPIQA1zw+cqbDYUOgVWPdWd8wbNdRM66Rwx31HEn0eCSiWOd4pDKyejqQxXoYDLF76L+HSR9F0fuI4wPF/g4RySpyUcRwqF5anzxYf7NzVD3EgkAQCAJBIAgEgSAQBIJAEFgAAb54/OgFAMupQSAIBIEgEASCQBAIAkEgCASBVUEghHFVRjrXGQSCQBAIAkEgCASBIBAEgkAQWBCBEMYFAcvpQSAIBIEgEASCQBAIAkEgCASBVUEghHFVRjrXGQSCQBAIAkEgCASBIBAEgkAQWBCBEMYFAcvpQSAIBIEgEASCQBAIAkEgCASBVUEghHFVRjrXGQSCQBAIAkEgCASBIBAEgkAQWBCBEMYFAcvpQSAIBIEgEASCQBAIAkEgCASBVUEghHFVRjrXGQSCQBAIAkEgCASBIBAEgkAQWBCBEMYFAcvpQSAIBIEgEASCQBAIAkEgCASBVUEghHFVRjrXGQSCQBAIAkEgCASBIBAEgkAQWBCBEMYFAcvpQSAIBIEgEASCQBAIAkEgCASBVUEghHFVRjrXGQSCQBAIAkEgCASBIBAEgkAQWBCBEMYFAcvpQSAIBIEgEASCQBAIAkEgCASBVUEghHFVRjrXGQSCQBAIAkEgCASBIBAEgkAQWBCBEMYFAcvpQSAIBIEgEASCQBAIAkEgCASBVUEghHFVRjrXGQSCQBAIAkEgCASBIBAEgkAQWBCBEMYFAcvpQSAIBIEgEASCQBAIAkEgCASBVUEghHFVRjrXGQSCQBAIAkEgCASBIBAEgkAQWBCBEMYFAcvpQSAIBIEgEASCQBAIAkEgCASBVUEghHFVRjrXGQSCQBAIAkEgCASBIBAEgkAQWBCBEMYFAcvpQSAIBIEgEASCQBAIAkEgCASBVUEghHFVRjrXGQSCQBAIAkEgCASBIBAEgkAQWBCBEMYFAcvpQSAIBIEgEASCQBAIAkEgCASBVUEghHFVRjrXGQSCQBAIAkEgCASBIBAEgkAQWBCBEMYFAcvpQSAIBIEgEASCQBAIAkEgCASBVUEghHFVRjrXGQSCQBAIAkEgCASBIBAEgkAQWBCBEMYFAcvpQSAIBIEgEASCQBAIAkEgCASBVUEghHFVRjrXGQSCQBAIAkEgCASBIBAEgkAQWBCBEMYFAcvpQSAIBIEgEASCQBAIAkEgCASBVUEghHFVRjrXGQSCQBAIAkEgCASBIBAEgkAQWBCBEMYFAcvpQSAIBIEgEASCQBAIAkEgCASBVUEghHFVRjrXGQSCQBAIAkEgCASBIBAEgkAQWBCBEMYFAcvpQSAIBIEgEASCQBAIAkEgCASBVUEghHFVRjrXGQSCQBAIAkEgCASBIBAEgkAQWBCBEMYFAcvpQSAIBIEgEASCQBAIAkEgCASBVUEghHFVRjrXGQSCQBAIAkEgCASBIBAEgkAQWBCBEMYFAcvpQSAIBIEgEASCQBAIAkEgCASBVUHg/wOLtIS7unp1gAAAAABJRU5ErkJggg==;" parent="1" vertex="1">
          <mxGeometry x="116.5" y="425" width="113.5" height="40" as="geometry" />
        </mxCell>
      </root>
    </mxGraphModel>
  </diagram>
</mxfile>
